<svg width="74" height="74" viewBox="0 0 74 74" xmlns="http://www.w3.org/2000/svg" xmlns:xlink="http://www.w3.org/1999/xlink"><title>original</title><defs><path id="a" d="M73.532 73.532V0H0v73.532z"/></defs><g fill="none" fill-rule="evenodd"><mask id="b" fill="#fff"><use xlink:href="#a"/></mask><path d="M27.723 37.147h8.948c2.984-.063 5.06-.54 6.236-1.428 1.174-.89 1.762-2.508 1.762-4.856 0-2.475-.588-4.125-1.762-4.95-1.174-.824-3.252-1.238-6.234-1.238-4.758 0-7.742.033-8.947.096v12.374zm12.565.76v.192c1.65.316 2.887 1.554 3.713 3.71l3.523 8.567H45.62L42.192 42c-.952-2.346-2.666-3.522-5.14-3.522-1.65 0-3.522-.015-5.617-.048-2.094-.03-3.33-.048-3.712-.048v11.994H26.01V23.44c2.284-.19 5.837-.286 10.66-.286 3.618 0 6.14.54 7.568 1.62 1.428 1.078 2.142 3.077 2.142 5.996 0 2.284-.476 3.966-1.428 5.044-.95 1.08-2.508 1.778-4.664 2.094zm-3.44 32.982c9.254 0 17.186-3.334 23.795-10 6.61-6.663 9.915-14.73 9.915-24.208 0-9.362-3.305-17.376-9.915-24.042-6.61-6.663-14.54-9.996-23.794-9.996-9.367 0-17.353 3.333-23.96 9.997-6.61 6.668-9.917 14.68-9.917 24.044 0 9.476 3.305 17.545 9.915 24.208 6.608 6.667 14.594 10 23.96 10zm0-70.89c10.135 0 18.78 3.58 25.943 10.74C69.95 17.9 73.534 26.55 73.534 36.68c0 10.246-3.58 18.95-10.74 26.11-7.163 7.16-15.81 10.74-25.943 10.74-10.246 0-18.95-3.58-26.11-10.74S0 46.928 0 36.682C0 26.55 3.578 17.902 10.74 10.74 17.9 3.58 26.605 0 36.85 0z" fill="#3B2113" mask="url(#b)"/></g></svg>