<svg width="62" height="62" viewBox="0 0 62 62" xmlns="http://www.w3.org/2000/svg"><title>thinck</title><path d="M57.94 18.51L27.323 49.127 12.306 34.11 43.104 3.314c.785-.785 2.153-.785 2.938 0l.198.198c.393.393.61.915.61 1.47 0 .554-.217 1.076-.61 1.468L28.68 24.01c-2.465 2.466-2.465 6.478 0 8.944 2.466 2.465 6.478 2.465 8.944 0l17.378-17.38c.81-.81 2.128-.81 2.938 0s.81 2.127 0 2.938m-4.85-4.85L35.71 31.04c-1.41 1.41-3.706 1.41-5.117 0-1.412-1.412-1.412-3.708 0-5.12l17.56-17.56c.902-.902 1.4-2.103 1.4-3.38 0-1.277-.498-2.478-1.4-3.38l-.2-.2c-.9-.902-2.103-1.4-3.38-1.4-1.276 0-2.477.498-3.38 1.4L10.396 32.2 5.49 27.294c-.59-.59-1.545-.6-2.147-.02L.47 30.05c-.62.595-.627 1.58-.02 2.187l4.954 4.955-3.786 3.785c-.53.528-.53 1.384 0 1.912.527.53 1.384.53 1.912 0l3.786-3.79 15.016 15.02-3.335 3.335c-.528.528-.528 1.384 0 1.912.264.264.61.396.956.396.345 0 .692-.13.955-.395l3.336-3.335 5.47 5.47c.597.597 1.568.597 2.166 0l2.824-2.825c.598-.598.598-1.568 0-2.167l-5.47-5.47 30.618-30.616c1.864-1.863 1.864-4.896 0-6.76-1.864-1.864-4.897-1.864-6.762 0z" fill="#3B2113" fill-rule="evenodd"/></svg>