<svg width="828" height="478" viewBox="0 0 828 478" xmlns="http://www.w3.org/2000/svg" xmlns:xlink="http://www.w3.org/1999/xlink"><title>Group 2</title><defs><path id="a" d="M0 477.972h415.437V0H0z"/></defs><g fill="none" fill-rule="evenodd"><text font-family="Arial, sans-serif" font-size="18" text-decoration="underline" fill="#937761"><tspan x="662" y="220">Нет пара</tspan></text><text font-family="Arial, sans-serif" font-size="18" text-decoration="underline" fill="#937761"><tspan x=".465" y="122">Не включается</tspan></text><text font-family="Arial, sans-serif" font-size="18" text-decoration="underline" fill="#937761"><tspan x="662" y="318">Не наливает</tspan> <tspan x="662" y="342">кофе</tspan></text><text font-family="Arial, sans-serif" font-size="18" text-decoration="underline" fill="#937761"><tspan x="657" y="109">Горят индикаторы</tspan> <tspan x="657" y="133">и не наливает кофе</tspan></text><text font-family="Arial, sans-serif" font-size="18" text-decoration="underline" fill="#937761"><tspan x="7.938" y="224">Не нагревает</tspan> <tspan x="84.526" y="248">воду</tspan></text><text font-family="Arial, sans-serif" font-size="18" text-decoration="underline" fill="#937761"><tspan x="33.972" y="336">Протекает</tspan></text><g transform="translate(150)"><path d="M223.803 134.62c9.246-.495 16.634-8.794 16.634-18.953 0-10.16-7.388-18.457-16.634-18.95 7.33 2.657 12.634 10.14 12.634 18.95 0 8.81-5.303 16.292-12.634 18.952zm-23.366-18.953c0 10.477 7.85 19 17.5 19s17.5-8.523 17.5-19-7.85-19-17.5-19-17.5 8.523-17.5 19zm22.5-20c10.2 0 18.5 8.972 18.5 20s-8.3 20-18.5 20h-5c-10.2 0-18.5-8.972-18.5-20s8.3-20 18.5-20h5z" fill="#937761"/><path d="M212.436 115.667c0-2.088 1.16-3.876 2.8-4.624-1.1 1.006-1.8 2.507-1.8 4.174 0 2.705 1.82 4.95 4.192 5.372-.227.04-.455.076-.692.076-2.48 0-4.5-2.243-4.5-5m9 0c0 1.427-.548 2.708-1.414 3.62-.5.243-1.03.38-1.586.38-2.206 0-4-1.997-4-4.45 0-2.246 1.506-4.14 3.504-4.414 1.998.51 3.496 2.492 3.496 4.864m-.816 4.455c.09-.047.152-.123.197-.207 1-1.087 1.62-2.59 1.62-4.247 0-3.31-2.47-6-5.5-6-3.033 0-5.5 2.69-5.5 6s2.467 6 5.5 6c1.405 0 2.686-.584 3.66-1.535l.023-.01m-37.184-20.453h-1v-12.9l1 .668v12.232zm-14 0h12v-13h-12v13zm13.277-13.916c-.164-.11-.37-.103-.53-.01-.074-.04-.155-.072-.247-.072h-13c-.276 0-.5.224-.5.5v14c0 .276.224.5.5.5h13c.093 0 .176-.032.25-.077.074.046.157.078.25.078h1.5c.276 0 .5-.224.5-.5v-13c0-.167-.084-.323-.223-.416l-1.5-1z" fill="#937761"/><mask id="b" fill="#fff"><use xlink:href="#a"/></mask><path d="M182.436 120.667h1v-13h-1v13zm-13 0h12v-13h-12v13zm14.5-14h-1.5c-.092 0-.175.033-.25.077-.074-.044-.157-.077-.25-.077h-13c-.276 0-.5.224-.5.5v14c0 .277.224.5.5.5h13c.093 0 .176-.032.25-.076.075.046.158.078.25.078h1.5c.277 0 .5-.223.5-.5v-14c0-.276-.223-.5-.5-.5zm-.5 33.233l-1 .667v-12.9h1V139.9zm-14 .768h12v-13h-12v13zm14.5-14h-1.5c-.093 0-.176.032-.25.076-.074-.044-.157-.076-.25-.076h-13c-.276 0-.5.223-.5.5v14c0 .276.224.5.5.5h13c.092 0 .174-.032.248-.076.077.046.163.076.252.076.096 0 .192-.028.277-.084l1.5-1c.14-.093.223-.25.223-.416v-13c0-.277-.224-.5-.5-.5zm86.5-25h-1v-12.9l1 .667v12.232zm-14 0h12v-13h-12v13zm13.277-13.917c-.165-.107-.37-.103-.53-.01-.073-.04-.154-.072-.246-.072h-13c-.276 0-.5.224-.5.5v14c0 .276.224.5.5.5h13c.092 0 .175-.032.25-.077.073.046.156.078.25.078h1.5c.275 0 .5-.224.5-.5v-13c0-.167-.084-.323-.224-.416l-1.5-1zm-.277 34.917h1v-13h-1v13zm-13 0h12v-13h-12v13zm14.5-14h-1.5c-.092 0-.175.033-.25.077-.074-.044-.157-.077-.25-.077h-13c-.276 0-.5.224-.5.5v14c0 .277.224.5.5.5h13c.093 0 .176-.032.25-.076.075.046.158.078.25.078h1.5c.277 0 .5-.223.5-.5v-14c0-.276-.223-.5-.5-.5zm-.5 33.233l-1 .667v-12.9h1V141.9zm-14 .768h12v-13h-12v13zm14.5-14h-1.5c-.093 0-.176.032-.25.076-.074-.044-.157-.076-.25-.076h-13c-.275 0-.5.223-.5.5v14c0 .276.225.5.5.5h13c.09 0 .174-.032.25-.076.076.046.162.076.25.076.097 0 .19-.028.277-.084l1.5-1c.14-.093.224-.25.224-.416v-13c0-.277-.225-.5-.5-.5zm-108 231c2.217 0 3.657.272 4.258.5-.6.226-2.04.5-4.258.5-2.217 0-3.657-.274-4.258-.5.6-.228 2.04-.5 4.258-.5m0 2c1.29 0 5.5-.11 5.5-1.5s-4.21-1.5-5.5-1.5-5.5.107-5.5 1.5 4.21 1.5 5.5 1.5m-6 2c2.217 0 3.657.272 4.258.5-.6.226-2.04.5-4.258.5-2.217 0-3.657-.274-4.258-.5.6-.228 2.04-.5 4.258-.5m0 2c1.29 0 5.5-.11 5.5-1.5s-4.21-1.5-5.5-1.5-5.5.107-5.5 1.5 4.21 1.5 5.5 1.5m-5 3c-2.217 0-3.657-.274-4.258-.5.6-.228 2.04-.5 4.258-.5 2.217 0 3.657.272 4.258.5-.6.226-2.04.5-4.258.5m5.5-.5c0-1.393-4.21-1.5-5.5-1.5s-5.5.107-5.5 1.5 4.21 1.5 5.5 1.5 5.5-.11 5.5-1.5m-11.5 4.5c-2.217 0-3.657-.274-4.258-.5.6-.228 2.04-.5 4.258-.5 2.217 0 3.657.272 4.258.5-.6.226-2.04.5-4.258.5m0-2c-1.29 0-5.5.107-5.5 1.5s4.21 1.5 5.5 1.5 5.5-.11 5.5-1.5-4.21-1.5-5.5-1.5m33-11c2.217 0 3.657.272 4.258.5-.6.226-2.04.5-4.258.5-2.217 0-3.657-.274-4.258-.5.6-.228 2.04-.5 4.258-.5m0 2c1.29 0 5.5-.11 5.5-1.5s-4.21-1.5-5.5-1.5-5.5.107-5.5 1.5 4.21 1.5 5.5 1.5m-6 2c2.217 0 3.657.272 4.258.5-.6.226-2.04.5-4.258.5-2.217 0-3.657-.274-4.258-.5.6-.228 2.04-.5 4.258-.5m-5.5.5c0 1.39 4.21 1.5 5.5 1.5s5.5-.11 5.5-1.5-4.21-1.5-5.5-1.5-5.5.107-5.5 1.5m.5 4.5c-2.217 0-3.657-.274-4.258-.5.6-.228 2.04-.5 4.258-.5 2.217 0 3.657.272 4.258.5-.6.226-2.04.5-4.258.5m5.5-.5c0-1.393-4.21-1.5-5.5-1.5s-5.5.107-5.5 1.5 4.21 1.5 5.5 1.5 5.5-.11 5.5-1.5m-11.5 4.5c-2.217 0-3.657-.274-4.258-.5.6-.228 2.04-.5 4.258-.5 2.217 0 3.657.272 4.258.5-.6.226-2.04.5-4.258.5m0-2c-1.29 0-5.5.107-5.5 1.5s4.21 1.5 5.5 1.5 5.5-.11 5.5-1.5-4.21-1.5-5.5-1.5m32-10c-2.217 0-3.657-.274-4.258-.5.6-.228 2.04-.5 4.258-.5 2.217 0 3.657.272 4.258.5-.6.226-2.04.5-4.258.5m0-2c-1.29 0-5.5.107-5.5 1.5s4.21 1.5 5.5 1.5 5.5-.11 5.5-1.5-4.21-1.5-5.5-1.5m-6 6c-2.217 0-3.657-.274-4.258-.5.6-.228 2.04-.5 4.258-.5 2.217 0 3.657.272 4.258.5-.6.226-2.04.5-4.258.5m0-2c-1.29 0-5.5.107-5.5 1.5s4.21 1.5 5.5 1.5 5.5-.11 5.5-1.5-4.21-1.5-5.5-1.5m-5 6c-2.217 0-3.657-.274-4.258-.5.6-.228 2.04-.5 4.258-.5 2.217 0 3.657.272 4.258.5-.6.226-2.04.5-4.258.5m0-2c-1.29 0-5.5.107-5.5 1.5s4.21 1.5 5.5 1.5 5.5-.11 5.5-1.5-4.21-1.5-5.5-1.5m-6 6c-2.217 0-3.657-.274-4.258-.5.6-.228 2.04-.5 4.258-.5 2.217 0 3.657.272 4.258.5-.6.226-2.04.5-4.258.5m0-2c-1.29 0-5.5.107-5.5 1.5s4.21 1.5 5.5 1.5 5.5-.11 5.5-1.5-4.21-1.5-5.5-1.5m76-8c2.217 0 3.657.272 4.258.5-.6.226-2.04.5-4.258.5-2.217 0-3.657-.274-4.258-.5.6-.228 2.04-.5 4.258-.5m0 2c1.29 0 5.5-.11 5.5-1.5s-4.21-1.5-5.5-1.5-5.5.107-5.5 1.5 4.21 1.5 5.5 1.5m-6 2c2.217 0 3.657.272 4.258.5-.6.226-2.04.5-4.258.5-2.217 0-3.657-.274-4.258-.5.6-.228 2.04-.5 4.258-.5m0 2c1.29 0 5.5-.11 5.5-1.5s-4.21-1.5-5.5-1.5-5.5.107-5.5 1.5 4.21 1.5 5.5 1.5m-5 3c-2.217 0-3.657-.274-4.258-.5.6-.228 2.04-.5 4.258-.5 2.217 0 3.657.272 4.258.5-.6.226-2.04.5-4.258.5m5.5-.5c0-1.393-4.21-1.5-5.5-1.5s-5.5.107-5.5 1.5 4.21 1.5 5.5 1.5 5.5-.11 5.5-1.5m-11.5 4.5c-2.217 0-3.657-.274-4.258-.5.6-.228 2.04-.5 4.258-.5 2.217 0 3.657.272 4.258.5-.6.226-2.04.5-4.258.5m0-2c-1.29 0-5.5.107-5.5 1.5s4.21 1.5 5.5 1.5 5.5-.11 5.5-1.5-4.21-1.5-5.5-1.5m33-11c2.217 0 3.657.272 4.258.5-.6.226-2.04.5-4.257.5-2.218 0-3.658-.274-4.26-.5.602-.228 2.042-.5 4.26-.5m0 2c1.29 0 5.5-.11 5.5-1.5s-4.21-1.5-5.5-1.5-5.5.107-5.5 1.5 4.21 1.5 5.5 1.5m-6 2c2.216 0 3.656.272 4.257.5-.6.226-2.04.5-4.257.5-2.218 0-3.658-.274-4.26-.5.602-.228 2.042-.5 4.26-.5m-5.5.5c0 1.39 4.21 1.5 5.5 1.5s5.5-.11 5.5-1.5-4.21-1.5-5.5-1.5-5.5.107-5.5 1.5m.5 4.5c-2.218 0-3.657-.274-4.258-.5.6-.228 2.04-.5 4.256-.5s3.656.272 4.257.5c-.6.226-2.04.5-4.257.5m5.5-.5c0-1.393-4.21-1.5-5.5-1.5s-5.5.107-5.5 1.5 4.21 1.5 5.5 1.5 5.5-.11 5.5-1.5m-11.5 4.5c-2.217 0-3.657-.274-4.258-.5.6-.228 2.04-.5 4.258-.5 2.217 0 3.657.272 4.258.5-.6.226-2.04.5-4.258.5m0-2c-1.29 0-5.5.107-5.5 1.5s4.21 1.5 5.5 1.5 5.5-.11 5.5-1.5-4.21-1.5-5.5-1.5m32-10c-2.217 0-3.657-.274-4.26-.5.603-.228 2.043-.5 4.26-.5 2.217 0 3.657.272 4.258.5-.6.226-2.04.5-4.257.5m0-2c-1.29 0-5.5.107-5.5 1.5s4.21 1.5 5.5 1.5 5.5-.11 5.5-1.5-4.21-1.5-5.5-1.5m-6 6c-2.218 0-3.658-.274-4.26-.5.602-.228 2.042-.5 4.26-.5 2.216 0 3.656.272 4.257.5-.6.226-2.04.5-4.257.5m0-2c-1.29 0-5.5.107-5.5 1.5s4.21 1.5 5.5 1.5 5.5-.11 5.5-1.5-4.21-1.5-5.5-1.5m-5 6c-2.218 0-3.658-.274-4.26-.5.602-.228 2.042-.5 4.26-.5 2.216 0 3.656.272 4.257.5-.6.226-2.04.5-4.257.5m0-2c-1.29 0-5.5.107-5.5 1.5s4.21 1.5 5.5 1.5 5.5-.11 5.5-1.5-4.21-1.5-5.5-1.5m-6 6c-2.218 0-3.658-.274-4.26-.5.602-.228 2.042-.5 4.26-.5 2.216 0 3.656.272 4.257.5-.6.226-2.04.5-4.257.5m0-2c-1.29 0-5.5.107-5.5 1.5s4.21 1.5 5.5 1.5 5.5-.11 5.5-1.5-4.21-1.5-5.5-1.5m-145.5-303c2.756 0 5 2.69 5 6s-2.244 6-5 6-5-2.69-5-6 2.242-6 5-6zm3.16-.407c1.205 0 2.355.49 3.24 1.376 1.02 1.026 1.604 2.495 1.6 4.03-.013 3.777-1.428 5.92-4.41 6.6 1.46-1.28 2.41-3.31 2.41-5.598 0-2.802-1.423-5.22-3.467-6.336l.626-.07zm-9.16 6.408c0 3.86 2.69 7 6 7 .44 0 .87-.06 1.285-.166 5.102-.02 7.698-2.655 7.715-7.832.005-1.798-.685-3.526-1.895-4.74-1.07-1.072-2.465-1.664-3.99-1.664h-.012l-3.66.406.005.03c-3.052.326-5.45 3.324-5.45 6.967zm259.833 27.097h1V68h-1m4.333 33.05h1V65.285h-1m4.333 33.05h1V62.57h-1m4.334 33.048h1V59.853h-1m4.333 33.05h1V57.138h-1m4.333 33.05h1V54.42h-1m4.334 33.048h1V51.707h-1" fill="#937761" mask="url(#b)"/><path d="M342.437 386.36l19.565-21.428c.924-1.012 1.435-2.326 1.435-3.697v-2.817l8-6V320.59l-7.12 1.018c-1.96-9.506-4.85-97.553-4.88-98.44 0-15.097 1.606-15.108 2.78-15.116.48-.003 1.08-.007 1.615-.49 1.678-1.515 2.605-3.495 2.605-5.574V63.524c3.772-1.317 33.98-12.024 40.777-19.767l-3.776 300.295-8 16.892V350.7c0-.612-.37-1.15-.945-1.367-.57-.217-1.204-.063-1.613.395L379.483 364.8c-.675.76-1.046 1.737-1.046 2.752v17.416l-36 37.947V386.36zm-257-7.603v-2.852c0-2.174 1.075-4.198 2.876-5.417l30.78-20.823 51.848-.997 130.977 5 60.52 4.96v2.607c0 1.12-.416 2.194-1.172 3.023l-19.562 21.424c-156.532 11.437-249.416-5.608-256.265-6.925zm26.386-227.564c3.727.198 25.218 1.32 54.436 2.44-.63 3.142-1.2 18.365 1.05 97.8 1.284 45.3 2.916 90.94 3.107 96.244l-51.015.982c-5.98-86.096-7.724-150.558-7.58-197.468zm54.233-118.54c.224-.055.38-.255.38-.485v.5h211.5v-.01c.105 0 .21-.023.297-.087l14.204-10.415v4.014c0 .275.224.5.5.5h12.7l-43.844 20.015C288.675 57.628 142.8 45.878 120 43.932l46.055-11.28zm.38-18.012c9.715-.517 162.574-8.487 210.16-.205.486.084.84.51.84 1.012V31.67h-211V14.64zm225.21-8.09c.452.04.79.416.79.87v13.495l-14 10.267V15.478l11.725-5.862c.25-.124.347-.424.225-.67-.125-.25-.423-.347-.672-.225l-11.522 5.763c-.283-.53-.795-.925-1.42-1.034-16.5-2.87-45.576-3.77-75.524-3.77-16.567 0-33.406.274-48.523.643-39.3.958-74.555 2.707-84.214 3.21C219.295-8.555 373.923 4.915 391.65 6.55zM117.352 44.707c2.824.25 18.423 1.604 41.023 3.1-.41 6.417-4.803 76.79-3.46 104.376-23.4-.96-39.96-1.825-43.087-1.992.26-71.21 4.877-101.578 5.526-105.483zm248.424 17.988l-.337.116v86.97c-14 3.702-44.41 5.108-79.506 5.298-1.47-27.697 3.418-101.934 3.47-102.68l-1-.067c-.05.75-4.936 74.96-3.47 102.755-43.398.206-93.745-1.422-129.017-2.86-1.355-27.463 3.046-97.922 3.456-104.35 31.647 2.083 76.584 4.413 119.317 4.412 30.878 0 60.614-1.217 83.323-4.624.047-.007.09-.02.135-.04l45.28-20.672-.19 15.09c-4.288 7.76-41.09 20.528-41.462 20.656zm-2.733 294.77c-1.646-2.98-4.635-21.308-7.728-104.44-1.855-49.795-2.865-99.372-2.875-99.868l-.607.013c5.442-.654 10.036-1.435 13.607-2.36v51.177c0 1.792-.81 3.508-2.276 4.832-.24.215-.504.23-.952.23-2.278.017-3.772 1.146-3.772 16.133.124 3.76 3.026 92.142 5.02 99.12l.12.42 6.86-.98v30.174l-7.394 5.546zm-68.457-201.468c22.47-.264 42.525-1.09 56.854-2.78.17 8.372 3.893 188.445 10.6 204.375l-59.62-4.885c-.41-9.98-7.426-180.87-7.833-196.71zM185.106 337.67l115.736.997.575 13.98-129.1-4.927 12.792-10.05zm33.33-99.002h18v-3h-18v3zm0-56.397l18 .24v52.16h-18v-52.4zm-4 75.4v10.073c-3.65.564-7.346.564-11 0V257.67h11zm3-18v13.977c0 1.666-1.354 3.022-3.02 3.022H203.46c-1.667 0-3.023-1.357-3.023-3.023V182.67h17v57zm33.98 17H240.46c-1.667 0-3.023-1.357-3.023-3.023v-70.98h10.78l6.22.084v70.897c0 1.666-1.355 3.022-3.02 3.022zm1.02 1v10.073c-3.65.564-7.346.564-11 0V257.67h11zm32.834-101.595v26.087l-30.06-.4c-.08-.053-.17-.092-.274-.092h-6.71l-74.6-.994V153.91c30.925 1.132 68.97 2.184 103.57 2.184 2.714 0 5.405-.007 8.073-.02zm1-.006l2.132-.014v24.798l-2.132 1.02V156.07zm-119.03-2.4c1.767.068 3.562.135 5.383.202v27.79l26.84.356c-.013.048-.03.097-.03.15v71.478c0 1.862 1.28 3.42 3 3.874v10.648c0 .244.178.453.42.493 2.018.338 4.05.507 6.082.507 2.03 0 4.063-.17 6.08-.505.243-.04.42-.248.42-.492v-10.65c1.72-.455 3-2.012 3-3.874v-13.978h18v13.978c0 2.21 1.79 4.008 4 4.02v10.502c0 .244.176.453.417.493 2.018.338 4.05.507 6.082.507s4.064-.17 6.082-.505c.242-.04.418-.248.418-.492v-11c0-.02-.01-.04-.012-.06 1.197-.696 2.012-1.98 2.012-3.462v-70.882l30.833.41v-.19l3.132-1.5V156.05c1.4-.01 2.796-.025 4.18-.04.234 9.085 2.645 69.255 4.735 120.77-.083-.05-.18-.08-.29-.074-58.523 4.76-122.98.963-128.95.59-1.728-56.558-3.255-119.286-1.837-123.624zm4.16 193.497c-.613-16.937-1.473-42.16-2.292-68.868 4.026.247 30.206 1.782 63.438 1.782 20.374 0 43.397-.578 65.562-2.382.092-.007.17-.045.24-.096.975 24.003 1.876 46.05 2.45 60.063l-115.373-.995-.99-57.013-1 .015.995 57.252-13.03 10.24zm223.035 15.5h-11.72l10.91-12.275c.195-.22.44-.15.51-.124.07.027.3.136.3.432v11.968zm20.495 63.028c-3.212-8.863-22.043-15.89-54.464-20.336l18.83-19.85.14-.144V367.55c0-.77.28-1.51.793-2.086l2.206-2.483v.687h13v-.387l8.998-18.997 4.002-318.11h-.007c0-.037.002-.074-.006-.112-.05-.227-.254-.39-.488-.39h-14.5v-4c0-.093-.024-.178-.067-.25.042-.077.066-.16.066-.25V7.42c0-.975-.73-1.778-1.697-1.867-18.037-1.663-177.596-15.56-226.015 8.16-.023.012-.046.024-.066.038-.066.045-.12.1-.155.165v.002c-.034.055-.055.117-.065.183-.002.026-.005.053-.004.078v17.598l-48.62 11.906c-.192.047-.33.206-.365.395h-.004c-.14.75-13.817 77.63 1.973 304.838L87.75 369.66c-2.075 1.404-3.314 3.74-3.314 6.245v3.67l.4.083c.707.143 55.062 10.953 152.207 10.95 30.65 0 65.575-1.075 104.394-3.902v36.984c-11.192.512-209.936 9.28-252-8.85v-34.172h-1v34.826l.297.13c20.952 9.258 81.992 11.623 138.897 11.623 58.845 0 113.263-2.53 114.33-2.58l.478-.023v-.278l17.186-18.115c41.007 5.545 52.207 13.817 54.37 19.787 1.093 3.018.137 6.197-2.844 9.448-11.846 12.926-49.292 21.98-69.084 16.7-38.94-10.383-83.04 2.693-108.978 17.046-32.947 18.234-80.608 3.096-102.778-21.893-15.484-17.455-37.394-13.554-60.587-9.423-19.04 3.388-38.727 6.896-58.126.28C3.622 435.476.123 432.046 1.197 428c1.785-6.706 16.27-15.554 38.753-23.666 19.078-6.884 38.796-11.35 44.89-10.173l.19-.983C71.92 390.65 4.497 411.702.23 427.74c-1.234 4.646 2.482 8.48 11.045 11.4 19.644 6.697 39.46 3.17 58.623-.243 23.91-4.257 44.553-7.933 59.665 9.103 18.202 20.518 45.47 29.973 69.674 29.972 12.94 0 25.007-2.705 34.335-7.867 25.774-14.263 69.59-27.263 108.236-16.954 20.058 5.353 58.046-3.86 70.08-16.99 3.25-3.546 4.276-7.07 3.045-10.464z" fill="#937761" mask="url(#b)"/></g><circle fill="#937761" cx="259.5" cy="80.5" r="9.5"/><circle fill="#937761" cx="358.5" cy="175.5" r="9.5"/><circle fill="#937761" cx="321.5" cy="452.5" r="9.5"/><circle fill="#937761" cx="406.5" cy="272.5" r="9.5"/><circle fill="#937761" cx="450.5" cy="219.5" r="9.5"/><circle fill="#937761" cx="412.5" cy="71.5" r="9.5"/><path stroke="#937761" d="M155 118.32h63.977l40.46-35.98M155.37 228.758h65.246l137.345-50.78m278.79-62.4h-59.037L413.246 72.453M636.77 214.94h-58.376l-125.906 4.087m183.184 102.73h-49.24L407.41 275.794m-250.894 57.105h61.32L322.1 450.445"/></g></svg>