<svg width="51" height="52" viewBox="0 0 51 52" xmlns="http://www.w3.org/2000/svg" xmlns:xlink="http://www.w3.org/1999/xlink"><title>Page 1</title><defs><path id="a" d="M0 51.397h50.995V0H0z"/></defs><g fill="none" fill-rule="evenodd"><mask id="b" fill="#fff"><use xlink:href="#a"/></mask><path d="M28.685 24.067c0 1.773-1.428 3.215-3.187 3.215-1.758 0-3.188-1.442-3.188-3.215s1.43-3.215 3.188-3.215c1.76 0 3.187 1.442 3.187 3.215zm-9.562 0c0 3.546 2.86 6.43 6.375 6.43s6.375-2.884 6.375-6.43-2.86-6.43-6.375-6.43-6.375 2.884-6.375 6.43zm28.22 2.745c-.602.605-1.65.605-2.253 0L27.75 9.322l1.128-1.137c.397-.4.692-.863.92-1.346l17.545 17.697c.622.628.622 1.646 0 2.274zm-5.908 21.37H35.06V36.928c0-1.773-1.43-3.215-3.187-3.215h-12.75c-1.758 0-3.188 1.442-3.188 3.215v11.254H9.56v-20.51l15.938-16.078L41.435 27.67v20.512zm-35.53-21.37c-.602.605-1.65.605-2.253 0-.62-.628-.62-1.646 0-2.274L21.2 6.838c.226.484.52.947.917 1.347l1.127 1.137-17.338 17.49zM24.372 3.638c.302-.302.7-.47 1.128-.47.427 0 .827.168 1.126.47.622.628.622 1.648 0 2.274L25.5 7.048l-1.127-1.136c-.62-.626-.62-1.646 0-2.274zM49.6 22.265l-20.72-20.9c-1.807-1.82-4.953-1.82-6.76 0L1.4 22.265c-1.866 1.88-1.866 4.94 0 6.82.9.91 2.102 1.413 3.38 1.413.553 0 1.086-.11 1.593-.292v17.976c0 1.772 1.43 3.215 3.187 3.215h6.375c1.76 0 3.188-1.443 3.188-3.215V36.928h12.75v11.254c0 1.772 1.43 3.215 3.187 3.215h6.375c1.76 0 3.188-1.443 3.188-3.215V30.206c.506.18 1.04.292 1.593.292 1.28 0 2.48-.503 3.38-1.414 1.865-1.88 1.865-4.938 0-6.82z" fill="#3B2113" mask="url(#b)"/></g></svg>