<svg width="52" height="52" viewBox="0 0 52 52" xmlns="http://www.w3.org/2000/svg"><title>Page 1</title><path d="M48.595 15.524l-25.68 25.68L10.322 28.61l25.83-25.833c.658-.657 1.806-.658 2.464 0l.166.167c.33.33.51.766.51 1.23 0 .467-.18.904-.51 1.233l-14.728 14.73c-2.067 2.067-2.067 5.432 0 7.5 2.068 2.07 5.433 2.07 7.5 0L46.13 13.06c.68-.68 1.786-.68 2.466 0 .68.68.68 1.786 0 2.465m-4.068-4.067L29.95 26.033c-1.182 1.184-3.108 1.184-4.292 0-1.184-1.184-1.184-3.11 0-4.293L40.386 7.012c.757-.757 1.174-1.764 1.174-2.836 0-1.07-.417-2.078-1.174-2.835l-.166-.165C39.462.417 38.455 0 37.384 0c-1.07 0-2.078.417-2.835 1.175L8.716 27.005l-4.113-4.112c-.495-.496-1.297-.503-1.8-.017L.392 25.2c-.518.5-.525 1.327-.016 1.836L4.53 31.19 1.357 34.37c-.443.442-.443 1.16 0 1.603.442.444 1.16.444 1.603 0l3.175-3.174L18.73 45.39l-2.797 2.797c-.443.442-.443 1.16 0 1.603.22.22.51.332.802.332.29 0 .58-.11.8-.332l2.8-2.797 4.585 4.587c.503.502 1.316.502 1.818 0l2.368-2.368c.502-.502.502-1.316 0-1.818l-4.587-4.587 25.677-25.68c1.564-1.563 1.564-4.107 0-5.67-1.563-1.564-4.107-1.563-5.67 0z" fill="#3B2113" fill-rule="evenodd"/></svg>