<svg width="103" height="95" viewBox="0 0 103 95" xmlns="http://www.w3.org/2000/svg"><title>Group 2</title><g transform="translate(2 2)" fill="none" fill-rule="evenodd"><path d="M1.11 33.734H80.62S85.76 84.33 41.038 84.33C-3.688 84.33 1.11 33.734 1.11 33.734z" stroke="#6E4E37" stroke-width="4"/><circle stroke="#6E4E37" stroke-width="4" cx="89.5" cy="56.5" r="9.5"/><path d="M2.5 91h76.655" stroke="#6E4E37" stroke-width="4" stroke-linecap="square"/><path d="M27.143 0s-12.34 3.148-4.58 14.702c7.758 11.554.174 11.444.174 11.444M43.143 0s-12.34 3.148-4.58 14.702c7.758 11.554.174 11.444.174 11.444M59.143 0s-12.34 3.148-4.58 14.702c7.758 11.554.174 11.444.174 11.444" stroke="#6E4E37" stroke-width="4"/><path d="M27 69.65s12.96-16.484 29.283-1.057" stroke="#6E4E37" stroke-width="3"/><circle fill="#C5A88A" cx="22" cy="50" r="5"/><circle fill="#C5A88A" cx="57" cy="50" r="5"/></g></svg>