<svg xmlns="http://www.w3.org/2000/svg" viewBox="0 0 512.001 512.001" width="32" height="32"><path d="M511.646 126.634c-.02-14.45-11.782-26.19-26.227-26.19h-.036l-459.195.632c-7.006.01-13.59 2.746-18.536 7.706C2.71 113.742-.01 120.334 0 127.337l.355 258.03C.365 392.37 3.1 398.953 8.06 403.9c4.952 4.94 11.527 7.656 18.52 7.656h.035l459.194-.63c14.456-.02 26.205-11.8 26.19-26.262l-.355-258.03zm-55.035.076L256.02 266.154 55.04 127.262l401.57-.552zM340.848 292.47l118.97 92.266-407.97.56L171.54 292.47c5.723-4.438 6.765-12.674 2.327-18.398-4.44-5.722-12.675-6.764-18.4-2.326L26.56 371.716l-.32-232.476 222.346 153.657c2.244 1.55 4.85 2.325 7.455 2.325 2.618 0 5.237-.783 7.486-2.346l221.912-154.264.336 233.066-128.856-99.93c-5.72-4.438-13.96-3.397-18.397 2.325-4.44 5.722-3.397 13.96 2.327 18.398z" fill="#6d4d36"/></svg>