<svg xmlns="http://www.w3.org/2000/svg" viewBox="0 0 512 512" width="32" height="32"><path d="M256 0C153.755 0 70.573 83.182 70.573 185.426c0 126.888 165.94 313.167 173.004 321.035 6.636 7.392 18.222 7.38 24.846 0 7.065-7.867 173.004-194.146 173.004-321.034C441.425 83.182 358.244 0 256 0zm0 469.73c-55.847-66.34-152.035-197.218-152.035-284.302 0-83.834 68.202-152.036 152.035-152.036s152.035 68.202 152.035 152.035c0 87.088-96.174 217.943-152.035 284.302z" fill="#6d4d36"/><path d="M256 92.134c-51.442 0-93.292 41.85-93.292 93.293S204.558 278.72 256 278.72s93.29-41.85 93.29-93.293S307.44 92.134 256 92.134zm0 153.194c-33.03 0-59.9-26.87-59.9-59.9s26.87-59.902 59.9-59.902 59.9 26.87 59.9 59.9-26.87 59.902-59.9 59.902z" fill="#6d4d36"/></svg>