<svg xmlns="http://www.w3.org/2000/svg" width="32" height="32" viewBox="0 0 95.44 95.441"><g fill="#6d4d36"><path d="M47.72 11.712C21.367 11.712 0 33.282 0 59.888c0 14.427 6.226 23.836 6.226 23.836l82.97.004s6.244-10.283 6.244-23.84c0-26.607-21.366-48.176-47.72-48.176zM85.697 77.86l-75.8-.034s-4.038-7.65-4.038-18.09c0-23.32 18.814-42.226 42.023-42.226 23.21 0 42.024 18.905 42.024 42.226 0 10.56-4.208 18.123-4.208 18.123z"/><path d="M61.207 24.505h-.6L47.88 49.446 34.69 24.29 16.637 69.737H11.97v3.65h25.563v-3.65H32.46l5.073-14.203L47.88 73.386l9.94-17.853 5.07 14.203h-5.07v3.65h25.358v-3.65h-4.393"/></g></svg>