<svg width="29" height="29" viewBox="0 0 29 29" xmlns="http://www.w3.org/2000/svg"><title>Path</title><path d="M7.96 27.08c-.768.8-2.023.8-2.79.012L3.46 25.34c-1.545-1.585-1.943-4.44-.81-6.345 0 0 1.766-3.966 7.16-9.17 5.392-5.202 10.915-7.57 10.915-7.57.993-.484 2.44-.26 3.24.508l3.168 3.044c.397.382.41 1.016.03 1.416l-3.127 3.284c-.762.8-2.018.83-2.82.057l.066.064c-.796-.768-2.204-.914-3.136-.332l1.695-1.06c-3.67 2.295-8.31 7.33-10.03 10.616l.463-.885c-.256.49-.14 1.2.256 1.586l.48.47c.79.77.815 2.036.04 2.842L7.96 27.08z" stroke="#6d4d36" stroke-width="2.3" fill="none" fill-rule="evenodd"/></svg>