<svg xmlns="http://www.w3.org/2000/svg" viewBox="0 0 215.203 215.203" width="45" height="45"><path d="M17.106 88.947h4.842c-.033.253-.055.51-.055.77V184h-3.29c-3.314 0-6 2.687-6 6s2.686 6 6 6h177.995c3.314 0 6-2.687 6-6s-2.686-6-6-6h-3.29V89.718c0-.262-.022-.518-.055-.77h4.842c4.52 0 8.51-2.886 9.927-7.18s-.075-8.986-3.71-11.676L111.17 1.177c-2.12-1.57-5.018-1.57-7.137 0L10.888 70.092c-3.634 2.69-5.125 7.382-3.71 11.676s5.406 7.18 9.928 7.18zM112.988 184h-10.773V89.718c0-.262-.022-.518-.055-.77h10.884c-.033.252-.055.508-.055.77V184zm-45.548 0H56.665V89.718c0-.262-.022-.518-.055-.77h10.885c-.033.252-.055.508-.055.77V184zm-33.548 0V95.718h10.773V184H33.892zm45.548 0V95.718h10.774V184H79.44zm45.547 0V95.718h10.774V184H124.99zm45.55 0V95.718h10.772V184h-10.775zm-12-94.282V184H147.76V89.718c0-.262-.022-.518-.055-.77h10.885c-.033.252-.056.508-.056.77zM107.6 13.464l85.803 63.482H21.8l85.8-63.482zm100.274 189.74H7.33c-3.314 0-6 2.686-6 6s2.686 6 6 6h200.544c3.313 0 6-2.688 6-6s-2.686-6-6-6z" fill="#6d4d36"/></svg>