<svg width="49" height="36" viewBox="0 0 49 36" xmlns="http://www.w3.org/2000/svg"><title>Group</title><g transform="translate(1 1)" fill="none" fill-rule="evenodd"><ellipse stroke="#FFF" stroke-width="2" cx="11.132" cy="29.439" rx="4.535" ry="4.561"/><ellipse stroke="#FFF" stroke-width="2" cx="38.342" cy="29.439" rx="4.535" ry="4.561"/><path d="M6.352 29.34h-3.34C1.355 29.34.01 28.003.01 26.342V3.816C.01 2.16 1.36.818 3 .818h24.066c1.652 0 2.99 1.35 2.99 3v22.796c0 1.657-1.34 3-3 3h-10.99M30.745 8.75h7.454c1.108 0 2.61.655 3.36 1.465l3.606 3.9c.75.81 1.355 2.357 1.355 3.472v8.592c0 1.655-1.348 3-3.005 3h-.17" stroke="#FFF" stroke-width="2"/><path d="M33.693 29.536h-1.765c-.93 0-1.684-.75-1.684-1.693V26.15m11.87-14.642h-5.806c-1.105 0-2 .894-2 2.005v3.398c0 1.11.893 2.007 2.003 2.007h9.887" stroke="#FFF"/><ellipse fill="#FFF" cx="11.132" cy="29.439" rx="1.237" ry="1.244"/><ellipse fill="#FFF" cx="38.342" cy="29.439" rx="1.237" ry="1.244"/></g></svg>