<svg xmlns="http://www.w3.org/2000/svg" viewBox="0 0 512 512" width="45" height="45"><path d="M469.256 175.503h-52.1V101.96c0-23.568-19.175-42.743-42.744-42.743H42.744C19.174 59.217 0 78.393 0 101.962v191.786c0 23.57 19.175 42.744 42.744 42.744h52.102v73.546c0 23.57 19.175 42.744 42.744 42.744h331.666c23.57 0 42.744-19.175 42.744-42.744v-191.79c0-23.57-19.175-42.745-42.744-42.745zm-444.83-73.54c0-10.102 8.217-18.32 18.318-18.32h331.668c10.1 0 18.32 8.218 18.32 18.32v17.05H24.424v-17.05zm70.42 116.284v93.82H42.744c-10.1 0-18.32-8.22-18.32-18.32v-93.743h74.52c-2.624 5.536-4.098 11.72-4.098 18.243zm-70.42-42.668v-32.14H392.73V175.5H137.59c-.826 0-1.644.03-2.458.076H24.425zm444.83 252.776H137.59c-10.1 0-18.32-8.218-18.32-18.32v-191.79c0-9.597 7.423-17.48 16.825-18.243H404.94c.45 0 .894-.028 1.33-.076h62.985c10.1 0 18.32 8.218 18.32 18.32v191.79c0 10.1-8.218 18.32-18.32 18.32z" fill="#6d4d36"/><path d="M340.21 255.272c-13.89 0-26.665 4.847-36.744 12.924-10.333-8.324-23.21-12.93-36.83-12.93-32.464 0-58.876 26.41-58.876 58.876 0 32.465 26.412 58.877 58.877 58.877 13.62 0 26.496-4.61 36.83-12.93 10.078 8.076 22.852 12.924 36.744 12.924 32.464 0 58.873-26.41 58.873-58.872s-26.41-58.87-58.87-58.87zm-52.257 85.93c-6.01 4.757-13.45 7.39-21.317 7.39-18.997.002-34.452-15.453-34.452-34.45 0-18.996 15.455-34.45 34.452-34.45 7.866 0 15.307 2.634 21.317 7.39-4.216 8.11-6.613 17.307-6.613 27.06 0 9.752 2.398 18.95 6.613 27.06zm52.258 7.387c-18.99 0-34.443-15.455-34.443-34.45 0-18.992 15.453-34.444 34.445-34.444 18.994 0 34.446 15.453 34.446 34.445 0 18.996-15.452 34.448-34.445 34.448z" fill="#6d4d36"/></svg>