<svg xmlns="http://www.w3.org/2000/svg" viewBox="0 0 469.333 469.333" width="49" height="49"><path d="M277.333 89.144V52.607C277.333-17.536 0-17.536 0 52.607v213.706c0 27.574 43.163 44.763 95.09 50.874C76.095 325.705 64 337.21 64 351.795v64.112c0 35.072 69.76 53.426 138.667 53.426s138.667-18.355 138.667-53.426v-32.233c65.254-1.794 128-19.988 128-53.25V138.09c0-44.282-110.497-60.575-192-48.946zm-138.666-67.81c75.917 0 117.333 21.134 117.333 32 0 10.864-41.417 32-117.333 32s-117.333-21.136-117.333-32c0-10.865 41.416-32 117.333-32zM21.333 83.014c25.883 15.58 71.73 23.65 117.333 23.65s91.45-8.07 117.334-23.65v10.6c-37.07 8.22-64 23.235-64 45.05v6.313c-16.717 2.682-34.762 4.355-53.333 4.355-75.917 0-117.333-21.135-117.333-32V83.016zm192 213.334c2.03 1.22 4.142 2.407 6.41 3.535-2.136-.09-4.267-.176-6.41-.232v-3.303zm-192-149.334c25.883 15.578 71.73 23.65 117.333 23.65 18.464 0 36.41-1.657 53.333-4.185v53.164c-16.72 2.683-34.764 4.356-53.335 4.356-75.917 0-117.333-21.135-117.333-32v-44.984zm0 119.65V221.68c25.883 15.58 71.73 23.65 117.333 23.65 18.464 0 36.41-1.656 53.333-4.184v53.164c-16.72 2.682-34.764 4.355-53.335 4.355-75.916 0-117.333-21.136-117.333-32zM320 416c0 10.865-41.417 32-117.333 32S85.333 426.865 85.333 416v-34.318c25.883 15.578 71.73 23.65 117.333 23.65 43.652 0 87.587-7.377 113.97-21.668 1.11.042 2.25.047 3.363.08V416zm-117.333-32c-75.917 0-117.333-21.135-117.333-32 0-10.865 41.417-32 117.333-32S320 341.135 320 352c0 10.865-41.417 32-117.333 32zM448 330.667c0 10.324-37.796 29.708-106.667 31.63V352c0-13.327-10.085-24.1-26.353-32.353 5.216.21 10.448.353 15.686.353 45.603 0 91.45-8.073 117.333-23.65v34.317zm0-64c0 10.865-41.417 32-117.333 32s-117.333-21.135-117.333-32V232.35c25.882 15.577 71.73 23.65 117.333 23.65 45.603 0 91.45-8.073 117.333-23.65v34.317zm0-64c0 10.865-41.417 32-117.333 32s-117.333-21.135-117.333-32V168.35c25.882 15.577 71.73 23.65 117.333 23.65 45.603 0 91.45-8.073 117.333-23.65v34.317zm-117.333-32c-75.917 0-117.333-21.135-117.333-32s41.417-32 117.333-32S448 127.802 448 138.667s-41.417 32-117.333 32z" fill="#FFF"/></svg>