<svg xmlns="http://www.w3.org/2000/svg" width="50" height="50" viewBox="0 0 612 612"><path d="M21.474 377.522V117.138c0-14.47 11.73-26.2 26.2-26.2h260.25c14.468 0 26.197 11.73 26.197 26.2v260.385c0 4.823-3.907 8.733-8.73 8.733H30.207c-4.825 0-8.734-3.91-8.734-8.734zm210.16 89.202c0 30.01-24.33 54.338-54.338 54.338-30.01 0-54.338-24.328-54.338-54.338s24.33-54.338 54.338-54.338c30.01 0 54.338 24.327 54.338 54.338zm-27.17 0c0-15.005-12.164-27.17-27.17-27.17s-27.17 12.165-27.17 27.17 12.166 27.17 27.17 27.17 27.17-12.165 27.17-27.17zm-73.97-54.34H8.734c-4.823 0-8.733 3.91-8.733 8.734v26.495c0 4.823 3.91 8.733 8.734 8.733h97.598c2.55-17.484 11.374-32.928 24.165-43.96zm385.444 54.34c0 30.01-24.33 54.338-54.338 54.338-30.01 0-54.338-24.328-54.338-54.338s24.328-54.338 54.338-54.338 54.338 24.327 54.338 54.338zm-27.168 0c0-15.005-12.165-27.17-27.17-27.17-15.006 0-27.17 12.165-27.17 27.17s12.165 27.17 27.17 27.17 27.17-12.165 27.17-27.17zM612 421.118v26.495c0 4.823-3.91 8.733-8.733 8.733h-70.704c-5.057-34.683-34.906-61.427-70.96-61.427-36.063 0-65.913 26.743-70.97 61.425H248.26c-2.548-17.483-11.372-32.928-24.163-43.96H359.09V162.593c0-9.646 7.82-17.466 17.467-17.466h82.445c23.214 0 44.91 11.53 57.9 30.77l53.15 78.72c7.796 11.548 11.962 25.162 11.962 39.095v118.672h21.253c4.823 0 8.733 3.91 8.733 8.733zm-88.592-164.483l-42.5-60.393c-1.637-2.324-4.3-3.707-7.143-3.707H407.47c-4.822 0-8.733 3.91-8.733 8.733v60.393c0 4.826 3.91 8.735 8.733 8.735h108.798c7.074 0 11.212-7.973 7.14-13.76z" fill="#6d4d36"/></svg>