<svg xmlns="http://www.w3.org/2000/svg" viewBox="0 0 512 512" width="50" height="50"><g fill="#FFF"><path d="M508.875 216.458L402.208 109.792c-2-2-4.708-3.125-7.542-3.125h-96v-32C298.666 68.77 293.896 64 288 64H42.667C19.135 64 0 83.135 0 106.667v266.667c0 17.646 14.354 32 32 32h25.266C66.1 430.112 89.56 448 117.333 448c27.775 0 51.234-17.888 60.07-42.667H334.6c8.833 24.78 32.29 42.667 60.066 42.667s51.234-17.888 60.07-42.667h14.597c23.53 0 42.667-19.135 42.667-42.667V224c0-2.833-1.125-5.542-3.125-7.542zm-391.542 210.21c-23.53 0-42.667-19.136-42.667-42.668s19.135-42.667 42.667-42.667S160 360.47 160 384s-19.135 42.667-42.667 42.667zm160-309.335V384h-96c0-35.292-28.708-64-64-64s-64 28.708-64 64H32c-5.885 0-10.667-4.78-10.667-10.667V106.667c0-11.76 9.573-21.333 21.333-21.333h234.667v32zm117.334 309.334C371.135 426.667 352 407.53 352 384s19.135-42.667 42.667-42.667 42.667 19.135 42.667 42.667-19.136 42.667-42.667 42.667zm96-64c0 11.76-9.573 21.333-21.333 21.333h-10.667c0-35.292-28.708-64-64-64s-64 28.708-64 64h-32V128h91.583l100.417 100.417v134.25z"/><path d="M362.667 160c0-5.896-4.77-10.667-10.667-10.667-5.896 0-10.667 4.77-10.667 10.667v85.333c0 5.896 4.77 10.667 10.667 10.667h106.667c5.896 0 10.667-4.77 10.667-10.667 0-5.896-4.77-10.667-10.667-10.667h-96V160z"/></g></svg>