<svg xmlns="http://www.w3.org/2000/svg" viewBox="0 0 512 512" width="50" height="50"><g fill="#6d4d36"><path d="M489.938 348.135c-2.125-5.49-8.323-8.208-13.802-6.073l-187.026 72.73c-3.572-5.835-8.06-10.952-13.25-15.362l-41.503-113.195c-.172-1.014-.33-2.038-.815-3.006-.138-.275-.384-.44-.542-.696l-73.656-200.88c-.833-2.28-2.438-4.218-4.52-5.468l-90.89-54.532c.003-.113.066-.208.066-.322C64 9.572 54.427 0 42.667 0c-11.76 0-21.333 9.573-21.333 21.333 0 11.76 9.573 21.333 21.333 21.333 3.7 0 7.012-1.198 10.05-2.865l87.897 52.74 30.935 84.368-31.364 52.27c-1.604 2.667-1.958 5.906-.97 8.865l53.898 161.682c-13.628 11.746-22.45 28.915-22.45 48.276 0 35.293 28.71 64 64 64 35.293 0 64-28.707 64-64 0-4.624-.546-9.115-1.482-13.464l186.68-72.598c5.492-2.135 8.21-8.312 6.075-13.802zM161 235.948l19.986-33.305 29.418 80.228-28.94 14.47L161 235.95zM234.667 384c-8.073 0-15.727 1.66-22.845 4.4l-23.54-70.614 29.514-14.756 30.22 82.417c-4.313-.92-8.766-1.447-13.35-1.447z"/><path d="M288.646 376.98c.98 2.687 2.99 4.874 5.604 6.062 1.396.635 2.906.958 4.417.958 1.292 0 2.594-.24 3.833-.708l138.667-53.333c5.427-2.096 8.177-8.137 6.188-13.606L404.688 199.02c-.98-2.687-2.99-4.874-5.604-6.062-2.594-1.178-5.552-1.25-8.25-.25l-51.417 19.78c-5.333 2.052-8.104 7.948-6.27 13.375l13.072 38.73c.904 2.697.717 5.593-.544 8.145-1.27 2.552-3.448 4.448-6.188 5.375-5.49 1.854-11.647-1.27-13.48-6.708l-12.51-37.052c-.927-2.75-2.938-5-5.573-6.24-2.604-1.23-5.625-1.313-8.365-.302l-47.396 18.23c-5.427 2.094-8.177 8.135-6.188 13.604l42.668 117.333z"/></g></svg>