<svg xmlns="http://www.w3.org/2000/svg" width="50" height="50" viewBox="0 0 612 612"><path d="M541.322 500.22v-94.373c0-20.277-16.438-36.716-36.715-36.716h-9.598V24.6c0-3.082-1.55-5.958-4.12-7.657L467.588 1.538c-6.103-4.033-14.24.342-14.24 7.657v110.652l-6.944-18.734c-9.34-25.196-33.373-41.918-60.245-41.918H225.702c-27.03 0-51.17 16.916-60.394 42.323l-6.655 18.33V9.193c0-7.314-8.137-11.69-14.24-7.657L121.107 16.94c-2.57 1.7-4.118 4.575-4.118 7.657V369.13h-9.6c-20.276 0-36.714 16.44-36.714 36.717v94.372h-15.64c-5.07 0-9.18 4.107-9.18 9.177v50.743c0 5.07 4.11 9.18 9.18 9.18h39.597v24.322c0 10.14 8.22 18.357 18.358 18.357h48.647c10.14 0 18.358-8.22 18.358-18.36v-24.32H432.01v24.322c0 10.14 8.22 18.357 18.356 18.357h48.646c10.14 0 18.358-8.22 18.358-18.36v-24.32h39.598c5.07 0 9.18-4.11 9.18-9.18V509.4c0-5.07-4.11-9.18-9.18-9.18h-15.644zM170.814 170.974h270.372v90.44H170.814v-90.44zm-6.287 303.558H133.17c-9.58 0-17.348-7.768-17.348-17.35v-.437c0-9.58 7.767-17.348 17.348-17.348h31.356c9.58 0 17.348 7.767 17.348 17.348v.438c0 9.58-7.766 17.35-17.347 17.35zm203.87 5.115H243.603c-10.14 0-18.358-8.22-18.358-18.357V344.977c0-10.138 8.22-18.357 18.358-18.357H368.4c10.137 0 18.356 8.22 18.356 18.356V461.29c0 10.138-8.22 18.358-18.357 18.358zm110.432-5.115H447.47c-9.58 0-17.348-7.768-17.348-17.35v-.437c0-9.58 7.768-17.348 17.348-17.348h31.356c9.58 0 17.348 7.767 17.348 17.348v.438c0 9.58-7.768 17.35-17.35 17.35zM365.605 393.8H246.1c-5.02 0-9.088-4.067-9.088-9.087v-.184c0-5.02 4.068-9.088 9.087-9.088h119.506c5.02 0 9.087 4.067 9.087 9.086v.183c0 5.02-4.068 9.09-9.087 9.09zm0-36.715H246.1c-5.02 0-9.088-4.068-9.088-9.087v-.184c0-5.018 4.068-9.086 9.087-9.086h119.506c5.02 0 9.087 4.068 9.087 9.086v.184c0 5.02-4.068 9.087-9.087 9.087zm0 110.147H246.1c-5.02 0-9.088-4.068-9.088-9.087v-.184c0-5.017 4.068-9.085 9.087-9.085h119.506c5.02 0 9.087 4.068 9.087 9.087v.185c0 5.02-4.068 9.087-9.087 9.087zm0-36.716H246.1c-5.02 0-9.088-4.068-9.088-9.086v-.184c0-5.02 4.068-9.087 9.087-9.087h119.506c5.02 0 9.087 4.066 9.087 9.085v.184c0 5.017-4.068 9.085-9.087 9.085z" fill="#2252ab"/></svg>