<svg width="99" height="119" viewBox="0 0 99 119" xmlns="http://www.w3.org/2000/svg"><title>logo</title><defs><linearGradient x1="92.922%" y1="61.071%" x2="36.444%" y2="36.646%" id="a"><stop stop-color="#FFF" offset="0%"/><stop stop-color="#270A00" offset="100%"/></linearGradient><linearGradient x1="90.067%" y1="55.55%" x2="6.276%" y2="38.02%" id="b"><stop stop-color="#B9B1B1" offset="0%"/><stop stop-color="#6F6F6E" offset="100%"/></linearGradient><linearGradient x1="19.026%" y1="53.896%" x2="87.038%" y2="48.926%" id="c"><stop stop-color="#99877C" offset="0%"/><stop stop-color="#FFF" offset="100%"/></linearGradient><linearGradient x1="7.079%" y1="50.291%" x2="77.994%" y2="54.945%" id="d"><stop stop-color="#301500" offset="0%"/><stop stop-color="#FFF" offset="100%"/></linearGradient><linearGradient x1="130.695%" y1="10.708%" x2="47.164%" y2="57.003%" id="e"><stop stop-color="#99877C" offset="0%"/><stop stop-color="#270A00" offset="100%"/></linearGradient></defs><g fill="none" fill-rule="evenodd"><path stroke="#462600" stroke-width=".567" fill="#FFF" d="M.372 1.185h97.504V118.63H.372z"/><path d="M67.297 49.56s.435.246.125.37c-.31.123-1.49.31-1.737.618-.248.31-.062.68.31.617.434-.06.682-.308.992-.185.31.124.62.556.87.74.31.187-.31.063-.746-.246-.432-.31-.804-.123-.99-.06-.186.06-.434.122 0 .37.434.246.434.617-.56-.063-.99-.677-.743-1.05-.31-1.42.498-.37.87-.43 1.24-.43.498 0 .808-.31.808-.31zm.93 4.694s-.31-.06-.31-.308-.06-.248-.247 0c-.186.247-.435.308-.435.06 0-.246-.124-.308-.124-.43 0-.125 0 0-.184.246-.186.247-.434.31-.372.062.124-.247 0-.433-.062-.433-.06.064-.123 0-.185.25-.062.185-.124.31-.186.123-.062-.185-.124-.247-.062-.432s-.124-.31-.248-.06c-.063.246-.187.246-.187.43 0 .125-.186.063-.124-.122.06-.186-.126.185-.064-.062s.062-.185-.124-.247c-.124 0-.56.37-.248.68.248.245.868.68 1.426.68.56-.064 1.738-.435 1.738-.435z" fill="#99877C"/><path d="M17.863 12.665c.372 0 .683.432.683.865 0 .432-.062 1.297-.435 1.297-.37 0-1.24-.865-1.24-1.36 0-.43.62-.802.994-.802z" fill="url(#a)" transform="translate(54.582 31.89)"/><path d="M65.87 39.49s.063-.804-.496-1.73c-.558-.928.062-.804.93-1.236.87-.433.745-1.42 1.55-2.1.87-.68 2.73-2.472 4.963-2.225 2.233.245 3.288 1.234 4.094 1.172.808-.062 1.43.185 1.74.68.31.432 2.232.308 3.224.988.993.68 2.42 1.113 3.04 2.843.558 1.73 1.302 2.1 1.86 2.78.496.68 1.427 3.15.744 4.88-.744 1.73-.992 2.224-.62 3.09.372.864.807 1.36 1.49 2.038.68.68-.31.93-1.118.435-.87-.495-.87.432-.745 1.42.186.927-.558 1.483-.62 2.163-.062.68.186 1.915-.248 1.36-.372-.557-.62-1.237-.62-1.73 0-.557-.497-.31-.373.68.124.925.372 1.73.745 1.914.37.186-.188.186-.623-.246-.434-.494.248.556.31.803s-.62-.248-.806-.62c-.185-.37-.123.186-.247.803-.124.618-.248.865 0 .927.248.123.744 1.05-.248.864-.992-.185-1.303-.74-1.985-.062-.68.68-1.487 1.174-1.798.803-.31-.37-1.798-3.83-1.426-4.88.372-.99.93-1.483.992-.927.062.494-.124 1.236 1.613.68 1.74-.556 3.537-3.15 3.785-4.387.25-1.233.062-1.604-.992-1.604s-1.86.865-2.605.123c-.744-.74-.992-.74-1.18-1.298-.185-.555-.247-1.11.126-.68.372.372.992.68.558.125-.433-.556-.744-1.112-.495-.988.248.122.248-.063.062-.434-.188-.37-.25-.432.123-.185s.807.37.56-.062c-.31-.432-1.056-.803-1.118-1.297-.062-.494-.124-.555.683-.617.744-.062.93-.494.248-.37-.745.123-.496.802-1.49.308-.99-.493-1.736-.926-.31-.926 1.428 0 1.738-.31.435-.31-1.3 0-1.55.31-2.48-.06-.93-.37-.25-.248.558-.248s-.744-.185-1.426-.803c-.745-.617-.683-.926-.745-1.42-.125-.495.496-1.236.496-.433 0 .802.187 1.296.683 1.173.558-.062 1.116-.186.682-1.174-.496-.99-.992-1.176-.992-1.608 0-.433.124-.803-.248-.495-.372.31-1.427 1.792-3.35 2.225-1.922.37-1.984.37-1.178.123s1.675-1.174.744-.927c-.93.246-1.86.555-2.914.926-.992.37-1.365.433-.868 0 .558-.432.372-.865-.31-.68-.745.186-.56-.308-.993.433-.435.74-1.427 1.11-1.18.802.25-.31.62-1.545 1.613-1.545.992 0 1.302-.495 1.736-.742.433-.247.68-.494-.683.186-1.365.68-1.675.246-2.17 1.05-.497.802-.807.864-.497 1.05.31.246.248.74-.062.617-.31-.124-.62-.37-.497-.74.126-.557.374-.68.374-.68z" fill="#4C2F01"/><path d="M84.974 48.88s.745-.124.497 1.05c-.246 1.112-.62 2.1-.93 2.533-.31.37-1.24 1.174-1.24 1.174s1.24-1.42 1.49-2.163c.247-.74.31-1.297.31-1.73 0-.556-.125-.864-.125-.864zm-2.108-.804v-.247c.062.06.062.06.062.122.062.123 0 .123-.062.123zm0-.556v-.432c.186.123.186.432 0 .432zm0-1.853v-2.78c.124-.556.31-.742.558-.927.31-.247.496.37.248 1.298-.248.926-.248 1.05-.31 2.224-.062 1.173-.124 1.235-.434.37 0 .062 0-.06-.062-.185zm1.798-6.796s0 1.05.62 1.485c.62.432.87.618.87 1.36 0 .74.185.308-.497-.433-.683-.74-1.24-.68-1.117-1.544l.124-.865zm-1.798 4.018v2.78c-.062-.37-.187-1.236-.125-2.04.065-.308.065-.555.127-.74zm0 4.2v.433h-.062c-.25-.06-.373-.184-.373-.184-.246-.185-.37-.31-.494-.494-.124-.185-.31-.68 0-.37.31.31.496.433.806.556.064 0 .126.062.126.062zm0 .742v.246c-.125.062-.435-.06-.87-.06 0 0-.247-.434.125-.434.25.062.62.124.747.247zm-3.784-5.932v-.185c.496-.124.992-.31 1.178-.865.25-1.05.62-2.162 1.18-2.595.557-.432 1.3-.247 1.177 1.174-.124 1.42.187 2.1-.186 2.657-.37.556-.246-.618-.246-1.112 0-.495.248.37-.558.926-.806.495-.744.186-.434-.31.25-.493 0 .25-.867.372-.435 0-.87-.062-1.24-.062zm0-1.173c.372-.186.558-.495.744-1.792.186-1.05-.31-1.545-.744-1.915v3.707zm0-5.622v-.37c.434.184.93.43 1.303.74.806.556.868.494.558.803-.31.37-.248.37-.745-.31-.31-.43-.744-.678-1.116-.863zm2.295 9.7c.434.37.186.555.62.68.434.122.434.493 0 .246-.434-.188-.682-.25-.868-.62-.188-.247.246-.31.246-.31zm-2.295-10.07v.37c-.248-.124-.434-.124-.434-.124s-.434-.805-.372-.68c.062.06.372.246.806.43zm0 2.285v3.707c-.124.06-.248.123-.434.185-.62.31-.807.432-1.303.31v-.372c.62-.062 1.427-.185 1.427-1.174 0-1.112.248-2.038-.186-2.286-.434-.247-.745-1.42-.31-.926.186.185.496.37.806.556zm0 4.695v.185c-.496-.06-.868-.123-.868-.123s.434 0 .868-.062zm-1.737-6.302v-.306l.062-.062-.062.063v-.31c.248.062.372.124.372.124s-.062.06-.31.123c.062.063 0 .186-.062.37zm0-.615v.31c-.186.122-.558.246-1.054.43-1.177.433-1.115 1.05-1.983 1.916-.186.187-.31.31-.496.434V36.4c.31-.618.063-.803.993-1.483.87-.556 1.985-.31 2.543-.123zm0 .37c-.248.247-.93.99-.682 1.607l.434 1.298s-.372-.618-.062-1.483c.186-.494.248-.865.31-1.174v-.246zm0 5.684v.37c-.062 0-.062 0-.124-.06-.556-.187-.122-.31-.122-.31.124.06.186.06.248 0zm-3.473-6.488c.744-.308 1.364-.308 1.364-.308s-.434-.123-1.364-.06v.37zm0-.802v-.37c.806.185 1.488.37 1.488.37s-.62-.062-1.488 0zm0-.37v.37c-.558 0-1.18.062-1.737.124-.248 0-.434.06-.682.123v-.74c.744-.187 1.675-.063 2.42.122zm0 .803v.37c-.31.125-.682.372-.993.62-.684.617-.93.926-1.428 1.11v-1.667c.248-.124.62-.247 1.054-.31.56-.06.993-.122 1.365-.122zm0 2.41v1.483c-.744.494-1.427.68-1.49.494 0 0 .497-.433 1.18-1.483.186-.247.248-.37.31-.494zm-2.42-3.398v.74c-1.054.372-1.55 1.175-2.294 1.917-.868.925-1.18.925-2.17 1.296-.993.37-.435.988-.435.988l-.372-.185c-.37-.185-.246-.803.56-.99.744-.184.99-.802 1.8-1.234.805-.432 1.053-1.792 2.48-2.348.062-.123.25-.123.434-.185zm0 1.483c-.805.37-.805.988-1.612 1.42-.992.557-2.17 1.792-2.17 1.792s1.302-.68 2.728-1.173c.435-.124.807-.248 1.055-.37v-1.67z" fill="#381B00"/><path d="M65.064 44.37c.248-.062.062-.062.062-.31 0-.246-.062-1.05.248-1.606s.062-.556 0-.803c-.062-.183.373-.37.497-.677.126-.31.436-.68.684-.927.248-.31.372-.124.31.124-.062.246.062.555.558.678.497.124.87.247.932.803 0 .558 0 .93.31 1.238.31.31.31.556-.186 1.36-.497.74-1.117 1.42-1.24 1.42-.125 0-.56 0-1.427.124-.87.124-1.24.433-1.24.433s.123-.37.31-.68c.185-.308.495-.74.31-.803-.187-.062-.373.124-.56.124-.185-.124.187-.494.435-.494z" fill="#4C2F01"/><path d="M66.553 45.296s.434-.06.558-.37c.126-.31.064-.433.064-.433.248.185.558.618.062.742-.31.123-.682.06-.682.06z" fill="#FFF"/><path d="M71.763 41.528s.062-.37-.124-.186c-.188.186-.436.433-.126.927.248.492.31.616.992.307.683-.247 1.923-.556 2.853-.185.93.37 1.612 1.544 1.612 1.544s.31-.185.186-.432c-.125-.247-.993-1.298-1.924-1.545-.93-.31-1.674-.248-2.232-.248-.56 0-.125-.185-.497-.124-.372 0-.558.185-.62.123-.124-.06-.124-.184-.124-.184z" fill="#4C2F01"/><path d="M69.344 49.868s.31-.31.124-.74c-.186-.434-.31-.743-.31-.743s.62.556.558.927c0 .37-.372.556-.372.556zm-2.17-.988s.31 0 .62.185.56.803.744.803c.248 0 .248-.185-.062-.68-.372-.494-.745-.926-.93-.926-.25 0-.683.37-.62.494.123.124.247.124.247.124z" fill="#270A00"/><path d="M80.198 53.45c-.248 0-.186.434.125.62.31.184.558.06.62-.125.062-.185-.062-.247-.248-.247-.435 0 0-.31-.497-.247zm.932-.617s-.187.248 0 .248c.185 0 .62-.184 1.053-.616.434-.433.434-.927.31-1.36-.124-.432-.434-.432-.62-.308-.186.123.248.247.31.68.062.432 0 .68-.372.988-.31.31-.68.37-.68.37z" fill="#4C2F01"/><path d="M82.43 53.575s.994-.68 1.49-1.668c.496-.927.806-1.668.372-2.1-.372-.433-1.8.123-1.8.432 0 .307.25.245.684 0 .434-.25.682-.31.868-.126.186.185.248.433-.124 1.298-.372.864-1.49 2.162-1.49 2.162zM71.64 46.16c.123.063.433.62 1.24.62.806.06 1.488 0 1.984-.186s.496-.37.496-.37-.372 0-.62-.125c-.372-.187-.558.493-1.612.43-.87 0-.993-.493-1.055-.617-.124-.123-.248-.556-.496-.31-.434.31-.31.495-.186.557.126.063.064-.06.25 0z" fill="#4C2F01"/><path d="M74.616 46.532v-.124c.062-.06.186-.123.31-.123.062 0 .186.062.124.123-.062.062-.186.124-.31.124h-.124zm0-.124c.062-.06.186-.123.248-.123l-.248-.124v.25zm-.372 0c.062.062.062 0 .062.124h-.062v-.124zm.372-.247h-.186c-.062.126-.124.126 0 .188.124 0 .062.06.062.06s.062 0 .062-.06v-.186h.062zm0 .31c-.062 0-.062 0 0 0-.062.125-.248.186-.31.186v.062h.124c.062 0 .062-.123.186-.123v-.124zm-.93.125c0-.062.248-.124.31-.186.062-.06.124-.06.248-.06v.12c-.124.063-.372.125-.558.125zm.558.06c0 .063-.062.063 0 0-.062.063 0 0 0 0z" fill="#7A6161"/><path d="M71.577 45.73l.186-.187c.124-.06 0-.185.186-.185.184 0 .184.185.184.494 0 .31.372.495.558.556.248.062.745 0 .93-.247.187-.307.125-.37.125-.37s.558.187.868.31c.31.124.62.186.87.186.185 0 0-.124 0-.31 0-.184-.374-.123-.994-.432-.557-.308-1.3-.68-1.736-.617-.496 0-.744 0-1.054.31-.247.246-.123.43-.123.493z" stroke="#4C2F01" stroke-width=".216" fill="#4C2F01"/><path d="M69.654 53.822s-.496-.185-.744-.31c-.248-.123 0 0-.372 0-1.18.125-.993-.308-1.427-.246-.494.062-.494.062-.93-.124-.37-.123-.31-.247-.31-.247l.25-.494 2.357.25 1.364.99-.185.183z" fill="#99877C"/><path d="M17.863 13.9c.062.124.062.248.372.31.31.06.683-.186.683-.186l.124.062s-.248.37-.745.31c-.496-.063-.496-.31-.558-.495h.122z" fill="url(#b)" transform="translate(54.582 31.89)"/><path d="M65.312 50.795c.124.494.93.31 1.365.37.496.062.744.062 1.364.618.623.556 1.43.803 1.74 1.236.31.43.185.554-.063.677-.248.124.248-.185-.124-.432s-2.605-.865-2.915-.99c-.31-.122-1.365-.987-1.365-.987-.062-.063-.124-.434 0-.495z" fill="#99877C"/><path d="M64.94 45.482s-1.426 1.853-1.178 3.83.434 4.757.434 5.498c0 .742-.186 2.41.682 2.904.87.433 1.117.556 2.11 1.112.99.556 1.922 1.483 2.232 2.78.372 1.298.868 1.668 1.24 2.657.373.988 1.117 2.78 1.117 3.768 0 .99-.186 2.597-.372 3.338-.186.804-.93 3.77-1.24 5.066-.31 1.298-.807 3.09-.807 3.09l4.218.06s.496-.802.496-1.73c0-.925-.248-1.976.124-2.902.372-.926.682-1.42.682-2.347s.558-.927 1.303-1.668c.746-.74 1.118-1.483.994-3.027-.062-1.545-.558-2.657-.744-1.483-.25 1.174-.497 3.522-1.366 2.47-.868-1.05-.682-1.296-1.178-1.914-.496-.617-2.357-1.976-2.17-4.262.185-2.285.68-2.717 1.86-3.21 1.178-.434 2.17-1.237 2.605-1.67.436-.494.684-.926-.246-.432-.87.494-1.737.99-4.466.927-2.73-.062-4.9-.37-5.707-.927-.805-.556-.867-1.36-.495-1.915.372-.494.56-.556 1.18-.556.62.062.867.185 1.115 0 .247-.185.31-.37.806-.37.434 0 .93-.186.496-.37-.496-.187-.87 0-1.427.06-.558.062-1.8 0-1.985-.494-.248-.494-.124-.68.31-.803.497-.185.807.124.993.185.186.124.682 0 .93-.06.248 0 .372 0 .62.06.187.062 1.55.556 1.613.31.124-.248-.93-.927-1.8-1.175-.867-.308-1.983-.432-2.418-.988-.496-.557-.434-1.05.187-1.298.558-.248 1.054-.248 1.488-.186.434.062.496-.185.062-.432-.434-.186-.93-.556-.992-1.36-.062-.803-.372-.74.31-1.482.62-.74 1.364-1.545 1.737-1.977.372-.433.558-1.112.558-1.112s-.682 1.235-1.18 1.668c-.557.433-.495.433-.867.742-.37.31-1.052.99-1.052 1.36 0 .37 0 .432.062.68 0 .184-.312.802-.808.802-1.488.062-.992-1.174-.62-1.915.31-.62.558-1.298.558-1.298z" fill="#4C2F01"/><path d="M80.074 60.185s1.985 3.275 3.598 5.746c1.613 2.473 4.032 6.427 4.838 8.28.744 1.79 1.116 2.286 1.55 2.04.435-.248-1.178-2.163-1.674-3.275s-2.48-3.954-3.474-5.746c-.682-1.298-3.41-4.88-4.34-6.92-.374-.74-.498-.124-.498-.124z" stroke="#4C2F01" stroke-width=".216" fill="#4C2F01"/><path d="M16.81 13.468c-.56-1.42-.497-2.47 1.736-3.09 0 0-1.055.68-.993 1.05.062.372.62.248.62.248s-1.054.495-1.178 1.05c-.124.557-.186.742-.186.742z" fill="url(#c)" transform="translate(54.582 31.89)"/><path d="M17.18 13.283s.373-.433.993-.495c.62 0 .62-.247.062-.247-.62 0-.372-.183.124-.183s.495-.31-.064-.247c-.558.06.062-.186.373-.248.31-.062.37-.062.37-.062s-.744-.185-1.364.185c-.558.37-.496.495-.496.68.063.37 0 .618 0 .618z" fill="url(#d)" transform="translate(54.582 31.89)"/><path d="M60.97 69.082s.56-2.41-.434-3.893c-.992-1.546-1.674-4.264-1.612-5.994.062-1.668.248-3.77 1.674-6.796 1.427-2.964 2.668-5.868 2.543-7.598-.06-1.73-.62-3.15-.62-3.15s.933.864 1.18 2.41c.25 1.543.125 2.717.125 2.717s-.186-.62-.248-1.238c-.062-.617-.062-.556-.062-.556s-.062.927-.31 1.73c-.25.742-1.613 4.51-2.233 6.116-.62 1.607-1.24 4.82-1.178 6.302.062 1.483.124 3.027.93 5.066.807 2.04 1.117 2.225.87 3.4-.187 1.173-.62 1.482-.62 1.482z" fill="#4C2F01"/><path d="M63.204 57.035s1.054-1.977.744-4.202c-.31-2.285-.993-3.212-.993-3.212s.435 1.237.31 2.35c-.124 1.11-.186 1.544-.806 2.84-.62 1.3-1.18 2.534-1.24 3.894-.126 1.36-.374 3.706.31 5.498.68 1.793.804 2.04.62 2.72-.126.68-.498 1.235-.498 1.235s1.054-.99 1.116-2.04c.06-1.05.185-1.482-.187-1.976-.37-.494-.37-.556-.37-.556s.31.494.372 1.112v.803s-.248-.804-.372-1.236c-.06-.433-.495-1.545-.433-3.275.062-1.79.062-2.534.682-4.016.62-1.483.99-2.348 1.053-3.213.062-.864.062-1.296.062-1.296s.248.494 0 2.224c-.248 1.668-.372 2.348-.372 2.348z" fill="#4C2F01"/><path d="M60.723 67.29s-2.73.124-4.404.988c-1.677.865-1.8 1.113-1.305 3.584.496 2.47 2.17 7.104 4.652 7.413 2.48.31 4.342.124 5.21-.494.87-.677 1.675-1.913 1.985-2.346.31-.432 1.24-.74 2.047-1.235.805-.495 1.984-1.113 2.046-3.46.062-2.348-.993-2.348-1.49-2.41-.433-.124-.93.123-.93.123s-.123-.74-.806-1.112c-.68-.37-1.797-.802-3.348-.925-1.55-.124-1.613-.124-1.613-.124s2.54.125 3.72.68c1.24.495 1.737.927 1.24 1.483-.496.556-1.674 1.792-5.954 1.607-4.28-.125-6.76-.866-6.265-1.793.498-.927 1.614-1.297 3.103-1.606 1.488-.307 2.11-.37 2.11-.37z" fill="#4C2F01"/><path d="M60.723 67.846c-1.24-.062-5.52.865-4.342 1.545.498.31.87.37.87.37s-.744-.616.06-.924c1.553-.557 1.863-.804 3.414-.99z" fill="#B9B1B1"/><path d="M59.048 70.255s-1.675-.247-1.303-.617c.372-.37 2.11-.37 2.978-.37.93 0 3.597.123 3.783.555.186.432.31.494-1.302.556-1.613.06-3.474 0-3.474 0s1.24-.064.806-.25c-.434-.184-.806-.246-1.488-.246-.682 0-.558.123-.434.185.124.06.434.184.434.184z" fill="#4C2F01"/><path d="M62.52 67.846s2.916.124 3.723.556c.868.433 1.24.68.682 1.112-.558.433-.62.247-.558-.123.124-.37.062-.68-1.24-.987-1.24-.247-2.606-.556-2.606-.556z" fill="#B9B1B1"/><path d="M63.204 69.082s2.48 0 2.48.556-.31.556-.806.617c-.496.062 0-.123-.186-.37s-.248-.433.186-.37c.434.06.372 0-.248-.124-.62-.184-1.426-.307-1.426-.307zm-5.087 2.656c.25-.31.31-.37-.248-.494-.498-.124-.808-.124-.808.68 0 .74-.062 2.285.868 4.262.932 1.977 1.8 3.275 1.18 1.607-.93-2.657-1.55-5.313-.993-6.055z" fill="#B9B1B1"/><path d="M55.016 70.255s.434.742 1.18.99c.743.246.93.555.123.246-.87-.307-1.057-.492-1.243-.8-.124-.248-.062-.434-.062-.434zm3.474 1.483s1.612.247 4.093 0c2.48-.247 3.97-.618 3.97-.618s-2.295.742-4.652.927c-2.417.124-3.41-.31-3.41-.31zm6.946-27.616s.497-.308 1.117-.185c.62.124.93.31.93.31s-.062-.742-.558-1.05c-.558-.31-.806-.063-1.054.184-.184.25-.433.743-.433.743z" fill="#FFF"/><path d="M75.547 45.11s.186.063.248 0c.062-.06-.062-.308-.124-.432-.06-.06-1.115-1.112-1.86-1.235-.743-.124-1.612 0-2.11.803-.556.865-.246 1.297-.246 1.297s.062-.247.31-.37c.248-.124-.248-.803.62-1.236.93-.432 1.613-.31 2.295.247.62.618.87.927.87.927z" stroke="#4C2F01" stroke-width=".216" fill="#4C2F01"/><path d="M69.034 74.704v-.37c.31-.186.806-.866 1.054-1.607.248-.865.31-1.545-.31-2.1-.248-.248-.558-.248-.744-.124v-.927h.434c.806 0 1.427.68 1.24 2.533-.185 1.85-1.178 2.47-1.55 2.593h-.124zm0-.865c.248-.25.496-.744.62-1.114.186-.495.248-1.36-.31-1.483-.124-.062-.248-.062-.31 0v2.595zm-.868.74c.062-.063.062-.063.062-.125 0-.185-.062-.308-.062-.432v.556zm.868-5.005v.865c-.31.124-.558.37-.558.37s-.435.125-.124-.493c.186-.432.31-.68.682-.74zm0 1.606v2.596c-.124.123-.248.185-.31.185-.31 0-.434-.06-.558-.246v-.927c0-.123.062-.185.062-.247.248-.678.434-1.234.806-1.358zm0 3.15v.373c-.31.06-.434-.31-.124-.37h.124zm-.93-.37s-.063-.246-.373-.184c-.06 0-.122.062-.122.062v.493c.062.063.062.124.124.186.187.186.31.186.436.062v-.556c0-.062-.062-.062-.062-.062zm.062-1.11v.926c-.125-.247-.062-.618 0-.927zm-.56-.248v-1.05c.125.247.125.556 0 1.05zm0 1.236c-.123.122-.06.308 0 .493v-.493zm0-2.287v1.05c-.06.186-.06.31-.123.557-.372 1.296-.868 3.026-1.736 4.2-.87 1.174-1.427 1.73-3.04 1.73-1.612.062-1.612-.494-1.984-.803-.373-.37.62-.556.124-.99-.497-.43-.31-.987-.31-1.605s-.373-.557-.25-.99c.125-.432-.557-.926-.247-1.173.31-.247.186-.494.186-.494s2.357-.248 3.784-.68c1.426-.494 2.42-1.297 3.1-1.112.25-.06.435.063.497.31z" fill="#FFF"/><path d="M20.034 38.427s-1.116-3.027-2.357-4.633c-1.24-1.607-1.86-4.387.434-5.684 2.235-1.297 3.786-2.41 3.66-2.224-.122.31-2.293 1.79-2.913 2.965-.62 1.176-1.365 2.844-.31 4.82 1.054 1.978 1.984 4.51 2.48 2.843.435-1.73.993-2.718 1.055-2.162.125.557.125 1.113-.37 2.657-.497 1.545-1.304 2.842-1.428 2.163l-.248-.743z" fill="url(#e)" transform="translate(54.582 31.89)"/><path d="M58.117 71.738c-.124-.185-.434 0-.62-.123-.124 0-.124-.062-.31-.062v.185c.186.062.248 0 .496.062.124 0 .248.062.434.062 0-.062-.062-.062 0-.124 0 .062 0 0 0 0z" fill="#D0CAC9"/><path d="M64.94 71.8s-.558.37-1.736.68c-1.18.247-2.606.494-2.606.494s0 .247-.186.432c-.124.186-.248.247-.062.494 0 0-.062 1.36.186 1.42.683.187 1.303.31 2.295-.184 0 .494-2.48.74-2.17.99.436.616 1.86.246 2.296 0-.124.678-2.605.246-1.922 1.172.372.556 1.302.124 1.984-.185-.31.432-1.55.74-2.046.803-.496.062-.123.31.31.742.435.432-.31.185-.806-.556-.496-.742-.992-1.113-.93-2.1.062-.928 0-.866-.124-1.793-.124-.928-.186-1.546-.186-1.546s.186.123 1.675 0c1.488-.185 2.853-.494 3.35-.68.557-.185.68-.185.68-.185z" fill="#B9B1B1"/><path d="M66.43 45.11c.31-.06.433-.06.495-.37v.124c-.062.062-.124.185-.248.247-.062 0-.124.064-.248 0zm6.015.68c.062.124.062.248.372.31.31.06.683-.186.683-.186l.124.062s-.248.37-.745.31c-.498-.063-.498-.31-.56-.495h.124z" fill="#FFF"/><path d="M72.693 46.1c0-.062 0 0 0 0 0-.062-.062-.062 0 0 .062-.062.062 0 .124 0h-.124zm.247 0h.064s.062 0 .062.06c0 0-.125 0-.125-.06-.06 0 0 0 0 0zm-6.635-.927s.31.062.434-.124c.184-.187.246-.31.184-.496s0 0 0 .123c-.062.124-.124.31-.31.37-.186 0-.31-.122-.31-.06 0 .06 0 .06.062.06s-.062.125-.062.125z" fill="#FFF"/><path d="M73.624 25.465l-.248 1.05c-2.295.556-4.156 1.236-5.644 2.1-1.49.804-3.474 2.348-6.017 4.51-6.7 5.808-12.59 10.256-17.553 13.345 1.427 1.792 2.667 3.707 3.66 5.87.992 2.162 2.79 7.104 5.272 14.95 2.233 6.98 2.79 7.784 4.465 9.7 3.1 3.397 7.317 3.46 10.853 2.965 1.054-.124 3.597-1.483 4.032-1.73.372.68 2.046 3.336.682 4.2-2.17 1.36-1.737 1.05-4.838 1.855-8.56 2.1-13.77-2.1-17.74-8.71-1.303-2.164-1.8-3.523-3.846-9.516-1.923-5.622-3.41-9.514-4.466-11.614-1.055-2.1-2.482-4.325-4.343-6.672L33.43 64.634c-.93 3.397-1.737 7.104-2.047 8.896-.744 1.36.868.927-.744 1.174 5.396.556.124-.124-2.233-.124-1.18 0-3.598-.432-7.195-.247-1.49.062-2.854.062-4.156-.124v-1.917c1.365.247 2.977.186 4.9-.37 1.675-.495 3.287-2.595 3.908-4.634 1.488-4.51 3.41-11.245 5.83-20.265l5.148-19.275c-5.582.31-9.986 1.607-13.21 3.77-2.482 1.606-3.723 3.46-3.723 5.498 0 .74.37 1.668 1.054 2.78.62.988.992 1.792.992 2.41 0 .74-.248 1.42-.806 1.976s-1.24.865-1.984.865-1.427-.31-1.985-.928V34.98c.994-1.793 2.483-3.46 4.468-5.067 3.907-3.09 10.668-4.633 20.344-4.633h2.73c-1.55 3.954-2.543 6.857-3.04 8.65l-3.35 12.6c2.11-.74 4.528-2.1 7.258-3.954 2.79-1.853 5.457-3.892 8-5.993 4.714-3.892 7.38-6.24 8-7.104.187-.247.31-.495.31-.74 0-.187-.31-.434-.867-.62-.558-.185-2.233-.308-4.9-.37l.558-2.348c3.6.31 6.577.494 8.87.494 2.235.062 4.964-.06 8.065-.432zM17.057 54.44v2.1c.186-.68.186-1.42 0-2.1zm0 16.62c.124 0 .248 0 .434-.063.746-.124 1.49-.433 2.173-.99.682-.555 1.24-1.296 1.613-2.037.372-.742.62-1.483.744-2.224.123-.742.185-1.42.06-2.472-.123-1.05-.433-2.533-.743-3.583-.31-1.11-.62-1.79-.93-2.53-.187-.495-.373-.928-.683-1.36-.31-.37-.682-.74-1.054-.74-.31-.063-.56.184-.745.493-.186.31-.248.74-.372 1.36-.124.493-.31 1.05-.558 1.605V71.06h.062zm0 3.21c-20.84-2.1-12.467-28.788-.806-21.498.436.556.684 1.112.808 1.668v2.1c-.682 2.78-3.722 5.005-4.218 5.252-3.35 1.606-2.234 9.514 4.217 10.626v1.853zm0-30.147l-.372-.37c-.682-.866-1.055-1.978-1.055-3.4 0-1.852.435-3.644 1.365-5.374v9.142h.062zm0 14.456l-.186.37c-.37.68-.866 1.296-1.425 1.79-.558.495-1.116.865-1.612 1.3-.497.43-.93.986-1.24 1.48-.31.495-.497.99-.56 1.483-.06.556 0 1.174.187 1.915.185.74.495 1.667.99 2.347.498.68 1.18 1.174 1.924 1.42.62.248 1.303.372 1.923.372V58.58zm53.776-38.922v-.742c.62-.123 1.116-.37 1.55-.68.683-.555.993-1.297.993-2.347 0-1.3-.744-1.917-2.295-1.917h-.246v-.927c.62-.185 1.178-.247 1.55-.247.93 0 1.613.184 2.17.617.56.432.808.988.808 1.73 0 1.297-.682 2.41-2.046 3.336-.744.556-1.55.926-2.48 1.174zm20.654-2.842l.31.74c-2.294 1.546-4.28 2.35-5.83 2.35-.868 0-1.49-.248-1.86-.804-.373-.495-.56-1.174-.56-1.977 0-1.298.435-2.657 1.242-4.078.804-1.42 1.796-2.47 2.975-3.212.93-.556 1.923-.865 3.1-.865.683 0 1.242.123 1.614.37.37.247.557.495.557.865 0 .247-.124.494-.31.618-.186.185-.434.247-.806.247-.31 0-.744-.123-1.302-.37-.56-.31-.993-.433-1.366-.433-.496 0-.93.185-1.426.556-.434.37-.93 1.112-1.365 2.162-.433 1.05-.62 2.163-.62 3.213 0 .803.187 1.42.56 1.853.25.31.62.497 1.117.497 1.054-.062 2.42-.618 3.97-1.73zm-62.645 6.61c.062 0 .186-.062.248-.123.31-.186.496-.37.496-.556 0-.124-.062-.248-.124-.495-.124-.247-.186-.37-.186-.556 0-.185.062-.37.248-.494.186-.123.372-.247.62-.247s.497.062.683.247c.186.185.31.433.31.74 0 .62-.31 1.175-.993 1.608-.372.247-.806.432-1.302.556v-.68zm41.99-10.38v.928c-.495.062-.99.185-1.612.37-.62 2.1-.93 3.275-.93 3.584 0 .37.124.618.31.803.186.187.62.25 1.24.25.373 0 .683 0 .993-.063v.742c-.62.122-1.24.246-1.923.246-1.923 0-2.915-.495-2.915-1.545 0-.31.186-1.11.558-2.41l1.303-4.446c.062-.248.124-.433.124-.556 0-.248-.124-.37-.31-.37-.435 0-1.18.43-2.233 1.358l-.62-.432c2.046-1.607 3.535-2.472 4.59-2.472.558 0 .806.31.806.928 0 .618-.31 1.792-.87 3.645.56-.31 1.056-.432 1.49-.556zm-41.99 6.86V14.22c.62-1.852.868-2.965.868-3.335 0-.247-.124-.37-.31-.37-.124 0-.372.06-.62.184v-.866c.248-.186.496-.31.682-.37.682-.31 1.24-.495 1.613-.495.248 0 .434.06.558.246.124.123.248.37.248.68 0 .555-.37 1.976-1.052 4.262-.62 2.038-.93 3.212-.93 3.46 0 .184.06.308.185.43.124.125.248.187.434.187.56 0 1.303-.37 2.295-1.174.994-.74 1.614-1.667 1.924-2.656l1.55-5.127h2.11l-1.365 4.385c-.806 2.533-1.24 3.954-1.24 4.325 0 .185.06.247.124.37.062.062.186.124.31.124.186 0 .372-.06.558-.185.31-.185.93-.68 1.8-1.42l.496.432c-1.923 1.73-3.35 2.595-4.28 2.595-.31 0-.558-.124-.806-.31-.248-.185-.31-.493-.31-.864 0-.432.124-.988.31-1.73-.868.866-1.923 1.607-3.163 2.225-.684.433-1.428.618-1.986.68zm14.266-5.067l.062-.744c1.178-.432 2.046-.926 2.667-1.36.558-.493.868-.987.868-1.605 0-.74-.372-1.11-1.178-1.11-1.117 0-2.357.555-3.722 1.667l-.62-.433c1.054-.803 1.985-1.42 2.79-1.73.807-.308 1.614-.494 2.42-.494 1.613 0 2.42.557 2.42 1.67 0 .988-.683 1.853-2.048 2.718.372 0 .62-.062.806-.062 1.49 0 2.17.556 2.17 1.668 0 1.05-.68 2.1-2.046 3.213-1.364 1.112-2.853 1.668-4.465 1.668-1.117 0-1.923-.186-2.48-.618-.56-.433-.808-.927-.808-1.483 0-.31.124-.494.31-.74.187-.187.435-.31.745-.31.246 0 .494.062.68.247.186.126.31.31.31.558v.556c0 .31.124.556.434.74.31.187.683.31 1.117.31 1.117 0 1.986-.37 2.73-1.112.744-.74 1.054-1.605 1.054-2.532 0-.865-.434-1.297-1.364-1.297-.682-.06-1.612.186-2.852.62zm20.84 2.47c-1.923 1.73-3.41 2.655-4.342 2.655-.248 0-.558-.123-.744-.308-.248-.186-.372-.495-.372-.865 0-.433.124-.99.31-1.668l.682-2.472h-3.97l-1.364 4.88h-2.17c0-.123.123-.43.31-.987.123-.433.37-1.298.744-2.595l1.302-4.447c.062-.248.124-.433.124-.556 0-.248-.124-.37-.31-.37-.434 0-1.178.43-2.233 1.358l-.62-.432c2.047-1.607 3.597-2.472 4.652-2.472.558 0 .806.31.806.93 0 .617-.31 1.914-.93 3.953h3.97L61.22 9.34h2.107l-1.365 4.388c-.806 2.533-1.178 3.954-1.178 4.324 0 .31.124.496.434.496.37 0 1.115-.556 2.418-1.67l.31.434zm-47.635 2.16h-2.17l1.673-5.56c-.744.248-1.426.557-1.922.99-.56.43-1.24 1.11-2.11 2.1-1.054 1.174-1.86 1.977-2.418 2.348-.558.37-1.117.555-1.675.555-.432 0-.866-.124-1.24-.37-.37-.248-.68-1.05-1.053-2.287L6.14 17c.25.866.435 1.36.62 1.484.125.123.31.185.497.185.558 0 1.365-.558 2.42-1.73 1.24-1.423 2.232-2.288 2.852-2.596.62-.31 1.61-.557 3.037-.742-.434-.31-.806-.865-1.24-1.73-.372-.803-.744-1.36-.993-1.544-.31-.187-.558-.31-.868-.31-.124 0-.434.062-.806.247-.247.124-.495.185-.682.185-.62 0-.992-.247-.992-.74 0-.31.186-.62.558-.866.372-.247.807-.31 1.24-.31.683 0 1.24.187 1.738.62.496.37.992 1.235 1.426 2.532.248.618.62 1.236 1.117 1.792l1.116-4.016h2.173l-1.24 4.263c.496-.31 1.054-.865 1.798-1.607 1.428-1.482 2.48-2.47 3.226-2.903.745-.433 1.49-.618 2.11-.618.806 0 1.24.246 1.24.802s-.372.802-1.117.802h-.807c-.682 0-1.303.186-1.923.494-.56.308-1.24.864-2.048 1.668-.868.803-1.488 1.36-1.86 1.606 1.302.556 2.233 1.05 2.73 1.606.495.556 1.24 1.854 2.232 4.016.744 1.606 1.488 2.656 2.17 3.274.683.618 1.427.865 2.295.865.31 0 .62-.06.93-.122v.74c-.373.063-.745.124-1.18.124-1.116 0-2.108-.247-3.04-.803-.93-.557-1.674-1.298-2.294-2.287-.62-.988-1.302-2.41-2.11-4.2-.433-1.113-.805-1.792-1.115-2.1-.31-.31-.743-.557-1.24-.804l-1.8 5.19zm12.53-9.636c-.62.37-1.366.864-2.234 1.606l.62.433c.742-.556 1.24-.926 1.55-1.112.06 0 .06-.06.123-.06v-.864h-.062zm0 4.324l-.063.308c-.496 1.606-.87 2.657-.993 3.15-.062.372-.124.742-.124 1.05 0 .434.124.742.31.928.186.185.435.31.807.31h.124v-5.747h-.062zm55.51 91.497v-1.482c.063 0 .125-.062.188-.062 1.056-.307 2.607-.986 4.59-2.037l.808.68c-1.985 1.36-3.846 2.286-5.583 2.903zm0-5.992V98.55c.87-.37 1.614-.802 2.234-1.173.87-.618 1.303-1.236 1.303-1.853 0-.433-.186-.804-.558-1.112-.373-.248-.807-.433-1.365-.433-.558 0-1.116.122-1.613.37v-1.175c1.117-.37 2.295-.556 3.536-.556 1.116 0 1.985.184 2.605.555.62.37.868.865.868 1.544 0 .68-.372 1.36-1.054 2.04-.746.68-1.987 1.357-3.848 2.1-.496.246-1.178.493-2.11.802zm0-6.364v1.172c-.06 0-.06.062-.123.062-.744.37-1.364.99-1.86 1.792-.745 1.174-1.24 2.347-1.55 3.583 1.364-.434 2.542-.804 3.534-1.298v1.112c-.992.31-2.295.74-3.845 1.173-.126.556-.188 1.112-.188 1.668 0 .742.186 1.298.558 1.607.373.31.87.432 1.552.432.62 0 1.24-.123 1.922-.31v1.484c-1.612.555-3.1.864-4.403.864-1.115 0-1.983-.247-2.603-.74l-.124-.125v-5.685c.496-1.112 1.302-2.286 2.356-3.398 1.426-1.73 2.977-2.842 4.775-3.398zm-7.13-7.477V83.97h.06c.497.248.745.557.745.927 0 .31-.124.556-.496.804-.124.063-.186.125-.31.125zm0-1.853v1.854c-.31.124-.62.185-1.056.185-.496 0-1.55-.125-3.163-.31-.745-.124-1.427-.186-1.86-.186-1.303 0-2.296.494-3.04 1.545-.496.74-1.055 1.73-1.675 3.026V86.38c.93-.68 2.045-1.297 3.285-1.73 1.923-.74 3.722-1.112 5.335-1.112.93.062 1.675.186 2.172.433zm0 16.002v5.683c-.498-.494-.746-1.297-.746-2.347 0-1.112.248-2.224.745-3.336zm-10.794 6.116v-1.297c.93-.43 1.86-1.296 2.665-2.53 1.365-1.978 1.985-3.83 1.985-5.685 0-1.36-.805-2.1-2.418-2.1-.682 0-1.49.185-2.295.617v-1.358c1.365-.74 2.79-1.112 4.342-1.112 1.362 0 2.355.31 3.037.865.682.556.993 1.297.993 2.1 0 1.236-.496 2.78-1.55 4.45-1.055 1.728-2.48 3.21-4.28 4.57-.806.68-1.675 1.174-2.48 1.483zm0-19.646v3.707c-.25.554-.498 1.233-.808 1.913l-1.303 3.212c.682-.556 1.364-1.05 2.046-1.482v1.36c-.062 0-.124.06-.124.06-.868.495-1.55 1.05-2.047 1.67-.496.678-.992 1.605-1.488 2.84l-1.055 2.78c.434 1.792 1.427 2.657 2.915 2.657.62 0 1.24-.122 1.8-.43v1.296c-.93.37-1.8.556-2.668.556-1.366 0-2.358-.618-2.916-1.853-.87 2.84-2.543 5.187-5.086 6.98v-2.47c.557-1.238 1.3-2.968 2.108-5.19-.683.554-1.365 1.05-2.11 1.42v-1.298c.25-.124.56-.31.807-.494 1.117-.743 2.047-2.102 2.853-4.203l1.117-2.84c-.31-.866-.62-1.484-.993-1.917-.372-.432-.992-.68-1.86-.68-.62 0-1.24.124-1.86.433v-1.36c.93-.37 1.797-.554 2.666-.554.682 0 1.302.124 1.8.37.495.248.867.866 1.177 1.854 1.24-3.645 2.48-6.116 3.66-7.29.434-.31.868-.68 1.364-1.05zm-10.67 6.796v1.36c-.993.43-1.86 1.296-2.73 2.532-1.364 1.977-2.046 3.83-2.046 5.684 0 1.42.806 2.1 2.42 2.1.743 0 1.55-.185 2.356-.618v1.298c-1.364.74-2.852 1.112-4.34 1.112-2.73 0-4.033-.99-4.033-3.027 0-1.176.497-2.597 1.49-4.327.99-1.73 2.418-3.213 4.28-4.572.867-.74 1.735-1.234 2.604-1.543zm0 16.063v2.473c-.06.062-.124.062-.186.123-2.605 1.792-5.46 2.657-8.622 2.657-.93 0-1.675-.124-2.17-.37v-1.916c.31-.124.744-.124 1.24-.124.31 0 .806 0 1.488.062 1.118.124 2.172.124 3.227.124 1.922 0 3.225-.37 3.907-1.113.31-.31.683-.99 1.117-1.915zm-10.98-8.71v-5.87c.56.743.808 1.608.808 2.72 0 1.11-.25 2.16-.808 3.15zm-10.79 7.476h.06c.435 0 .87.123 1.18.37.31.248.434.557.434.927 0 .803-.56 1.483-1.613 2.1l-.06.063v-3.46zM44.78 94.72v5.87c-.62 1.173-1.612 2.224-2.915 3.212-2.48 1.853-5.086 2.842-7.877 2.842v-1.73c.496.31 1.054.433 1.8.433 1.3 0 2.542-.556 3.658-1.668 1.365-1.423 2.11-3.215 2.11-5.377 0-1.607-.31-2.72-.993-3.398-.62-.68-1.427-1.05-2.42-1.05-1.364 0-2.667.68-3.907 1.915-.062.062-.124.124-.186.248v-1.915c1.8-.99 3.845-1.42 6.14-1.42 1.55 0 2.854.43 3.908 1.234.248.247.496.495.682.803zm0 17.546v1.915h-.062c-.496-.245-.744-.554-.744-.986 0-.433.248-.742.806-.927zm-12.777-1.05c.124-.062.248-.062.31-.124.558-.185.807-.432.807-.68 0-.123-.063-.37-.25-.68-.123-.308-.247-.493-.247-.68 0-.246.124-.43.434-.678.247-.186.557-.31.93-.31v3.4c-.56.308-1.24.555-1.986.678v-.926zm1.985-17.052v1.916c-1.117 1.297-1.675 2.965-1.675 5.127 0 1.36.372 2.472 1.18 3.275.185.185.31.31.495.432v1.73c-.744 0-1.365-.062-1.985-.185V95.522c.62-.556 1.303-.99 1.985-1.36zm-20.158 4.45c.806-.372 1.798-1.113 3.04-2.102 2.294-1.853 4.03-3.09 5.27-3.645 1.242-.556 2.42-.803 3.6-.803 1.363 0 2.045.37 2.045 1.05s-.62 1.05-1.86 1.05h-.683c-.372 0-.62-.06-.806-.06-.93 0-1.86.184-2.79.555-.932.37-2.11 1.05-3.6 2.16-1.425 1.05-2.418 1.73-3.1 2.04 2.17.68 3.66 1.36 4.466 2.037.806.68 2.047 2.41 3.66 5.128 1.178 1.977 2.356 3.336 3.41 4.14 1.055.803 2.42 1.173 3.908 1.173.56 0 .993-.063 1.49-.186v.988c-.62.124-1.304.186-1.986.186-2.42 0-4.528-.618-6.512-1.854-1.923-1.235-3.908-3.768-5.893-7.537-.556-1.112-1.114-1.915-1.61-2.41-.497-.493-1.303-.926-2.42-1.358l-2.356 6.918h-3.6l1.676-4.325c1.55-4.077 2.357-6.363 2.357-6.92 0-.246-.186-.37-.496-.37-.68 0-1.92.68-3.782 1.977l-.744-.556c1.612-1.173 3.163-2.04 4.714-2.532 1.55-.493 2.667-.802 3.35-.802.62 0 .93.185.93.494 0 .124-.125.495-.31 1.112l-1.365 4.45zm18.173-3.09c-.31.247-.558.494-.806.74-1.925 1.916-2.855 3.955-2.855 6.18 0 1.296.496 2.285 1.55 3.026.62.433 1.303.742 2.11.927V95.524z" fill="#462600"/></g></svg>