<svg width="113" height="135" viewBox="0 0 113 135" xmlns="http://www.w3.org/2000/svg"><title>logo</title><defs><filter x="-6.7%" y="-4.8%" width="114.4%" height="111.9%" filterUnits="objectBoundingBox" id="a"><feOffset dy="2" in="SourceAlpha" result="shadowOffsetOuter1"/><feGaussianBlur stdDeviation="2" in="shadowOffsetOuter1" result="shadowBlurOuter1"/><feColorMatrix values="0 0 0 0 0 0 0 0 0 0 0 0 0 0 0 0 0 0 0.5 0" in="shadowBlurOuter1" result="shadowMatrixOuter1"/><feMerge><feMergeNode in="shadowMatrixOuter1"/><feMergeNode in="SourceGraphic"/></feMerge></filter><linearGradient x1="92.922%" y1="61.071%" x2="36.444%" y2="36.646%" id="b"><stop stop-color="#FFF" offset="0%"/><stop stop-color="#270A00" offset="100%"/></linearGradient><linearGradient x1="90.067%" y1="55.55%" x2="6.276%" y2="38.02%" id="c"><stop stop-color="#B9B1B1" offset="0%"/><stop stop-color="#6F6F6E" offset="100%"/></linearGradient><linearGradient x1="19.026%" y1="53.896%" x2="87.038%" y2="48.926%" id="d"><stop stop-color="#99877C" offset="0%"/><stop stop-color="#FFF" offset="100%"/></linearGradient><linearGradient x1="7.079%" y1="50.291%" x2="77.994%" y2="54.945%" id="e"><stop stop-color="#301500" offset="0%"/><stop stop-color="#FFF" offset="100%"/></linearGradient><linearGradient x1="130.695%" y1="10.708%" x2="47.164%" y2="57.003%" id="f"><stop stop-color="#99877C" offset="0%"/><stop stop-color="#270A00" offset="100%"/></linearGradient></defs><g filter="url(#a)" transform="translate(4 3)" fill="none" fill-rule="evenodd"><path stroke="#462600" stroke-width=".567" fill="#FFF" d="M.395.198h103.473v125.406H.395z"/><path d="M71.418 51.85s.46.265.13.397c-.328.132-1.578.33-1.842.66-.263.33-.065.725.33.66.46-.066.723-.33 1.053-.198.327.13.656.59.92.79.33.197-.33.065-.79-.265s-.856-.132-1.054-.066c-.197.065-.46.13 0 .395s.46.66-.592-.066c-1.053-.726-.79-1.12-.33-1.518.527-.396.922-.462 1.317-.462.528 0 .857-.33.857-.33zm.987 5.015s-.33-.066-.33-.33-.065-.264-.262 0c-.198.264-.46.33-.46.066 0-.262-.133-.33-.133-.46 0-.132 0 0-.197.264-.198.264-.46.33-.395.066.13-.265 0-.463-.066-.463-.066.066-.132 0-.197.264-.066.2-.132.33-.198.134-.066-.198-.132-.264-.066-.462.068-.197-.13-.328-.26-.065-.067.264-.198.264-.198.462 0 .13-.197.065-.13-.133.065-.198-.133.198-.067-.066s.066-.2-.132-.264c-.13 0-.59.396-.262.726.264.265.923.727 1.515.727.592-.067 1.843-.463 1.843-.463z" fill="#99877C"/><path d="M18.957 13.524c.395 0 .724.46.724.923 0 .462-.064 1.385-.46 1.385s-1.315-.923-1.315-1.45c0-.463.658-.858 1.053-.858z" fill="url(#b)" transform="translate(57.924 32.984)"/><path d="M69.904 41.098s.066-.857-.527-1.847c-.592-.99.066-.856.988-1.317.92-.462.79-1.518 1.645-2.243.922-.727 2.896-2.64 5.266-2.376 2.37.264 3.49 1.32 4.344 1.253.856-.066 1.514.198 1.843.726.33.462 2.37.33 3.423 1.055 1.053.726 2.567 1.188 3.225 3.035.595 1.847 1.385 2.243 1.977 2.97.527.724 1.514 3.363.79 5.21-.79 1.847-1.053 2.375-.658 3.298.394.926.854 1.454 1.58 2.18.722.725-.33.99-1.186.46-.922-.527-.922.463-.79 1.52.197.99-.593 1.582-.658 2.307-.066.726.197 2.045-.264 1.452-.394-.595-.657-1.32-.657-1.848 0-.593-.527-.33-.395.726.132.99.395 1.847.79 2.045.395.2-.198.2-.658-.263-.46-.527.263.594.33.858.065.264-.66-.264-.857-.66-.197-.396-.132.198-.263.858-.132.66-.263.923 0 .99.263.13.79 1.12-.263.923-1.055-.2-1.384-.793-2.108-.067-.724.726-1.58 1.253-1.91.858-.328-.395-1.908-4.09-1.513-5.21.394-1.056.987-1.584 1.053-.99.066.527-.13 1.32 1.712.725 1.843-.593 3.752-3.364 4.015-4.684.263-1.32.066-1.714-1.053-1.714-1.12 0-1.975.924-2.765.132-.79-.79-1.054-.79-1.25-1.385-.2-.594-.264-1.188.13-.726.395.396 1.054.726.593.132-.46-.595-.79-1.188-.527-1.056.264.133.264-.065.066-.46-.197-.397-.263-.463.132-.2.395.265.855.397.592-.065-.33-.463-1.12-.86-1.185-1.386-.064-.528-.13-.594.725-.66.79-.066.988-.528.264-.396-.79.132-.528.858-1.58.33-1.054-.528-1.844-.99-.33-.99s1.843-.33.46-.33c-1.382 0-1.645.33-2.632-.065-.988-.397-.264-.265.592-.265s-.79-.198-1.514-.858c-.79-.66-.724-.99-.79-1.517-.13-.528.527-1.32.527-.462 0 .86.197 1.386.724 1.255.59-.066 1.184-.198.723-1.254-.526-1.054-1.052-1.252-1.052-1.714 0-.462.13-.858-.262-.528-.395.33-1.514 1.913-3.555 2.375-2.04.396-2.106.396-1.25.132.855-.264 1.777-1.253.79-.99-.988.264-1.975.594-3.094.99-1.055.396-1.45.462-.923 0 .593-.462.395-.924-.33-.726-.79.197-.59-.33-1.052.46-.46.793-1.514 1.19-1.25.86.263-.33.657-1.65 1.71-1.65 1.054 0 1.383-.528 1.844-.79.46-.266.723-.53-.725.196-1.45.725-1.778.264-2.304 1.12-.526.86-.855.925-.526 1.123.33.263.265.79-.065.66-.33-.134-.66-.397-.527-.793.13-.594.394-.726.394-.726z" fill="#4C2F01"/><path d="M90.177 51.125s.79-.132.527 1.122c-.264 1.187-.658 2.243-.988 2.705-.33.395-1.316 1.253-1.316 1.253s1.316-1.517 1.58-2.31c.263-.79.33-1.384.33-1.846 0-.596-.133-.926-.133-.926zm-2.238-.857v-.264c.064.066.064.066.064.132.066.132 0 .132-.066.132zm0-.594v-.462c.196.132.196.462 0 .462zm0-1.98v-2.968c.13-.593.327-.79.59-.99.33-.263.527.397.264 1.386-.263.99-.263 1.122-.33 2.375-.065 1.253-.13 1.32-.46.396 0 .066 0-.066-.066-.198zm1.907-7.256s0 1.122.658 1.584c.66.46.922.66.922 1.45 0 .793.197.33-.527-.46-.723-.792-1.315-.726-1.184-1.65l.132-.924zm-1.91 4.288v2.97c-.065-.397-.196-1.32-.13-2.178.065-.33.065-.594.13-.792zm0 4.486v.462h-.065c-.263-.066-.395-.198-.395-.198-.263-.198-.395-.33-.526-.528-.13-.198-.33-.725 0-.395.33.33.527.46.857.593.065 0 .13.066.13.066zm0 .792v.264c-.13.066-.46-.066-.92-.066 0 0-.264-.462.13-.462.265.066.66.132.79.264zm-4.014-6.333v-.196c.527-.132 1.053-.33 1.25-.924.264-1.122.66-2.31 1.25-2.77.594-.463 1.384-.265 1.252 1.252-.132 1.517.197 2.243-.198 2.837-.395.592-.263-.66-.263-1.19 0-.527.263.396-.592.99-.856.53-.79.2-.46-.33.262-.528 0 .264-.923.396-.46 0-.92-.066-1.317-.066zm0-1.25c.395-.2.592-.53.79-1.915.197-1.12-.33-1.65-.79-2.045v3.958zm0-6.005v-.395c.46.196.987.46 1.382.79.856.594.922.528.593.858-.33.396-.265.396-.79-.33-.33-.462-.79-.726-1.186-.924zM86.36 46.77c.46.397.197.595.658.727.46.132.46.528 0 .264-.46-.196-.724-.262-.922-.66-.197-.262.263-.33.263-.33zm-2.436-10.75v.394c-.263-.132-.46-.132-.46-.132s-.462-.857-.396-.725c.066.066.395.264.856.462zm0 2.44v3.958c-.132.065-.263.13-.46.197-.66.33-.856.462-1.383.33v-.396c.66-.068 1.516-.2 1.516-1.255 0-1.187.263-2.177-.198-2.44-.46-.265-.79-1.518-.33-.99.2.198.528.395.857.593zm0 5.013v.198c-.527-.064-.922-.13-.922-.13s.46 0 .922-.066zm-1.843-6.73v-.33l.068-.065-.066.066v-.33c.264.066.396.132.396.132s-.066.066-.33.132c.067.066 0 .198-.065.396zm0-.658v.33c-.196.13-.59.263-1.117.46-1.25.463-1.185 1.123-2.106 2.046-.198.2-.33.33-.527.464V37.8c.328-.66.065-.858 1.052-1.584.922-.593 2.107-.33 2.7-.13zm0 .395c-.26.264-.985 1.056-.722 1.716l.46 1.385s-.394-.66-.065-1.58c.197-.53.263-.925.33-1.255v-.264zm0 6.07v.395c-.064 0-.064 0-.13-.066-.592-.2-.13-.33-.13-.33.13.064.196.064.262 0zm-3.684-6.927c.79-.33 1.448-.33 1.448-.33s-.46-.132-1.448-.066v.396zm0-.858v-.396c.856.196 1.58.394 1.58.394s-.66-.066-1.58 0zm0-.396v.394c-.593 0-1.25.066-1.843.132-.263 0-.46.066-.724.132v-.793c.79-.198 1.776-.066 2.566.132zm0 .856v.396c-.33.132-.724.396-1.053.66-.724.66-.988.99-1.514 1.187v-1.78c.262-.134.657-.266 1.12-.33.59-.068 1.05-.134 1.446-.134zm0 2.573v1.582c-.79.528-1.514.726-1.58.528 0 0 .527-.46 1.25-1.583.198-.263.264-.395.33-.527zm-2.567-3.63v.792c-1.12.396-1.647 1.253-2.437 2.045-.92.99-1.25.99-2.303 1.385-1.055.396-.462 1.056-.462 1.056l-.395-.2c-.395-.197-.263-.857.592-1.054.79-.198 1.053-.858 1.91-1.32.855-.462 1.118-1.913 2.632-2.507.066-.133.263-.133.46-.2zm0 1.584c-.857.395-.857 1.055-1.713 1.517-1.053.595-2.303 1.914-2.303 1.914s1.382-.726 2.896-1.253c.46-.13.855-.263 1.118-.395v-1.78z" fill="#381B00"/><path d="M69.048 46.31c.263-.066.066-.066.066-.33s-.066-1.122.263-1.715c.33-.594.066-.594 0-.858-.066-.198.395-.396.527-.726.13-.327.46-.723.724-.987.263-.33.395-.132.33.132-.067.264.065.594.59.725.528.13.923.263.99.857 0 .594 0 .99.328 1.32.33.33.33.593-.198 1.45-.526.792-1.185 1.518-1.316 1.518-.132 0-.593 0-1.514.132-.922.132-1.317.462-1.317.462s.134-.398.33-.728c.2-.33.528-.792.33-.858-.197-.066-.394.132-.592.132-.197-.132.198-.527.46-.527z" fill="#4C2F01"/><path d="M70.628 47.3s.46-.067.592-.397c.132-.33.066-.46.066-.46.263.196.592.658.066.79-.33.132-.724.066-.724.066z" fill="#FFF"/><path d="M76.157 43.275s.066-.396-.132-.198c-.197.198-.46.462-.13.99.262.527.328.66 1.052.33.724-.264 2.04-.594 3.028-.198.987.393 1.71 1.647 1.71 1.647s.33-.198.198-.462c-.13-.264-1.053-1.385-2.04-1.65-.987-.33-1.777-.263-2.37-.263-.592 0-.13-.198-.526-.132-.395 0-.593.2-.658.133-.134-.066-.134-.198-.134-.198z" fill="#4C2F01"/><path d="M73.59 52.18s.33-.33.13-.79c-.196-.463-.328-.792-.328-.792s.66.593.593.99c0 .395-.395.593-.395.593zm-2.304-1.055s.33 0 .658.198c.33.198.593.858.79.858.263 0 .263-.196-.066-.724-.395-.528-.79-.99-.987-.99-.26 0-.722.396-.656.528.13.132.263.132.263.132z" fill="#270A00"/><path d="M85.11 56.007c-.264 0-.2.462.13.66s.593.066.66-.132c.065-.198-.067-.264-.265-.264-.46 0 0-.33-.526-.262zm.986-.66s-.197.264 0 .264c.198 0 .658-.196 1.12-.657.46-.462.46-.99.328-1.452-.13-.46-.46-.46-.658-.33-.197.133.263.265.33.727.065.462 0 .726-.396 1.056-.33.33-.724.395-.724.395z" fill="#4C2F01"/><path d="M87.478 56.14s1.054-.727 1.58-1.782c.527-.99.856-1.78.395-2.243-.395-.462-1.91.132-1.91.462s.265.264.725 0c.46-.264.724-.33.922-.132.197.198.263.462-.132 1.385-.395.924-1.58 2.31-1.58 2.31zm-11.453-7.917c.132.066.46.66 1.317.66.855.065 1.58 0 2.106-.198.527-.198.527-.396.527-.396s-.395 0-.66-.134c-.394-.198-.59.528-1.71.462-.922 0-1.053-.53-1.12-.66-.13-.133-.262-.595-.526-.33-.46.33-.33.527-.2.593.133.067.067-.065.264 0z" fill="#4C2F01"/><path d="M79.185 48.62v-.133c.066-.066.197-.132.33-.132.065 0 .196.066.13.132-.065.066-.197.132-.33.132h-.13zm0-.133c.066-.066.197-.132.263-.132l-.263-.132v.264zm-.395 0c.066.066.066 0 .066.132h-.066v-.134zm.395-.264h-.198c-.066.132-.13.132 0 .198.132 0 .066.068.066.068s.066 0 .066-.066v-.197h.064zm0 .33c-.066 0-.066 0 0 0-.066.132-.264.197-.33.197v.066h.132c.066 0 .066-.13.198-.13v-.133zm-.988.132c0-.066.264-.132.33-.198.065-.066.13-.066.263-.066v.134c-.132.066-.395.132-.593.132zm.593.065c0 .066-.066.066 0 0-.066.066 0 0 0 0z" fill="#7A6161"/><path d="M75.96 47.76l.197-.197c.132-.066 0-.198.197-.198.198 0 .198.198.198.528s.395.528.592.594c.264.066.79 0 .988-.264.197-.33.13-.396.13-.396s.594.198.923.33c.33.132.658.198.92.198.2 0 0-.132 0-.33s-.394-.132-1.052-.462c-.592-.33-1.382-.726-1.843-.66-.527 0-.79 0-1.12.33-.262.264-.13.462-.13.528z" stroke="#4C2F01" stroke-width=".216" fill="#4C2F01"/><path d="M73.92 56.403s-.528-.198-.79-.33c-.264-.132 0 0-.396 0-1.25.132-1.053-.33-1.514-.264-.526.064-.526.064-.987-.134-.395-.132-.33-.264-.33-.264l.264-.527 2.5.263 1.45 1.055-.198.198z" fill="#99877C"/><path d="M18.957 14.843c.066.132.066.264.395.33.33.066.724-.198.724-.198l.132.066s-.264.398-.79.33c-.527-.064-.527-.33-.593-.526h.132z" fill="url(#c)" transform="translate(57.924 32.984)"/><path d="M69.31 53.17c.133.528.99.33 1.45.396.526.066.79.066 1.448.66.658.594 1.513.857 1.843 1.32.33.46.2.593-.064.725-.264.134.263-.196-.132-.46s-2.764-.923-3.094-1.055c-.33-.132-1.45-1.056-1.45-1.056-.064-.067-.13-.463 0-.53z" fill="#99877C"/><path d="M68.916 47.497s-1.514 1.98-1.25 4.09c.263 2.11.46 5.08.46 5.87 0 .793-.197 2.574.725 3.102.923.46 1.186.592 2.24 1.185 1.053.594 2.04 1.584 2.37 2.97.394 1.384.92 1.78 1.316 2.836.395 1.056 1.184 2.97 1.184 4.025 0 1.055-.198 2.77-.395 3.562-.198.858-.988 4.024-1.317 5.41-.33 1.385-.856 3.298-.856 3.298l4.476.066s.527-.857.527-1.846c0-.99-.263-2.11.132-3.1.394-.99.724-1.518.724-2.508s.594-.99 1.384-1.78c.79-.792 1.185-1.584 1.053-3.233-.066-1.65-.592-2.837-.79-1.584-.263 1.253-.526 3.76-1.448 2.64-.92-1.123-.725-1.387-1.25-2.047-.528-.66-2.503-2.11-2.305-4.552.197-2.44.724-2.9 1.974-3.43 1.25-.46 2.303-1.32 2.764-1.78.46-.53.724-.99-.263-.462-.92.527-1.842 1.055-4.74.99-2.895-.067-5.2-.397-6.054-.99-.856-.595-.922-1.452-.527-2.046.394-.528.59-.594 1.25-.594.66.066.92.198 1.184 0 .264-.198.33-.396.856-.396.46 0 .987-.197.526-.395-.527-.2-.922 0-1.514.065-.593.066-1.91 0-2.106-.528-.264-.528-.132-.726.33-.858.525-.2.854.13 1.052.197.197.132.724 0 .987-.066.263 0 .395 0 .658.067.198.066 1.646.594 1.712.33.13-.264-.988-.99-1.91-1.253-.92-.33-2.105-.46-2.566-1.055-.53-.594-.463-1.12.195-1.385.593-.264 1.12-.264 1.58-.198.46.066.527-.198.066-.462-.46-.198-.986-.594-1.052-1.45-.067-.86-.396-.793.328-1.584.658-.793 1.448-1.65 1.843-2.112.395-.462.592-1.188.592-1.188s-.724 1.32-1.25 1.78c-.593.463-.527.463-.922.793-.394.33-1.118 1.054-1.118 1.45 0 .396 0 .462.066.726 0 .198-.33.857-.856.857-1.58.066-1.053-1.253-.658-2.045.33-.66.592-1.385.592-1.385z" fill="#4C2F01"/><path d="M84.977 63.198s2.106 3.496 3.818 6.135c1.71 2.638 4.278 6.86 5.134 8.84.79 1.913 1.183 2.44 1.644 2.176.46-.265-1.25-2.31-1.778-3.498-.526-1.187-2.632-4.222-3.686-6.135-.723-1.385-3.62-5.21-4.606-7.388-.395-.793-.527-.133-.527-.133z" stroke="#4C2F01" stroke-width=".216" fill="#4C2F01"/><path d="M17.838 14.38c-.592-1.516-.527-2.638 1.843-3.297 0 0-1.117.725-1.05 1.12.065.397.657.265.657.265s-1.12.528-1.25 1.122c-.132.593-.198.79-.198.79z" fill="url(#d)" transform="translate(57.924 32.984)"/><path d="M18.233 14.183s.395-.462 1.053-.528c.658 0 .658-.263.066-.263-.658 0-.395-.198.132-.198.526 0 .526-.33-.066-.264-.593.066.066-.198.395-.264.33-.066.395-.066.395-.066s-.79-.198-1.45.198c-.59.396-.525.528-.525.726.066.395 0 .66 0 .66z" fill="url(#e)" transform="translate(57.924 32.984)"/><path d="M64.704 72.697s.592-2.573-.46-4.156c-1.054-1.647-1.778-4.55-1.712-6.397.065-1.78.263-4.024 1.777-7.256 1.512-3.167 2.83-6.267 2.697-8.115-.066-1.846-.66-3.363-.66-3.363s.99.923 1.252 2.572c.262 1.65.13 2.902.13 2.902s-.197-.66-.263-1.32-.066-.593-.066-.593-.064.99-.33 1.847c-.26.792-1.71 4.816-2.367 6.53-.658 1.717-1.317 5.147-1.25 6.73.065 1.583.13 3.233.986 5.41s1.184 2.374.92 3.628c-.196 1.253-.657 1.583-.657 1.583z" fill="#4C2F01"/><path d="M67.073 59.833s1.12-2.11.79-4.486c-.33-2.44-1.053-3.43-1.053-3.43s.46 1.32.33 2.507c-.132 1.187-.198 1.65-.857 3.034-.658 1.386-1.25 2.705-1.316 4.156-.132 1.452-.395 3.958.33 5.872.723 1.913.855 2.177.657 2.902-.13.726-.526 1.32-.526 1.32s1.12-1.056 1.185-2.177c.065-1.12.197-1.582-.198-2.11-.395-.527-.395-.593-.395-.593s.33.528.395 1.187v.858s-.263-.857-.395-1.318c-.066-.462-.526-1.65-.46-3.497.065-1.913.065-2.705.723-4.288.66-1.584 1.054-2.508 1.12-3.43.065-.925.065-1.386.065-1.386s.264.527 0 2.374c-.263 1.782-.395 2.507-.395 2.507z" fill="#4C2F01"/><path d="M64.44 70.784s-2.896.132-4.673 1.055c-1.777.922-1.91 1.186-1.382 3.825.526 2.638 2.304 7.586 4.936 7.916 2.635.33 4.61.133 5.53-.527.923-.725 1.78-2.045 2.108-2.507.33-.46 1.316-.79 2.172-1.32.855-.527 2.105-1.186 2.17-3.693.067-2.507-1.052-2.507-1.58-2.573-.46-.13-.986.133-.986.133s-.132-.792-.856-1.188c-.724-.395-1.908-.857-3.554-.99-1.646-.13-1.71-.13-1.71-.13s2.697.13 3.948.725c1.316.527 1.843.99 1.316 1.583-.526.594-1.777 1.913-6.32 1.715-4.54-.132-7.173-.923-6.647-1.913.53-.99 1.714-1.385 3.293-1.715 1.58-.33 2.238-.396 2.238-.396z" fill="#4C2F01"/><path d="M64.44 71.378c-1.316-.066-5.858.923-4.607 1.65.526.33.92.395.92.395s-.788-.66.067-.99c1.646-.594 1.975-.857 3.62-1.055z" fill="#B9B1B1"/><path d="M62.663 73.95s-1.777-.263-1.382-.66c.397-.395 2.24-.395 3.16-.395.99 0 3.82.132 4.017.594.197.46.33.525-1.383.59-1.71.067-3.686 0-3.686 0s1.317-.065.856-.262c-.46-.2-.856-.265-1.58-.265-.724 0-.592.132-.46.198.13.067.46.198.46.198z" fill="#4C2F01"/><path d="M66.35 71.378s3.093.132 3.95.593c.92.464 1.315.728.723 1.19-.593.46-.658.264-.593-.132.132-.396.066-.726-1.316-1.056-1.317-.262-2.765-.592-2.765-.592z" fill="#B9B1B1"/><path d="M67.073 72.697s2.633 0 2.633.594c0 .596-.33.596-.855.66-.525.067 0-.13-.196-.394-.197-.264-.263-.462.198-.396.46.065.396 0-.263-.133-.66-.198-1.515-.33-1.515-.33zm-5.397 2.837c.263-.33.33-.396-.263-.528-.527-.132-.856-.132-.856.726 0 .79-.066 2.44.92 4.55.99 2.112 1.91 3.498 1.252 1.717-.99-2.84-1.648-5.676-1.055-6.467z" fill="#B9B1B1"/><path d="M58.385 73.95s.46.792 1.25 1.056.988.594.132.264c-.92-.33-1.12-.528-1.316-.858-.13-.264-.064-.462-.064-.462zm3.685 1.584s1.712.264 4.345 0 4.213-.66 4.213-.66-2.436.792-4.937.99c-2.565.132-3.62-.33-3.62-.33zm7.373-29.488s.527-.33 1.185-.198.987.33.987.33-.066-.792-.592-1.122c-.593-.33-.856-.066-1.12.198-.197.264-.46.792-.46.792z" fill="#FFF"/><path d="M80.172 47.1s.198.067.263 0c.066-.065-.065-.33-.13-.46-.067-.066-1.186-1.188-1.976-1.32-.79-.132-1.713 0-2.24.858-.59.923-.263 1.385-.263 1.385s.066-.264.33-.396c.262-.132-.264-.857.657-1.32.987-.46 1.712-.33 2.436.265.66.66.922.99.922.99z" stroke="#4C2F01" stroke-width=".216" fill="#4C2F01"/><path d="M73.26 78.7v-.396c.33-.197.856-.923 1.12-1.715.263-.925.33-1.65-.33-2.245-.263-.264-.592-.264-.79-.132v-.99h.46c.857 0 1.515.726 1.318 2.706-.198 1.98-1.25 2.637-1.646 2.77h-.13zm0-.923c.264-.264.527-.792.66-1.188.196-.53.262-1.453-.33-1.585-.132-.066-.263-.066-.33 0v2.77zm-.92.79c.065-.065.065-.065.065-.13 0-.2-.066-.33-.066-.462v.593zm.92-5.342v.923c-.328.132-.592.396-.592.396s-.46.132-.13-.528c.196-.46.328-.725.723-.79zm0 1.715v2.77c-.13.133-.263.2-.328.2-.33 0-.46-.067-.593-.265v-.99c0-.132.064-.198.064-.264.263-.723.46-1.317.856-1.45zm0 3.364v.396c-.328.066-.46-.33-.13-.396h.13zm-.987-.395s-.065-.266-.395-.2c-.065 0-.13.066-.13.066v.527c.065.066.065.132.13.198.198.2.33.2.46.067v-.593c0-.066-.065-.066-.065-.066zm.066-1.19v.99c-.133-.264-.068-.66 0-.99zm-.594-.264v-1.12c.13.263.13.593 0 1.12zm0 1.32c-.132.132-.066.33 0 .527v-.527zm0-2.44v1.12c-.066.198-.066.33-.132.594-.395 1.386-.92 3.233-1.843 4.487-.92 1.253-1.513 1.847-3.224 1.847-1.712.066-1.712-.528-2.107-.858-.395-.395.66-.593.13-1.055-.525-.46-.33-1.054-.33-1.713 0-.66-.393-.594-.26-1.056.13-.46-.594-.99-.265-1.252.33-.264.198-.528.198-.528s2.5-.265 4.015-.727c1.513-.527 2.566-1.385 3.29-1.187.263-.066.46.066.527.33z" fill="#FFF"/><path d="M21.26 41.032s-1.184-3.232-2.5-4.947c-1.317-1.715-1.975-4.684.46-6.07 2.37-1.385 4.015-2.572 3.884-2.374-.132.33-2.436 1.915-3.094 3.168-.658 1.254-1.448 3.035-.33 5.146 1.12 2.11 2.107 4.816 2.634 3.034.46-1.847 1.053-2.902 1.12-2.308.13.592.13 1.186-.396 2.835-.527 1.65-1.382 3.035-1.514 2.31l-.263-.793z" fill="url(#f)" transform="translate(57.924 32.984)"/><path d="M61.676 75.534c-.132-.198-.46 0-.658-.132-.132 0-.132-.066-.33-.066v.198c.198.066.264 0 .527.066.132 0 .263.066.46.066 0-.066-.065-.066 0-.132 0 .066 0 0 0 0z" fill="#D0CAC9"/><path d="M68.916 75.6s-.592.396-1.843.725c-1.25.264-2.764.528-2.764.528s0 .264-.2.462c-.13.198-.263.264-.065.528 0 0-.066 1.45.197 1.517.724.198 1.382.33 2.435-.198 0 .528-2.632.792-2.303 1.056.46.66 1.974.263 2.435 0-.133.725-2.765.263-2.04 1.253.394.596 1.38.134 2.105-.196-.33.462-1.646.792-2.172.858-.527.067-.132.33.33.792.46.462-.33.198-.857-.593-.526-.792-1.053-1.19-.987-2.243.065-.99 0-.924-.133-1.914-.13-.99-.197-1.65-.197-1.65s.198.133 1.778 0c1.58-.197 3.028-.526 3.554-.724.593-.2.724-.2.724-.2z" fill="#B9B1B1"/><path d="M70.496 47.1c.33-.065.46-.065.527-.395v.132c-.066.066-.132.198-.264.264-.067 0-.133.068-.265 0zm6.384.727c.067.132.067.264.396.33.33.066.724-.198.724-.198l.132.064s-.264.396-.79.33c-.527-.066-.527-.33-.593-.528h.13z" fill="#FFF"/><path d="M77.144 48.157c0-.066 0 0 0 0 0-.066-.066-.066 0 0 .066-.066.066 0 .132 0h-.132zm.264 0h.065s.066 0 .066.066c0 0-.133 0-.133-.066-.066 0 0 0 0 0zm-7.043-.99s.33.066.46-.132c.198-.198.264-.33.198-.527-.066-.198 0 0 0 .13-.066.133-.132.33-.33.397-.197 0-.328-.132-.328-.066 0 .064 0 .064.065.064.066 0-.065.132-.065.132z" fill="#FFF"/><path d="M78.132 26.124l-.264 1.12c-2.435.595-4.41 1.32-5.99 2.244-1.58.858-3.686 2.507-6.384 4.816-7.11 6.2-13.362 10.95-18.628 14.25 1.514 1.912 2.83 3.957 3.883 6.266 1.052 2.31 2.96 7.586 5.593 15.964 2.37 7.455 2.962 8.312 4.74 10.357 3.29 3.63 7.767 3.697 11.52 3.17 1.118-.133 3.816-1.584 4.277-1.848.396.726 2.173 3.563.725 4.487-2.304 1.45-1.843 1.12-5.134 1.98-9.082 2.24-14.61-2.245-18.823-9.304-1.383-2.31-1.91-3.76-4.08-10.16-2.042-6.002-3.622-10.158-4.74-12.4-1.12-2.244-2.634-4.62-4.608-7.126l-4.74 18.01c-.988 3.628-1.844 7.586-2.173 9.5-.79 1.45.922.99-.79 1.253 5.727.594.132-.13-2.37-.13-1.25 0-3.817-.463-7.635-.265-1.578.066-3.026.066-4.41-.132V76.13c1.45.265 3.16.2 5.2-.395 1.778-.528 3.49-2.77 4.148-4.948 1.58-4.815 3.62-12.006 6.187-21.637L39.1 28.564c-5.925.33-10.6 1.716-14.022 4.024-2.632 1.716-3.95 3.695-3.95 5.872 0 .79.396 1.78 1.12 2.968C22.906 42.484 23.3 43.34 23.3 44c0 .793-.262 1.518-.854 2.112-.593.594-1.317.924-2.107.924-.79 0-1.516-.33-2.108-.99v-9.763c1.053-1.913 2.633-3.695 4.74-5.41 4.146-3.298 11.32-4.947 21.59-4.947h2.895c-1.645 4.222-2.7 7.322-3.225 9.235l-3.555 13.46c2.238-.792 4.806-2.243 7.702-4.222 2.96-1.98 5.79-4.156 8.49-6.4 5.002-4.155 7.833-6.662 8.49-7.585.198-.264.33-.528.33-.792 0-.197-.33-.46-.92-.66-.594-.197-2.37-.33-5.2-.395l.59-2.506c3.82.33 6.978.526 9.414.526 2.37.066 5.266-.066 8.557-.46zm-60.03 30.94v2.242c.197-.726.197-1.518 0-2.243zm0 17.744c.13 0 .263 0 .46-.066.79-.132 1.58-.46 2.304-1.055.724-.594 1.316-1.385 1.71-2.177.396-.792.66-1.583.79-2.375.133-.792.2-1.517.067-2.64-.132-1.12-.46-2.703-.79-3.825-.33-1.187-.658-1.913-.987-2.705-.198-.527-.395-.99-.724-1.45-.33-.397-.724-.792-1.12-.792-.328-.066-.592.197-.79.527-.197.33-.263.792-.394 1.452-.132.527-.33 1.12-.593 1.715v13.39h.066zm0 3.43c-22.117-2.242-13.23-30.74-.856-22.956.46.593.724 1.187.855 1.78v2.244c-.722 2.968-3.947 5.343-4.474 5.607-3.554 1.715-2.37 10.16 4.476 11.347v1.98zm0-32.192l-.396-.396c-.724-.923-1.12-2.11-1.12-3.628 0-1.98.462-3.892 1.45-5.74v9.764h.065zm0 15.437l-.198.396c-.395.723-.922 1.383-1.514 1.91-.593.528-1.185.924-1.712 1.386-.526.462-.987 1.055-1.316 1.583-.33.527-.527 1.055-.592 1.582-.066.594 0 1.254.197 2.045.198.792.527 1.782 1.053 2.507.527.726 1.25 1.254 2.04 1.518.66.263 1.383.395 2.04.395V61.483zm57.068-41.56v-.792c.658-.13 1.184-.394 1.645-.724.724-.593 1.053-1.385 1.053-2.507 0-1.386-.79-2.046-2.435-2.046h-.263v-.99c.658-.197 1.25-.263 1.645-.263.988 0 1.712.2 2.304.66.59.46.854 1.056.854 1.848 0 1.385-.724 2.573-2.172 3.562-.79.593-1.646.99-2.633 1.253zm21.92-3.035l.328.792c-2.436 1.65-4.542 2.506-6.188 2.506-.92 0-1.58-.263-1.974-.857-.395-.53-.593-1.256-.593-2.113 0-1.386.46-2.837 1.317-4.354.855-1.517 1.91-2.64 3.16-3.43.987-.594 2.04-.924 3.29-.924.724 0 1.317.13 1.712.395s.592.528.592.923c0 .263-.13.527-.33.66-.196.197-.46.263-.855.263-.33 0-.79-.13-1.384-.395-.592-.33-1.053-.462-1.448-.462-.528 0-.988.198-1.515.594-.46.395-.987 1.186-1.448 2.308-.46 1.12-.658 2.31-.658 3.43 0 .858.196 1.518.59 1.98.264.33.66.527 1.186.527 1.12-.066 2.567-.66 4.213-1.847zm-66.482 7.06c.065 0 .197-.067.263-.133.33-.198.528-.396.528-.594 0-.13-.065-.262-.13-.526-.133-.264-.2-.396-.2-.594 0-.198.067-.396.265-.528.197-.132.395-.264.658-.264s.527.066.725.264c.197.198.33.462.33.79 0 .66-.33 1.255-1.054 1.717-.394.26-.855.46-1.38.59v-.724zM75.17 12.863v.99c-.527.065-1.054.197-1.712.395-.658 2.242-.987 3.496-.987 3.825 0 .396.134.66.33.858.198.2.66.265 1.317.265.395 0 .725 0 1.054-.066v.792c-.66.13-1.316.263-2.04.263-2.04 0-3.094-.527-3.094-1.65 0-.33.198-1.186.593-2.572l1.38-4.75c.067-.263.133-.46.133-.593 0-.263-.132-.395-.33-.395-.46 0-1.25.462-2.37 1.45l-.657-.46c2.172-1.716 3.752-2.64 4.87-2.64.593 0 .856.33.856.99 0 .66-.328 1.914-.92 3.893.592-.33 1.12-.462 1.58-.594zm-44.562 7.322v-6.07c.658-1.978.92-3.165.92-3.56 0-.265-.13-.397-.328-.397-.132 0-.395.065-.658.197v-.923c.263-.198.526-.33.724-.396.724-.33 1.316-.528 1.71-.528.265 0 .462.066.594.264.13.132.263.396.263.725 0 .593-.395 2.11-1.12 4.55-.657 2.178-.986 3.432-.986 3.696 0 .197.065.33.197.46.132.133.263.2.46.2.593 0 1.383-.397 2.436-1.254 1.053-.793 1.712-1.78 2.04-2.838l1.646-5.475h2.238l-1.448 4.684c-.855 2.705-1.316 4.223-1.316 4.618 0 .2.066.265.13.397.067.066.2.132.33.132.198 0 .395-.067.593-.2.33-.197.987-.724 1.91-1.516l.525.463c-2.04 1.847-3.554 2.77-4.54 2.77-.33 0-.594-.132-.857-.33-.26-.197-.327-.527-.327-.923 0-.462.13-1.056.33-1.847-.923.923-2.042 1.715-3.358 2.375-.724.463-1.514.66-2.106.726zm15.14-5.41l.065-.79c1.25-.462 2.172-.99 2.83-1.452.592-.528.922-1.055.922-1.715 0-.793-.395-1.19-1.25-1.19-1.186 0-2.502.595-3.95 1.783l-.66-.46c1.12-.858 2.108-1.517 2.963-1.847.856-.33 1.712-.528 2.567-.528 1.712 0 2.568.594 2.568 1.78 0 1.057-.725 1.98-2.173 2.904.395 0 .66-.067.856-.067 1.58 0 2.304.593 2.304 1.78 0 1.122-.724 2.244-2.172 3.43-1.448 1.19-3.028 1.782-4.74 1.782-1.184 0-2.04-.198-2.632-.66-.593-.46-.856-.99-.856-1.583 0-.33.132-.527.33-.79.196-.2.46-.33.79-.33.262 0 .525.065.723.263.197.132.33.33.33.594v.592c0 .33.13.594.46.792.33.198.724.33 1.185.33 1.184 0 2.106-.396 2.896-1.188.79-.79 1.12-1.715 1.12-2.704 0-.924-.462-1.386-1.45-1.386-.723-.066-1.71.198-3.027.66zm22.115 2.64c-2.04 1.847-3.62 2.836-4.607 2.836-.264 0-.593-.13-.79-.33-.263-.196-.395-.526-.395-.922 0-.463.134-1.057.33-1.782l.725-2.64H58.91l-1.447 5.213H55.16c0-.13.13-.46.33-1.056.13-.462.394-1.385.788-2.77l1.383-4.75c.068-.264.133-.462.133-.594 0-.263-.13-.395-.33-.395-.46 0-1.25.462-2.368 1.45l-.66-.46c2.174-1.716 3.82-2.64 4.938-2.64.593 0 .856.33.856.99 0 .66-.33 2.045-.988 4.222h4.213l1.514-4.88h2.237L65.76 13.59c-.857 2.704-1.25 4.222-1.25 4.617 0 .33.13.528.46.528.394 0 1.184-.594 2.566-1.78l.33.46zm-50.552 2.31h-2.3l1.777-5.94c-.79.265-1.514.595-2.04 1.057-.593.462-1.317 1.187-2.24 2.243-1.118 1.253-1.973 2.11-2.566 2.507-.592.395-1.185.593-1.777.593-.46 0-.92-.132-1.316-.395-.395-.263-.724-1.12-1.12-2.44l.79-.264c.264.923.46 1.45.66 1.583.13.13.328.196.525.196.594 0 1.45-.594 2.568-1.847 1.317-1.518 2.37-2.44 3.028-2.77.658-.33 1.712-.596 3.226-.793-.46-.33-.856-.924-1.317-1.848-.395-.858-.79-1.45-1.053-1.65-.33-.198-.593-.33-.922-.33-.13 0-.46.066-.855.264-.264.132-.527.198-.724.198-.658 0-1.053-.264-1.053-.79 0-.33.198-.66.593-.925.395-.264.856-.33 1.316-.33.723 0 1.316.198 1.842.66.526.396 1.053 1.32 1.513 2.705.264.66.66 1.32 1.185 1.913l1.185-4.288h2.304l-1.32 4.553c.527-.33 1.12-.924 1.91-1.716 1.513-1.583 2.632-2.638 3.422-3.1.79-.462 1.58-.66 2.238-.66.856 0 1.316.264 1.316.858 0 .593-.395.857-1.184.857h-.855c-.725 0-1.383.196-2.042.526-.592.33-1.316.924-2.172 1.78-.92.86-1.58 1.453-1.975 1.716 1.383.594 2.37 1.122 2.897 1.716.526.592 1.316 1.978 2.37 4.287.79 1.715 1.58 2.836 2.303 3.496.724.66 1.514.924 2.436.924.33 0 .658-.066.987-.13v.79c-.393.066-.79.132-1.25.132-1.184 0-2.237-.264-3.224-.858-.987-.593-1.777-1.385-2.436-2.44-.66-1.056-1.383-2.573-2.238-4.486-.46-1.188-.856-1.913-1.185-2.243-.33-.33-.79-.594-1.317-.858l-1.91 5.542zm13.3-10.292c-.66.395-1.45.923-2.37 1.715l.658.46c.79-.593 1.317-.99 1.646-1.187.066 0 .066-.065.13-.065v-.923h-.064zm0 4.617l-.066.33c-.527 1.716-.922 2.838-1.053 3.366-.066.395-.132.79-.132 1.12 0 .463.132.793.33.99.197.198.46.33.855.33h.13V14.05h-.064zm58.91 97.7v-1.582c.065 0 .13-.066.196-.066 1.12-.33 2.765-1.056 4.87-2.177l.857.725c-2.106 1.452-4.08 2.44-5.924 3.1zm0-6.398v-1.188c.92-.395 1.71-.857 2.37-1.253.92-.66 1.38-1.317 1.38-1.977 0-.462-.197-.858-.592-1.187-.394-.264-.855-.462-1.448-.462-.592 0-1.184.132-1.71.396v-1.255c1.184-.396 2.434-.594 3.75-.594 1.186 0 2.107.2 2.765.596.66.396.922.924.922 1.65 0 .725-.395 1.45-1.12 2.176-.79.727-2.105 1.453-4.08 2.244-.527.264-1.25.528-2.238.858zm0-6.795v1.253c-.067 0-.067.066-.133.066-.79.396-1.448 1.056-1.974 1.914-.79 1.253-1.317 2.506-1.646 3.826 1.448-.462 2.7-.858 3.752-1.386v1.188c-1.055.33-2.437.79-4.083 1.253-.132.596-.197 1.19-.197 1.783 0 .792.198 1.386.593 1.716.395.33.92.46 1.645.46.66 0 1.317-.13 2.04-.33v1.584c-1.71.593-3.29.923-4.672.923-1.185 0-2.107-.264-2.765-.79l-.13-.133v-6.07c.527-1.187 1.383-2.44 2.5-3.628 1.516-1.847 3.16-3.034 5.07-3.628zm-7.57-7.982v-1.98h.065c.527.265.79.595.79.99 0 .33-.132.594-.527.858-.13.066-.197.132-.33.132zm0-1.98v1.98c-.33.132-.66.198-1.12.198-.526 0-1.645-.132-3.357-.33-.79-.132-1.514-.198-1.974-.198-1.385 0-2.438.528-3.228 1.65-.526.79-1.12 1.846-1.777 3.232V91.17c.988-.727 2.172-1.387 3.49-1.85 2.04-.79 3.948-1.186 5.66-1.186.987.066 1.777.198 2.303.462zm0 17.087v6.07c-.527-.53-.79-1.387-.79-2.508 0-1.187.263-2.375.79-3.562zm-11.454 6.53v-1.385c.988-.462 1.975-1.385 2.83-2.704 1.45-2.11 2.107-4.09 2.107-6.07 0-1.45-.856-2.243-2.567-2.243-.724 0-1.58.198-2.436.66v-1.45c1.448-.793 2.962-1.19 4.608-1.19 1.448 0 2.5.33 3.225.925.724.594 1.053 1.385 1.053 2.243 0 1.32-.526 2.968-1.645 4.75-1.117 1.847-2.63 3.43-4.54 4.88-.856.727-1.777 1.255-2.633 1.585zm0-20.977v3.958c-.263.593-.526 1.32-.855 2.045l-1.38 3.43c.723-.594 1.447-1.12 2.17-1.583v1.45c-.064 0-.13.067-.13.067-.922.528-1.646 1.122-2.172 1.78-.527.727-1.054 1.716-1.58 3.036l-1.12 2.968c.462 1.913 1.515 2.837 3.095 2.837.658 0 1.316-.132 1.908-.462v1.388c-.986.395-1.907.593-2.83.593-1.447 0-2.5-.66-3.093-1.98-.92 3.037-2.698 5.544-5.397 7.457v-2.64c.59-1.318 1.38-3.166 2.237-5.54-.724.593-1.448 1.12-2.238 1.517v-1.385c.26-.133.59-.33.854-.53 1.184-.79 2.172-2.242 3.027-4.485l1.186-3.035c-.33-.924-.658-1.584-1.053-2.046-.395-.46-1.053-.725-1.975-.725-.66 0-1.317.13-1.975.46v-1.45c.987-.398 1.91-.596 2.83-.596.724 0 1.382.132 1.91.396.526.265.92.925 1.25 1.98 1.316-3.892 2.632-6.53 3.883-7.784.46-.33.922-.726 1.448-1.12zm-11.32 7.256v1.453c-1.054.462-1.976 1.386-2.898 2.705-1.448 2.11-2.172 4.09-2.172 6.07 0 1.517.856 2.242 2.567 2.242.79 0 1.646-.2 2.502-.66v1.385c-1.448.79-3.028 1.187-4.608 1.187-2.896 0-4.278-1.055-4.278-3.232 0-1.254.524-2.77 1.577-4.618 1.054-1.847 2.567-3.43 4.542-4.882.92-.79 1.842-1.32 2.764-1.65zm0 17.154v2.64c-.067.065-.133.065-.2.13-2.763 1.914-5.79 2.837-9.148 2.837-.987 0-1.777-.13-2.304-.395v-2.045c.33-.133.79-.133 1.317-.133.33 0 .857 0 1.58.066 1.186.132 2.305.132 3.424.132 2.04 0 3.423-.395 4.147-1.187.33-.33.725-1.056 1.186-2.045zm-11.652-9.302v-6.266c.592.792.856 1.716.856 2.903s-.264 2.31-.856 3.363zm-11.453 7.984h.068c.46 0 .92.13 1.25.395.33.264.46.594.46.99 0 .857-.59 1.583-1.71 2.243l-.066.066v-3.695zm11.455-14.25v6.267c-.658 1.255-1.71 2.376-3.094 3.432-2.632 1.98-5.396 3.034-8.36 3.034v-1.848c.528.33 1.12.46 1.91.46 1.383 0 2.7-.593 3.884-1.78 1.448-1.517 2.238-3.43 2.238-5.74 0-1.715-.328-2.902-1.052-3.628-.658-.725-1.514-1.12-2.567-1.12-1.447 0-2.83.724-4.146 2.044-.066.066-.13.132-.197.264v-2.045c1.91-1.056 4.08-1.518 6.516-1.518 1.646 0 3.028.46 4.147 1.32.263.263.527.527.724.856zm0 18.735v2.045h-.066c-.527-.263-.79-.593-.79-1.055 0-.463.263-.793.855-.99zm-13.56-1.12c.132-.067.264-.067.33-.133.592-.198.855-.462.855-.726 0-.13-.066-.394-.264-.724-.132-.33-.263-.528-.263-.726 0-.265.13-.463.46-.727.264-.198.593-.33.988-.33v3.63c-.59.33-1.315.593-2.104.724v-.99zm2.107-18.208v2.046c-1.184 1.385-1.776 3.166-1.776 5.475 0 1.452.395 2.64 1.25 3.497.198.198.33.33.527.462v1.846c-.79 0-1.447-.066-2.105-.198v-11.676c.658-.594 1.382-1.056 2.106-1.45zm-21.392 4.75c.856-.395 1.91-1.187 3.226-2.243 2.435-1.98 4.278-3.3 5.595-3.893 1.316-.593 2.567-.857 3.817-.857 1.45 0 2.173.396 2.173 1.12 0 .727-.66 1.123-1.976 1.123h-.724c-.395 0-.658-.065-.856-.065-.987 0-1.975.198-2.962.593-.987.397-2.238 1.123-3.818 2.31-1.513 1.12-2.567 1.847-3.29 2.177 2.303.726 3.883 1.452 4.74 2.177.854.727 2.17 2.574 3.882 5.477 1.25 2.11 2.5 3.563 3.62 4.42 1.12.858 2.567 1.254 4.147 1.254.593 0 1.053-.066 1.58-.198v1.055c-.658.133-1.382.2-2.106.2-2.568 0-4.805-.66-6.912-1.98-2.04-1.32-4.147-4.024-6.253-8.048-.592-1.187-1.185-2.045-1.71-2.573-.528-.528-1.384-.99-2.568-1.45l-2.502 7.387H7.965l1.777-4.618c1.645-4.355 2.5-6.796 2.5-7.39 0-.264-.196-.396-.526-.396-.724 0-2.04.726-4.015 2.11l-.79-.592c1.714-1.254 3.36-2.177 5.005-2.705s2.83-.858 3.554-.858c.66 0 .987.197.987.527 0 .132-.132.528-.33 1.188l-1.448 4.75zm19.287-3.298c-.33.264-.593.528-.856.792-2.04 2.045-3.03 4.222-3.03 6.596 0 1.386.53 2.44 1.648 3.233.658.462 1.382.792 2.238.99v-11.61z" fill="#462600"/></g></svg>