<svg width="21" height="25" viewBox="0 0 21 25" xmlns="http://www.w3.org/2000/svg"><title>Page 1</title><path d="M10.5 7.815c-1.338 0-2.423 1.05-2.423 2.344 0 1.294 1.085 2.344 2.423 2.344s2.423-1.05 2.423-2.345c0-1.295-1.085-2.345-2.423-2.345m0 15.487c-1.793-1.135-8.885-6.07-8.885-13.143 0-4.74 3.986-8.596 8.885-8.596 4.9 0 8.885 3.856 8.885 8.595 0 7.056-7.093 12.005-8.886 13.142m0-23.3C4.71 0 0 4.557 0 10.158 0 19.1 9.68 24.667 10.093 24.9c.125.07.266.106.407.106.14 0 .28-.035.407-.106C11.32 24.668 21 19.1 21 10.16 21 4.557 16.29 0 10.5 0" fill="#3B2113" fill-rule="evenodd"/></svg>