<svg width="22" height="22" viewBox="0 0 22 22" xmlns="http://www.w3.org/2000/svg" xmlns:xlink="http://www.w3.org/1999/xlink"><title>Page 1</title><defs><path id="a" d="M10.8 21.338H0V0h21.6v21.338H10.8z"/></defs><g fill="none" fill-rule="evenodd"><mask id="b" fill="#fff"><use xlink:href="#a"/></mask><path d="M17.55 9.335h-1.38c.317.414.597.854.81 1.334h.57c1.49 0 2.7 1.192 2.7 2.665v6.668H1.35v-6.668c0-1.473 1.21-2.667 2.7-2.667h.57c.213-.48.494-.92.81-1.335H4.05c-2.236 0-4.05 1.792-4.05 4v6.67c0 .736.605 1.333 1.35 1.333h18.9c.746 0 1.35-.597 1.35-1.334v-6.668c0-2.21-1.813-4-4.05-4zm-2.7 4c0 2.21-1.813 4.002-4.05 4.002-2.236 0-4.05-1.79-4.05-4s1.814-4.002 4.05-4.002c2.237 0 4.05 1.792 4.05 4zm-9.45 0c0 2.947 2.418 5.336 5.4 5.336s5.4-2.387 5.4-5.333-2.418-5.334-5.4-5.334-5.4 2.388-5.4 5.334zM2.7 4.002c0-1.472 1.21-2.666 2.7-2.666h10.8c1.49 0 2.7 1.194 2.7 2.667V6.67h-4.05V4h-8.1v2.67H2.7V4zm0 4.002h4.05c.746 0 1.35-.597 1.35-1.334V5.334h5.4v1.334c0 .737.605 1.334 1.35 1.334h4.05c.746 0 1.35-.597 1.35-1.334V4c0-2.208-1.813-4-4.05-4H5.4C3.164 0 1.35 1.792 1.35 4v2.67c0 .737.605 1.334 1.35 1.334z" fill="#FFF" mask="url(#b)"/></g></svg>