<svg xmlns="http://www.w3.org/2000/svg" viewBox="0 0 188.743 188.743" width="24" height="24" fill="grey"><path d="M164.243 99.766H151.2l.69-14.462c.078-1.64-.52-3.24-1.65-4.426s-2.703-1.86-4.343-1.86H13.904c-1.64 0-3.21.673-4.342 1.86-1.132 1.188-1.73 2.787-1.65 4.426l2.663 55.884c.658 13.81 9.117 25.43 21.002 30.71H6c-3.313 0-6 2.686-6 6s2.687 6 6 6h148.647c3.313 0 6-2.688 6-6s-2.687-6-6-6h-26.422c9.634-4.28 17.01-12.728 19.81-23.132h16.208c13.51 0 24.5-10.99 24.5-24.5s-10.99-24.5-24.5-24.5zm-50.422 63.18H45.98c-12.535 0-22.822-9.808-23.42-22.33l-2.363-49.6h119.407l-2.363 49.6c-.595 12.522-10.882 22.33-23.42 22.33zm50.424-26.18H149.44l1.19-25.013c.09.004.178.013.268.013h13.346c6.893 0 12.5 5.607 12.5 12.5s-5.607 12.5-12.5 12.5zM62.27 69.184c.958.566 2.01.836 3.047.836 2.052 0 4.05-1.054 5.17-2.948 1.688-2.853.742-6.532-2.11-8.218-3.337-1.972-5.643-5.61-6.327-9.98-.712-4.55.477-9.082 3.178-12.12.024-.028.048-.055.07-.083.654-.76 1.307-1.51 1.954-2.252 5.55-6.374 11.29-12.963 12.938-22.553.562-3.266-1.63-6.37-4.896-6.93-3.266-.56-6.37 1.63-6.93 4.896-1.08 6.277-5.288 11.11-10.16 16.706-.658.754-1.32 1.515-1.982 2.287-5.03 5.688-7.284 13.872-6.027 21.905 1.238 7.926 5.64 14.653 12.075 18.457zm18.62-13.55c1.982 5.1 5.516 9.774 9.953 13.156 1.086.828 2.364 1.23 3.633 1.23 1.808 0 3.596-.815 4.776-2.364 2.01-2.635 1.5-6.4-1.135-8.41-2.664-2.03-4.866-4.93-6.04-7.954-2.34-6.023-.123-12.025 7.41-20.07 5.342-5.704 8.756-12.422 9.873-19.43.52-3.272-1.708-6.348-4.98-6.87-3.273-.522-6.35 1.708-6.87 4.98-.75 4.7-3.03 9.113-6.78 13.118-3.936 4.2-15.908 16.986-9.84 32.615z"/></svg>