<svg width="23" height="23" viewBox="0 0 23 23" xmlns="http://www.w3.org/2000/svg"><title>map</title><path d="M9.21 8.07l2.584 3.61 2.452-3.5 1.334-1.83c.168-.427.257-.88.264-1.34 0-2.237-1.813-4.05-4.05-4.05s-4.05 1.813-4.05 4.05c.035.453.113.902.232 1.34L9.21 8.07zm2.584-5.72c.71-.005 1.395.272 1.9.77.507.5.795 1.18.8 1.89-.002.472-.13.935-.374 1.34h.01l-2.336 3.37-2.337-3.37h.01c-.242-.405-.37-.868-.373-1.34.005-.71.293-1.39.8-1.89.505-.498 1.19-.775 1.9-.77zm0 4c.735-.008 1.325-.61 1.32-1.343-.005-.735-.602-1.328-1.337-1.327-.734 0-1.33.595-1.333 1.33 0 .357.144.698.397.95.255.25.597.39.954.39zm9.45 1.33L16.98 6.63l-.85 1.12 5.114 1.27v12l-5.4-1.34V8.13l-1.35 1.77v9.78l-5.4 1.34V9.9L7.33 7.58 2.343 6.35c-.356-.004-.698.135-.952.384-.253.25-.396.59-.398.946v12c.078.71.64 1.267 1.35 1.34l5.4 1.33h1.35l5.4-1.33h1.35l5.4 1.33c.356.004.698-.135.952-.384.253-.25.396-.59.398-.946V9.24c-.012-.778-.58-1.436-1.35-1.56zm-13.5 13.34l-5.4-1.34v-12l5.4 1.34v12z" fill="#FFF" fill-rule="evenodd"/></svg>