<svg width="31" height="28" viewBox="0 0 31 28" xmlns="http://www.w3.org/2000/svg"><title>Page 1</title><path d="M20 16.004h2v-5h-2v5zm-6 0h2v-5h-2v5zm10 10.003c-.552 0-1-.45-1-1 0-.553.448-1.002 1-1.002s1 .45 1 1.002c0 .55-.448 1-1 1zm0-4.002c-1.654 0-3 1.345-3 3.002 0 1.653 1.346 3 3 3s3-1.347 3-3c0-1.657-1.346-3.002-3-3.002zm-13 4.002c-.55 0-1-.45-1-1 0-.553.45-1.002 1-1.002s1 .45 1 1.002c0 .55-.45 1-1 1zm0-4.002c-1.654 0-3 1.345-3 3.002 0 1.653 1.346 3 3 3s3-1.347 3-3c0-1.657-1.346-3.002-3-3.002zm1-15.003v2h15.802l-1.637 9.002H9.76L4.76 0H0v2h3.24l5 18.005h19.595l2.363-13.003H12z" fill="#3B2113" fill-rule="evenodd"/></svg>