<svg width="48" height="40" viewBox="0 0 48 40" xmlns="http://www.w3.org/2000/svg"><title>Group 6</title><g stroke="#6E4E37" fill="none" fill-rule="evenodd"><path d="M44.19 27.113c.014 3.312-2.666 5.997-5.978 5.997H9.685c-3.315 0-6.002-2.685-6.002-6V20s4.622-6.06 6.86-15.587c.696-2.962 4.296-3.267 4.296-3.267h17.98S35.657.7 37.194 4.01c1.538 3.313 3.666 12.79 6.97 16.44l.026 6.663z" stroke-width="2"/><path d="M22.148 5.828h3.914M7.126 14.87s2.352 1.7 4.512 1.747l25.054-.043s3.737-.72 4.362-1.766m-32.917-2.77H4.552c-1.31 0-2.37 1.053-2.37 2.372 0 1.31 1.058 2.37 2.372 2.37H5.91M40 12.038h3.584c1.31 0 2.37 1.053 2.37 2.372 0 1.31-1.058 2.37-2.37 2.37h-1.358M6.346 28.434h3.98m1.954.068h23.15m2.52.038h4.013M5.818 32.642v4.412c0 1.1.892 1.99 2.006 1.99h1.864c1.107 0 2.005-.9 2.005-2.007v-3.92m24.682.03v3.9c0 1.103.892 1.997 2.006 1.997h1.866c1.107 0 2.005-.89 2.005-1.99v-4.41M.43 39.07h47.03M3.95 20.868s9.22.233 8.786 3.836c0 .635-.89 1.15-1.997 1.15H3.634m40.075-4.986s-9.22.233-8.786 3.836c0 .635.89 1.15 1.997 1.15h7.105"/><path d="M20.727 23.443v2.208m2.91-2.207v2.208m3.636-2.207v2.208m3.637-2.207v2.208m-14.546-2.207v2.208" stroke-linecap="square"/></g></svg>