<svg width="61" height="30" viewBox="0 0 61 30" xmlns="http://www.w3.org/2000/svg"><title>Path 21</title><path d="M2 23.215s.692 1.086 1.183 1.78c.49.692 2.005 1.302 1.874 2.756-.13 1.455.934-2.257 1.74-2.175.807.08 1.433-.188 1.433-.188s-.6-.707-.3-1.06c.3-.35 0-1.084.736-1.098.737-.014 2.887-.706 3.21-.016.322.69 1.216 1.32 1.963 1.55.746.23 1.532.802 1.532.802s.542-2.023 1.027-2c.484.022 3.526.78 4.36.213.832-.566 1.38 1.69 1.38 1.69l1.344-.31s.727 2.594 1.148 2.593c.422 0 1.86-.16 2.15.425.29.585 1.313.258 1.375.72.062.46 2.192-1.308 2.855-1.014.664.294 1.525 1.102 2.217 1.057.692-.043.414-1.86.79-1.904.377-.046.95.76 2.127.846 1.177.087 1.9-1.303 2.565-.503.666.8 1.532 1.04 1.78.707.248-.333 2.85-2.51 3.458-1.78.61.73-.22-2.845.45-3.298.668-.454 2.658-.71 3.36.72.7 1.43 2.357.41 2.357.41l.617.607s.783-1.76 1.337-1.47c.555.29.776 2.292.39 3.384-.388 1.09-.274 2.705.554 1.716.83-.99 2.713-3.077 1.737-4.453-.974-1.376.4-2.346-3.295-4.72l-.327.725s-1.336.782-2.352-.49c-1.016-1.27 2.277-6.03 2.277-6.03l1.332.046-.107-1.115s-.872-.93-.345-2.035c.526-1.103.58 1.08.935.428.354-.65-.324-2.132-.015-2.117.308.015 1.497 1.1 1.21 2.174-.285 1.074 2.37 5.213 4.437 4.413 2.065-.8-.362-1.76-1.048-2.706-.686-.945-.968-1.284-2.178-1.74-1.21-.453-.557-2.763-.557-2.763s.384-3.45-.66-3.75c-1.044-.3-1.87-.875-1.87-.875s1.292-1.52 1.91-1.413c.62.11-1.26-1.058-1.487-.95-.226.105-3.753 2.695-4.006 3.248-.253.553.782.74.782.74s-1.713.295-1.67 1.372c.043 1.078-2.243 1.1-2.243 1.1s-1.313 1.788-2.82 1.467c-1.51-.32-.247 1.316-.247 1.316s-1.668 1.718-2.108 1.625c-.44-.093-1.767-1.142-1.767-1.142l-1.74.86s-2.05 1.97-3.106.986c-1.054-.987 1.26-2.388 1.26-2.388l-2.08-.775s-.982 1.883-2.557 1.627c-1.576-.256-1.867 1.91-1.867 1.91s-1.477.794-2.378.168c-.9-.626-1.798-.02-1.798-.02s-5.614.503-6.74.178c-1.124-.324-4.573.752-5.11-.015-.54-.768 1.096-2.38 1.096-2.38s.35 1.65 1.373 1.55c1.024-.097.138-3.255-1.166-3.136-1.304.117-3.225 3.216-3.225 3.216l-2.253.223s-2.143-.106-2.098 1.18c.046 1.282-.15 2.215-.787 2.82-.637.603-.9 1.37-.9 1.37l.794 2.24.393 1.433-1.865.68-1.78.75z" stroke="#6E4E37" stroke-width="2" fill="none" fill-rule="evenodd"/></svg>