<svg xmlns="http://www.w3.org/2000/svg" width="47.995" height="48" viewBox="0 0 99 99.01"><defs><style>.cls-1 { fill: #6e4e37; fill-rule: evenodd; }</style></defs><path class="cls-1" d="M40.22 74.075a9.215 9.215 0 1 0 9.28 9.22 9.248 9.248 0 0 0-9.28-9.22zm0 12.29a3.075 3.075 0 1 1 3.09-3.07 3.09 3.09 0 0 1-3.09 3.07zm30.94-12.29a9.215 9.215 0 1 0 9.28 9.22 9.248 9.248 0 0 0-9.28-9.22zm0 12.29a3.075 3.075 0 1 1 3.09-3.07 3.09 3.09 0 0 1-3.09 3.07zm-54.57-73.72l-1.02-6.14H3.09a3.07 3.07 0 1 0 0 6.14h7.22l8.25 49.15a6.165 6.165 0 0 0 6.19 6.14h61.88a6.163 6.163 0 0 0 6.18-6.14l6.19-43v-6.15H16.59zm70.04 49.15H24.75l-7.14-43h75.2z"/></svg>