<svg xmlns="http://www.w3.org/2000/svg" width="48.01" height="48" viewBox="0 0 99.03 99.01"><defs><style>.cls-1 { fill: #6e4e37; fill-rule: evenodd; }</style></defs><path class="cls-1" d="M33.44 41.58l.02-.06a61.014 61.014 0 0 1 28.33-29.84c-14.51-7.08-32.64.7-46.08 13.69-14.2 13.74-20.22 34.7-12 48.3l1.22-.68a67.13 67.13 0 0 0 28.51-31.41zm36.12-24.23l-.13-.13a61.007 61.007 0 0 0-30.12 30.35l-.42.93A67.028 67.028 0 0 1 10.8 79.31l-1.21.68c11.48 7.85 31.21 3.43 47.52-9.72C71.9 58.35 82.99 31 69.56 17.35zm.31 49.85l-.04-.01a42.6 42.6 0 0 1-4.05-2.04 45.436 45.436 0 0 1-6.53 6.55c-1.42 1.14-2.88 2.22-4.34 3.23a45.865 45.865 0 0 0 3.79 4.36c9.47 9.69 23.91 13.8 33.29 8.19l-.47-.83A46.14 46.14 0 0 0 69.87 67.2zm19.77-16.14a36.15 36.15 0 0 0-12.55-9.48 53.124 53.124 0 0 1-7.97 19.05A41.2 41.2 0 0 0 74 63.2l.63.28a46.02 46.02 0 0 1 21.24 19.17l.47.82c5.41-7.83 2.36-21.29-6.7-32.41z"/></svg>