<svg xmlns="http://www.w3.org/2000/svg" width="47.999" height="47.999" viewBox="0 0 85 85"><defs><style>.cls-1{fill:#6e4e37;fill-rule:evenodd}</style></defs><path id="_17" d="M79.69 5.31h-5.31v5.32a5.316 5.316 0 0 1-5.32 5.31h-5.31a5.307 5.307 0 0 1-5.31-5.31V5.31H26.56v5.32a5.307 5.307 0 0 1-5.31 5.31h-5.31a5.307 5.307 0 0 1-5.31-5.31V5.31H5.31A5.316 5.316 0 0 0 0 10.63v69.06A5.313 5.313 0 0 0 5.31 85h74.38A5.313 5.313 0 0 0 85 79.69V10.63a5.316 5.316 0 0 0-5.31-5.32zm0 74.38H5.31V21.25h74.38v58.44zM18.13 10.62a3.124 3.124 0 0 0 3.12-3.12V3.12a3.125 3.125 0 0 0-6.25 0V7.5a3.126 3.126 0 0 0 3.13 3.12zm47.81 0a3.124 3.124 0 0 0 3.12-3.12V3.12a3.12 3.12 0 1 0-6.24 0V7.5a3.124 3.124 0 0 0 3.12 3.12zM33.58 35.64h-.57l-10.24 3.85v3.24l7.21-2.64v23.83h3.6V35.64zm28.64.14H43.2v2.93h15.23L46.82 63.92h3.75l11.65-26.13v-2.01z" class="cls-1" data-name="17"/></svg>