<svg xmlns="http://www.w3.org/2000/svg" width="47.999" height="47.999" viewBox="0 0 83 83"><defs><style>.cls-1{fill:#6e4e37;fill-rule:evenodd}</style></defs><path d="M71.99 0H11.01a5.192 5.192 0 0 0-5.19 5.19S0 16.33 0 29.18v38.26a5.192 5.192 0 0 0 5.19 5.19v7.78A2.59 2.59 0 0 0 7.78 83h10.38a2.59 2.59 0 0 0 2.59-2.59v-7.78h41.5v7.78A2.59 2.59 0 0 0 64.84 83h10.38a2.59 2.59 0 0 0 2.59-2.59v-7.78A5.192 5.192 0 0 0 83 67.44V29.11c0-12.83-5.82-23.92-5.82-23.92A5.192 5.192 0 0 0 71.99 0zM5.19 29.03l5.82-21.25a2.593 2.593 0 0 1 2.6-2.59h55.78a2.593 2.593 0 0 1 2.6 2.59l5.82 21.25H5.19zm72.62 35.81a2.593 2.593 0 0 1-2.59 2.6H7.78a2.593 2.593 0 0 1-2.59-2.6V34.22h72.62v30.62zM33.72 47.51h15.56a2.6 2.6 0 1 0 0-5.19H33.72a2.6 2.6 0 1 0 0 5.19zm0 10.37h15.56a2.6 2.6 0 1 0 0-5.19H33.72a2.6 2.6 0 1 0 0 5.19zm-20.75 0h10.37a2.593 2.593 0 0 0 2.6-2.59V44.91a2.593 2.593 0 0 0-2.6-2.59H12.97a2.59 2.59 0 0 0-2.59 2.59v10.38a2.59 2.59 0 0 0 2.59 2.59zm2.59-10.37h5.19v5.18h-5.19v-5.18zm44.1 10.37h10.37a2.593 2.593 0 0 0 2.6-2.59V44.91a2.593 2.593 0 0 0-2.6-2.59H59.66a2.6 2.6 0 0 0-2.6 2.59v10.38a2.6 2.6 0 0 0 2.6 2.59zm2.59-10.37h5.19v5.18h-5.19v-5.18z" class="cls-1"/></svg>