<svg xmlns="http://www.w3.org/2000/svg" width="47.996" height="48" viewBox="0 0 104 104.009"><defs><style>.cls-1{fill:#6e4e37;fill-rule:evenodd}</style></defs><path d="M48.75 22.604a3.256 3.256 0 0 0 3.25-3.27V6.274a3.25 3.25 0 1 0-6.5 0v13.06a3.256 3.256 0 0 0 3.25 3.27zm13 0a3.256 3.256 0 0 0 3.25-3.27V6.274a3.25 3.25 0 1 0-6.5 0v13.06a3.256 3.256 0 0 0 3.25 3.27zm13 0a3.256 3.256 0 0 0 3.25-3.27V6.274a3.25 3.25 0 1 0-6.5 0v13.06a3.256 3.256 0 0 0 3.25 3.27zm22.75 6.53H26a6.523 6.523 0 0 0-6.5 6.54v.83a26.144 26.144 0 0 0 6.5 51.43 26.54 26.54 0 0 0 4.837-.45A42.205 42.205 0 0 0 104 58.534v-22.86a6.52 6.52 0 0 0-6.5-6.54zM26 81.404a19.615 19.615 0 0 1-6.5-38.08v15.21a42.418 42.418 0 0 0 6.64 22.87H26zm35.75 13.07A35.847 35.847 0 0 1 26 58.534v-19.6a3.255 3.255 0 0 1 3.25-3.26h65a3.254 3.254 0 0 1 3.25 3.26v19.6a35.847 35.847 0 0 1-35.75 35.94z" class="cls-1"/></svg>