<svg xmlns="http://www.w3.org/2000/svg" width="63.996" height="72.529" viewBox="0 0 120 136"><defs><style>.cls-1{fill:#6e4e37;fill-rule:evenodd}</style></defs><path d="M119.14 6.67a6.72 6.72 0 0 0-6.667-6.68H16.937a5.816 5.816 0 0 0-5.78 5.84v114.52H3.566a3.533 3.533 0 0 0-3.157 1.94 3.605 3.605 0 0 0 .248 3.72l.716 1.03a20.86 20.86 0 0 0 17.08 8.95l76.33-.01 6.407-.4a24.092 24.092 0 0 0 15.62-7.12 11.128 11.128 0 0 0 3.2-7.88zM3.674 125.4l-.716-1.03a.752.752 0 0 1 .607-1.18H81.42a3 3 0 0 1 2.494 1.36 24.6 24.6 0 0 0 9.436 8.59h-74.9a18.035 18.035 0 0 1-14.776-7.74zm111.146 1.05a21.325 21.325 0 0 1-12.234 6.12l-.127-.83c-8.2 1.27-13.68-4.94-16.2-8.76a5.788 5.788 0 0 0-4.837-2.63h-67.45V5.83a2.98 2.98 0 0 1 2.964-2.99h95.536a3.88 3.88 0 0 1 3.85 3.86l.87 113.91a8.276 8.276 0 0 1-2.373 5.84zM70.29 20.37H35.563v2.84h34.73v-2.84zm-9.855 36.96h34.73v-2.84h-34.73v2.84zm-.938 39.8h34.73v-2.84H59.5v2.84zM43.91 88.12l-8.688 9.57a.518.518 0 0 1-.4.16.507.507 0 0 1-.37-.22l-4.29-6.5a1.4 1.4 0 0 0-1.95-.39 1.427 1.427 0 0 0-.392 1.97l4.288 6.49a3.285 3.285 0 0 0 2.5 1.48 2.252 2.252 0 0 0 .26.01 3.288 3.288 0 0 0 2.43-1.08l8.69-9.57a1.434 1.434 0 0 0-.086-2.01 1.4 1.4 0 0 0-1.992.09zm0-38.86l-8.688 9.57a.484.484 0 0 1-.4.16.476.476 0 0 1-.37-.22l-4.29-6.49a1.4 1.4 0 0 0-1.95-.4 1.428 1.428 0 0 0-.392 1.97l4.288 6.5a3.246 3.246 0 0 0 2.5 1.47 2.275 2.275 0 0 0 .26.02 3.26 3.26 0 0 0 2.43-1.09l8.69-9.57a1.434 1.434 0 0 0-.086-2.01 1.4 1.4 0 0 0-1.992.09z" class="cls-1"/></svg>