<svg xmlns="http://www.w3.org/2000/svg" width="63.995" height="63.995" viewBox="0 0 126 126"><defs><style>.cls-1{fill:#6e4e37;fill-rule:evenodd}</style></defs><path d="M108.67 0H17.33A17.312 17.312 0 0 0 0 17.27v91.45a17.32 17.32 0 0 0 17.33 17.27h91.34A17.32 17.32 0 0 0 126 108.72V17.27A17.312 17.312 0 0 0 108.67 0zm14.76 17.27v10.91h-17.66a7.253 7.253 0 0 1-7.26-7.23V2.56h10.16a14.752 14.752 0 0 1 14.76 14.71zM83.57 28.12a4.395 4.395 0 1 0-2.57-.19v12.79a10.98 10.98 0 0 0 10.99 10.95h31.44v12.77h-6.82a13.307 13.307 0 0 0-13.32 13.28v45.71H90.86V72.25a10.783 10.783 0 0 0-10.8-10.75h-5.44a8.183 8.183 0 0 1-8.19-8.17V2.56h29.51v18.39a9.83 9.83 0 0 0 9.83 9.8h17.66v18.36H91.99a8.414 8.414 0 0 1-8.42-8.39v-12.6zM17.33 2.56h28.96v14.98a6.826 6.826 0 0 1-6.83 6.8h-8.12a4.374 4.374 0 1 0-.07 2.56h8.19a9.393 9.393 0 0 0 9.4-9.36V2.56h15v50.77a10.757 10.757 0 0 0 10.76 10.73h5.44a8.222 8.222 0 0 1 8.23 8.19v51.18H74.14V93.25a12.14 12.14 0 0 0-12.15-12.1h-4.56a8.994 8.994 0 0 1-9-8.97v-25a4.415 4.415 0 1 0-2.57-.03v25.03a11.56 11.56 0 0 0 11.57 11.53h4.56a9.573 9.573 0 0 1 9.58 9.54v30.18H55.29v-13.5a8.672 8.672 0 0 0-8.68-8.65H2.57V44.84h13.74a8.97 8.97 0 0 1 8.98 8.94v21.27a4.395 4.395 0 1 0 2.57.19V53.78a11.538 11.538 0 0 0-11.55-11.5H2.57V17.27A14.752 14.752 0 0 1 17.33 2.56zM2.57 108.72v-4.88h44.04a6.1 6.1 0 0 1 6.1 6.09v13.5H17.33a14.752 14.752 0 0 1-14.76-14.71zm106.1 14.71h-2.81V77.72A10.746 10.746 0 0 1 116.61 67h6.82v41.72a14.752 14.752 0 0 1-14.76 14.71z" class="cls-1"/></svg>