<svg xmlns="http://www.w3.org/2000/svg" width="47.998" height="47.998" viewBox="0 0 87 87"><defs><style>.cls-1{fill:#6e4e37;fill-rule:evenodd}</style></defs><path id="Tools" d="M33.11 86.99a3 3 0 0 1-.67-.08 44.788 44.788 0 0 1-11.81-4.89 2.715 2.715 0 0 1-1.28-1.83 2.676 2.676 0 0 1 .52-2.17 7.8 7.8 0 0 0-.63-10.26 7.967 7.967 0 0 0-10.26-.62 2.755 2.755 0 0 1-2.17.51 2.693 2.693 0 0 1-1.83-1.28A44.4 44.4 0 0 1 .09 54.56a2.728 2.728 0 0 1 2.29-3.37 7.753 7.753 0 0 0 0-15.39 2.713 2.713 0 0 1-2.29-3.36 44.536 44.536 0 0 1 4.89-11.81 2.72 2.72 0 0 1 4-.76 7.97 7.97 0 0 0 10.26-.63 7.8 7.8 0 0 0 .63-10.26 2.718 2.718 0 0 1-.53-2.17 2.78 2.78 0 0 1 1.28-1.83A44.853 44.853 0 0 1 32.44.09a2.73 2.73 0 0 1 2.2.39 2.775 2.775 0 0 1 1.17 1.9 7.747 7.747 0 0 0 15.38 0 2.72 2.72 0 0 1 1.18-1.9 2.692 2.692 0 0 1 2.19-.39 44.65 44.65 0 0 1 11.81 4.89 2.715 2.715 0 0 1 1.28 1.83 2.676 2.676 0 0 1-.52 2.17 7.8 7.8 0 0 0 .63 10.26 7.97 7.97 0 0 0 10.25.63 2.73 2.73 0 0 1 4.01.76 44.593 44.593 0 0 1 4.89 11.81 2.713 2.713 0 0 1-2.29 3.36 7.75 7.75 0 0 0 0 15.39 2.728 2.728 0 0 1 2.29 3.37 44.593 44.593 0 0 1-4.89 11.81 2.732 2.732 0 0 1-4 .77 7.968 7.968 0 0 0-10.26.62 7.8 7.8 0 0 0-.63 10.26 2.684 2.684 0 0 1 .52 2.17 2.747 2.747 0 0 1-1.28 1.83 44.927 44.927 0 0 1-11.81 4.89 2.692 2.692 0 0 1-2.19-.39 2.72 2.72 0 0 1-1.18-1.9 7.747 7.747 0 0 0-15.38 0 2.775 2.775 0 0 1-1.17 1.9 2.73 2.73 0 0 1-1.53.47zm-7.33-8.35a37.41 37.41 0 0 0 5.4 2.23 13.178 13.178 0 0 1 24.64 0 36.83 36.83 0 0 0 5.39-2.23 13.263 13.263 0 0 1 2.7-14.73 13.417 13.417 0 0 1 14.73-2.69 38.625 38.625 0 0 0 2.24-5.4 13.167 13.167 0 0 1 0-24.64 38.625 38.625 0 0 0-2.24-5.4 13.3 13.3 0 0 1-5.42 1.16 13.1 13.1 0 0 1-9.31-3.85 13.246 13.246 0 0 1-2.7-14.73 38.01 38.01 0 0 0-5.39-2.24 13.173 13.173 0 0 1-24.64 0 38.625 38.625 0 0 0-5.4 2.24 13.226 13.226 0 0 1-2.69 14.73 13.06 13.06 0 0 1-9.31 3.85 13.3 13.3 0 0 1-5.42-1.16 38.625 38.625 0 0 0-2.24 5.4 13.173 13.173 0 0 1 0 24.64 38.625 38.625 0 0 0 2.24 5.4 13.3 13.3 0 0 1 5.42-1.16 13.1 13.1 0 0 1 9.31 3.85 13.243 13.243 0 0 1 2.69 14.73zM43.5 67.1a23.6 23.6 0 1 1 23.6-23.6 23.63 23.63 0 0 1-23.6 23.6zm0-41.76A18.16 18.16 0 1 0 61.66 43.5 18.18 18.18 0 0 0 43.5 25.34zm0 5.26a12.9 12.9 0 1 0 12.9 12.9 12.92 12.92 0 0 0-12.9-12.9zm0 17.99a5.09 5.09 0 1 1 5.09-5.09 5.09 5.09 0 0 1-5.09 5.09z" class="cls-1"/></svg>