<svg xmlns="http://www.w3.org/2000/svg" width="48" height="48" viewBox="0 0 94.918 94.918"><defs><style>.cls-1{fill:#6e4e37;fill-rule:evenodd}</style></defs><path d="M50.71 64.02a15.6 15.6 0 0 0-6.09 1.23L13.35 34.22a3.9 3.9 0 0 0-5.51 0l-2.76 2.73a3.847 3.847 0 0 0 0 5.47l31.27 31.03a15.46 15.46 0 0 0 14.36 21.51 15.78 15.78 0 0 0 4.032-.53l-10.6-10.52a3.835 3.835 0 0 1 0-5.46l5.51-5.48a3.917 3.917 0 0 1 5.51 0L65.77 83.5a15.47 15.47 0 0 0-15.06-19.48zM11.973 41.05a1.95 1.95 0 0 1-2.755 0 1.918 1.918 0 0 1 0-2.73 1.95 1.95 0 0 1 2.754 0 1.918 1.918 0 0 1 0 2.73zm2.755 5.47a1.918 1.918 0 0 1 0-2.73 1.95 1.95 0 0 1 2.755 0l23.67 23.48a15.97 15.97 0 0 0-2.76 2.74zM66.66-.04a24.13 24.13 0 1 0 24.314 24.13A24.22 24.22 0 0 0 66.657-.04zm0 45.25a21.116 21.116 0 1 1 21.276-21.12 21.2 21.2 0 0 1-21.28 21.12zm10.638-21.12h-10.64V7.5a1.52 1.52 0 0 0-3.04 0v18.1a1.517 1.517 0 0 0 1.52 1.51h12.158a1.51 1.51 0 1 0 0-3.02z" class="cls-1"/></svg>