<svg xmlns="http://www.w3.org/2000/svg" width="47.997" height="47.481" viewBox="0 0 93 92"><defs><style>.cls-1 { fill: #6e4e37; fill-rule: evenodd; }</style></defs><path class="cls-1" d="M72.51 51a20.364 20.364 0 0 0-8.01 1.63L23.38 11.51a5.112 5.112 0 0 0-7.25 0l-3.62 3.62a5.112 5.112 0 0 0 0 7.25L53.63 63.5a20.476 20.476 0 0 0 24.18 27.8L63.87 77.36a5.118 5.118 0 0 1 0-7.24l7.25-7.26a5.118 5.118 0 0 1 7.24 0l13.95 13.95A20.5 20.5 0 0 0 72.51 51zM21.57 20.57a2.563 2.563 0 1 1 0-3.63 2.56 2.56 0 0 1 0 3.63zm3.62 7.24a2.563 2.563 0 0 1 3.63-3.62l31.12 31.12a21.135 21.135 0 0 0-3.63 3.63zM2.13 73.37a7.11 7.11 0 0 0 .12 10.25l2.68 2.53a6.8 6.8 0 0 0 9.46-.16l27.89-28.17L30 45.96zM87.54 2.41L85.49.37a1.267 1.267 0 0 0-1.67-.11l-6.63 5.02a4.124 4.124 0 0 0-1.05 1.15l-2.97 4.74a5.98 5.98 0 0 1-.84 1.04L50.18 33.69l4.08 3.65 22.1-22.17a3.446 3.446 0 0 1 .81-.61l4.68-2.64a4.48 4.48 0 0 0 1.49-1.35l4.38-6.17a1.55 1.55 0 0 0-.18-1.99z"/></svg>