<svg xmlns="http://www.w3.org/2000/svg" width="63.998" height="72.065" viewBox="0 0 119 134"><defs><style>.cls-1 { fill: #6e4e37; fill-rule: evenodd; }</style></defs><path class="cls-1" d="M48.91 19.2A10.01 10.01 0 1 0 38.9 29.22 10.02 10.02 0 0 0 48.91 19.2zm-17.42 0a7.41 7.41 0 1 1 7.41 7.42 7.413 7.413 0 0 1-7.41-7.42zm44.19 10.02A10.015 10.015 0 1 0 65.67 19.2a10.023 10.023 0 0 0 10.01 10.02zm0-17.43a7.415 7.415 0 1 1-7.41 7.41 7.413 7.413 0 0 1 7.41-7.41zm42.22 31.62a2.658 2.658 0 0 0-2.39-.4l-19.49 6.01v-5.56a6.9 6.9 0 0 0-6.89-6.89h-5.29A19.2 19.2 0 1 0 57.29 13.7a19.2 19.2 0 1 0-26.55 22.87h-6.26a6.9 6.9 0 0 0-6.89 6.89v5.75H3.5a3.515 3.515 0 0 0-3.51 3.51v13.94a3.124 3.124 0 0 0 3.12 3.12h14.48v6.41a6.905 6.905 0 0 0 6.89 6.9h14.59v11.43a2.72 2.72 0 0 0 2.71 2.71h.89L27.5 130.45a2.505 2.505 0 0 0 2.28 3.55h8.4a4.7 4.7 0 0 0 4.27-2.77l14.16-31.69 14.17 31.69a4.673 4.673 0 0 0 4.26 2.77h8.4a2.512 2.512 0 0 0 2.28-3.55L70.55 97.23h.04a3.18 3.18 0 0 0 3.17-3.18V83.09h15.37a6.905 6.905 0 0 0 6.89-6.9v-6.61l18.76 5.84a3.333 3.333 0 0 0 .98.15 3.275 3.275 0 0 0 3.24-3.25V45.58a2.682 2.682 0 0 0-1.1-2.17zM3.11 67.18a.525.525 0 0 1-.53-.52V52.72a.915.915 0 0 1 .92-.91h14.09v15.37H3.11zM75.68 2.59A16.615 16.615 0 1 1 59.07 19.2 16.627 16.627 0 0 1 75.68 2.59zM22.29 19.2A16.61 16.61 0 1 1 38.9 35.82 16.627 16.627 0 0 1 22.29 19.2zm35 5.51a19.272 19.272 0 0 0 10.23 11.86H47.06a19.272 19.272 0 0 0 10.23-11.86zM40.08 130.17a2.085 2.085 0 0 1-1.9 1.23l-8.32.13 15.67-34.3h9.27zm43.36 1.23h-8.4a2.085 2.085 0 0 1-1.9-1.23L58.42 97.23h9.28zM71.17 94.05a.58.58 0 0 1-.58.58l-28.92-.11V83.09h29.5v10.96zm22.25-17.86a4.3 4.3 0 0 1-4.29 4.3H24.48a4.3 4.3 0 0 1-4.29-4.3V43.46a4.3 4.3 0 0 1 4.29-4.3h64.65a4.3 4.3 0 0 1 4.29 4.3v32.73zm22.98-3.87a.658.658 0 0 1-.26.52.622.622 0 0 1-.59.1l-19.53-6.08V51.73l20.38-6.15v26.74zm-59.59-28.7a15.61 15.61 0 1 0 15.6 15.61 15.624 15.624 0 0 0-15.6-15.61zm0 28.62a13.015 13.015 0 1 1 13.01-13.01 13.023 13.023 0 0 1-13.01 13.01zm7.38-14.14l-13.47-7.73a1.264 1.264 0 0 0-1.3 0 1.3 1.3 0 0 0-.65 1.12v15.47a1.314 1.314 0 0 0 .65 1.13 1.328 1.328 0 0 0 1.3 0l13.47-7.74a1.3 1.3 0 0 0 0-2.25zm-12.82 6.62V53.73l9.56 5.5z"/></svg>