<svg width="53" height="51" viewBox="0 0 53 51" xmlns="http://www.w3.org/2000/svg"><title>cal</title><g transform="translate(3)" fill="none" fill-rule="evenodd"><rect stroke="#FFF" stroke-width="3" x="-1.5" y="4.5" width="50" height="45" rx="3"/><path d="M10.5 0v11.6M23.5 0v11.6M36.5 0v11.6" stroke="#FFF" stroke-width="3"/><path fill="#D8D8D8" d="M9 18h7v5H9zm11 0h7v5h-7z"/><path stroke="#FFF" d="M31.5 18.5h6v4h-6zm0 8h6v4h-6zm-11 0h6v4h-6zm-11 0h6v4h-6zm0 8h6v4h-6zm11 0h6v4h-6zm11 0h6v4h-6z"/></g></svg>