<svg width="50" height="50" viewBox="0 0 50 50" xmlns="http://www.w3.org/2000/svg"><title>Page 1</title><path d="M35.938 31.25c-.863 0-1.563.698-1.563 1.563 0 .862.7 1.562 1.563 1.562 6.03 0 10.937 4.906 10.937 10.936 0 .863-.702 1.565-1.563 1.565H4.688c-.863 0-1.563-.702-1.563-1.564 0-6.03 4.906-10.935 10.938-10.935.862 0 1.562-.7 1.562-1.563 0-.864-.7-1.562-1.563-1.562C6.31 31.25 0 37.558 0 45.31 0 47.898 2.103 50 4.688 50H45.31C47.898 50 50 47.897 50 45.31c0-7.752-6.308-14.06-14.063-14.06M25 3.125c6.03 0 10.938 6.308 10.938 14.063C35.938 24.94 31.03 31.25 25 31.25s-10.938-6.31-10.94-14.063c0-7.754 4.91-14.062 10.94-14.062m0 31.25c7.755 0 14.063-7.713 14.063-17.188C39.063 7.71 32.752 0 25 0c-3.823 0-7.397 1.833-10.06 5.162-2.582 3.227-4.002 7.5-4.002 12.026 0 9.474 6.307 17.187 14.062 17.187" fill="#3B2113" fill-rule="evenodd"/></svg>