<svg width="51" height="51" viewBox="0 0 51 51" xmlns="http://www.w3.org/2000/svg"><title>Page 1</title><g fill="none" fill-rule="evenodd"><path d="M25.5 48.018c-12.416 0-22.518-10.102-22.518-22.518 0-12.166 9.7-22.103 21.772-22.5v23.544l20.6-11.655c1.698 3.162 2.664 6.774 2.664 10.61 0 12.415-10.102 22.517-22.518 22.517M25.5 0C11.44 0 0 11.44 0 25.5S11.44 51 25.5 51 51 39.56 51 25.5 39.56 0 25.5 0" fill="#FFF"/><path fill="#FFF" d="M14.3 7.35l2.948 5.185 1.297-.737-2.95-5.185m16.562 32.44l2.948 5.185 1.297-.737-2.95-5.183m-8.78 2.326l.057 5.965 1.49-.014-.057-5.965m-11.907 2.85l1.3.73 2.924-5.198-1.3-.73M6.584 35.267l.743 1.293 5.17-2.972-.742-1.293m35.07-6.065v-1.492l-5.966.005v1.49m-30.422-1.616l-5.965.004v1.494l5.966-.005m28.065 7.486l5.2 2.924.73-1.3-5.2-2.923M6.863 15.63l5.2 2.924.73-1.3-5.2-2.924"/><path fill="#3B2113" d="M24.482 4.257l.056 5.965 1.49-.014-.055-5.965m6.25 7.597l1.3.73 2.923-5.2-1.3-.73m8.23 7.65l-5.17 2.973.74 1.293 5.17-2.972"/></g></svg>