<svg xmlns="http://www.w3.org/2000/svg" version="1" width="800" height="240.886" viewBox="0 0 800 240.886"><path d="M117.62 104.087c.967-.804 2.1-1.05 3.408 0 .228.215.42.472.547.756l20.633 45.738c.812 2.04.852 4.353-.72 6.74-1.723 2.365-3.89 3.066-6.055 3.05H99.958c-.685 0-1.367-.16-1.998-.426-.63-.268-1.21-.66-1.695-1.136-1.524-1.587-1.998-3.6-1.25-5.705l22.056-48.262c.133-.282.323-.537.55-.752zm-85.36 100.18c-.53.942-1.173 1.827-1.906 2.63-1.622 1.745-3.453 2.94-5.328 3.64L8.9 216.343c-1.558.56-3.02 1.403-4.274 2.48-1.253 1.086-2.305 2.405-3.07 3.866-.76 1.46-1.235 3.073-1.437 4.426-.205 1.36-.134 2.455.11 3.508.24 1.06.66 2.07 1.234 2.99.576.91 1.307 1.73 2.157 2.396 1.76 1.402 3.933 2.07 6.02 2.054l65.01.033c1.034 0 2.07-.184 3.044-.526.977-.35 1.894-.86 2.7-1.51 1.785-1.444 2.802-3.323 3.21-5.18.458-2.036.162-4.742-.918-7.447-.576-1.38-1.397-2.665-2.41-3.775-2.233-2.405-5.328-3.733-8.06-5.504-1.47-.9-2.27-2.23-2.603-3.516-.33-1.32-.24-2.898.61-4.343l4.693-7.684c.512-.843 1.22-1.553 2.004-2.154.784-.6 1.67-1.077 2.62-1.327.95-.25 1.943-.076 2.93-.076h74.4c1.29 0 2.586.158 3.79.626 1.208.475 2.316 1.21 3.25 2.13.93.917 1.718 1.995 2.21 3.206l13.153 32.438c.357.877.966 1.646 1.65 2.305 1.45 1.394 3.33 2.16 5.127 2.195l75.077.033c1.405 0 2.813-.227 4.126-.728 1.313-.493 2.53-1.244 3.568-2.196 3.173-2.882 4.207-7.24 3.368-11.024-.268-1.187-.716-2.33-1.326-3.374-.608-1.053-1.38-2.013-2.28-2.83-.9-.812-1.916-1.522-3.033-1.997l-9.526-4.05c-1.765-.744-3.374-1.83-4.886-3.008-1.514-1.178-2.898-2.522-4.12-4-1.224-1.48-2.403-3.032-3.157-4.794L163.357 12.04c-.524-1.224-1.53-2.188-2.543-3.053-2.125-1.81-4.767-2.786-7.31-2.814l-71.793.1c-1.13.002-2.264.165-3.34.516-1.077.352-2.096.88-3.002 1.56-.906.677-1.7 1.506-2.34 2.44-.644.93-1.13 1.97-1.448 3.06-.69 2.186-.458 5.283.86 8.343.693 1.568 1.697 3.002 2.927 4.203 1.23 1.202 2.695 2.15 4.268 2.847l9.314 4.124c.936.416 1.88.825 2.72 1.412.84.582 1.61 1.28 2.27 2.06.663.783 1.28 1.627 1.66 2.577l4.563 11.392c1.03 3.05.86 6.49-.82 9.756l-67.083 143.7zm422.426-62.53c.853.667 1.587 1.485 2.502 2.813.91 1.337 2 3.183 3.048 4.71 1.044 1.53 2.046 2.73 3.257 3.684 2.477 1.938 5.742 2.74 8.766 2.33 1.54-.2 3.04-.71 4.387-1.48 1.345-.775 2.59-1.777 3.495-3.04l27.874-38.684c1.774-2.533 2.48-5.685 2.188-8.644-.15-1.51-.563-2.992-1.22-4.36-.655-1.364-1.553-2.62-2.635-3.68-3.61-3.44-8.123-4.47-12.604-3.284-1.448.412-2.814 1.092-5.74 2.938-2.92 1.846-7.4 4.856-10.403 6.773-3.007 1.92-4.535 2.74-6.13 3.4-3.245 1.302-6.694 2.078-10.093 2.16h-71.368l-.025-66.362 71.585-.025c5.166-.038 10.523.783 15.706 2.796 2.497.963 4.932 2.114 7.165 3.586L506.13 61.65c3.777 2.596 8.392 3.02 12.764-.448 1.854-1.646 3.908-4.225 5.353-6.42 1.976-3.156 2.28-6.208 1.224-9.51-.353-1.024-.88-1.98-1.5-2.874L503.925 13.41c-1.01-1.464-2.222-2.792-3.63-3.88-2.935-2.262-6.472-3.46-9.895-3.484l-179.03.29c-1.544 0-3.106-.16-4.58.29-1.48.446-2.85 1.248-4.038 2.26-1.184 1.015-2.182 2.24-2.923 3.606-1.47 2.687-1.918 5.973-1.14 9.037.38 1.504 1.04 2.94 1.94 4.206.903 1.267 2.016 2.4 3.337 3.215l7.402 4.564c.87.537 1.663 1.2 2.31 1.988 1.357 1.647 2.013 3.697 2.007 5.66l.083 158.987c.003 1.503-.252 3.006-.784 4.417-1.07 2.698-2.7 4.744-6.345 6.724-1.723.97-3.932 2.03-5.692 3.064-1.762 1.027-3.078 2.03-4.14 3.258-2.2 2.548-3.186 5.94-2.932 9.096.125 1.63.572 3.24 1.31 4.702.732 1.46 1.755 2.78 2.99 3.85 2.565 2.28 5.91 3.19 9.06 3.09l179.38.025c1.962 0 3.93-.21 5.812-.77 1.884-.56 3.675-1.41 5.29-2.53 1.617-1.11 3.1-2.446 4.248-4.04l21.472-29.732c2.368-3.332 2.952-7.35 1.403-11.333-.496-1.228-1.197-2.37-2.066-3.382-.868-1.002-1.904-1.862-3.365-2.63-2.933-1.58-7.338-2.448-11.167-1.404-1.913.478-3.658 1.438-5.337 2.48l-23.79 14.775c-4.07 2.53-9.016 3.256-13.663 4.183-4.644.935-9.425 1.428-14.215 1.42l-63.25-.135.025-65.05h61.818c1.08 0 2.005.852 2.857 1.51zM733.088 9.854c-.835.57-1.833.844-2.794.798-.492-.023-.977-.127-1.896-.45-.92-.32-2.268-.86-3.625-1.38-1.36-.52-2.735-1.02-10.197-2.467-7.466-1.447-21.025-3.835-34.61-3.706-13.583.13-27.196 2.78-40.016 7.534-12.815 4.754-24.842 11.61-34.96 19.478-10.118 7.865-18.328 16.74-25.097 26.592-6.773 9.855-12.105 20.69-15.743 32.062-3.637 11.373-5.578 23.286-5.83 34.893-.25 11.61 1.187 22.91 4.318 33.726 3.13 10.816 7.955 21.146 14.3 30.408 6.346 9.262 14.213 17.446 21.12 23.393 6.902 5.938 12.845 9.638 18.99 12.912 6.144 3.28 12.49 6.154 19.018 8.55 6.523 2.398 13.23 4.336 22.725 5.947 9.5 1.612 21.796 2.898 34.08 2.723 12.286-.166 24.564-1.803 36.47-4.85 11.9-3.05 23.43-7.51 32.475-11.744 9.05-4.234 15.613-8.25 20.415-11.433s7.846-5.538 9.607-7.016c1.767-1.48 2.25-2.08 2.647-2.74.397-.66.706-1.37.91-2.103.2-.735.293-1.504.372-2.682.084-1.186.15-2.772-.138-4.292-.284-1.512-.923-2.957-2.025-4.243-1.103-1.294-2.664-2.43-3.683-3.307-2.047-1.78-2.26-2.78-2.723-4.227-.184-.734-.247-1.495-.25-2.255l-.1-30.434c-.014-2.154.454-4.442 1.594-6.614.53-1.01 1.188-1.963 1.948-2.814l6.664-7.5c2.118-2.413 3.087-5.58 2.933-8.552-.08-1.543-.455-3.07-1.103-4.473-.643-1.4-1.562-2.677-2.685-3.737-2.364-2.247-5.467-3.336-8.41-3.324l-78.297.01c-1.307 0-2.605.3-3.825.78-1.21.482-2.343 1.18-3.315 2.05-.973.87-1.792 1.915-2.41 3.067-1.223 2.286-1.62 5.027-1.056 7.606.28 1.277.78 2.505 1.482 3.607.7 1.102 1.587 2.096 2.635 2.88 2.923 2.84 6.59 4.828 8.61 6.54 2.025 1.72 2.827 2.647 3.48 3.683 1.344 2.113 1.933 4.568 1.89 6.957l-.012 40.405c0 1.704-.25 3.408-.768 5.036-.52 1.62-1.296 3.167-2.294 4.546-.998 1.386-2.213 2.613-3.583 3.64-1.37 1.028-2.89 1.863-6.45 2.79-3.56.936-9.163 1.955-14.775 1.946-5.612-.007-11.237-1.05-16.54-2.98-5.3-1.93-10.277-4.752-14.616-8.335-4.338-3.574-8.042-7.917-10.827-12.193-2.785-4.284-4.656-8.52-6.318-12.82-1.658-4.292-3.11-8.66-4.326-13.095-1.22-4.428-2.2-8.93-2.992-16.437-.79-7.5-1.395-18.01-.518-28.41.876-10.402 3.223-20.7 6.86-30.53 3.637-9.83 8.556-19.19 13.174-25.84 4.614-6.653 8.924-10.597 13.802-13.625 9.658-6.04 21.76-8.383 33.026-5.997 5.583 1.17 10.907 3.47 16.503 6.776 5.596 3.303 11.463 7.61 17.2 12.064s11.346 9.055 16.774 13.857c1.167 1.2 2.545 2.2 4.05 2.94 2.97 1.463 6.487 1.898 9.795 1.127 1.637-.377 3.203-1.035 4.618-1.937 1.412-.902 2.67-2.048 3.696-3.372 2.14-2.745 3.172-6.125 3.097-9.365-.31-5.592-1.398-11.275-3.353-16.84-.957-2.707-1.988-5.41-3.425-7.895l-17.803-30.82c-.547-.943-1.26-1.79-2.112-2.473-2.63-2.038-5.968-2.51-9.25-.927-.985.49-1.883 1.157-2.66 2.29-.776 1.13-1.428 2.728-1.862 3.747-.434 1.02-.65 1.468-.943 1.862-.29.39-.653.734-1.062 1.01z" fill="#fa110d" fill-rule="evenodd"/></svg>