<svg xmlns="http://www.w3.org/2000/svg" width="2500" height="2500" viewBox="0 0 192.756 192.756"><g fill-rule="evenodd" clip-rule="evenodd"><path fill="#fff" d="M0 0h192.756v192.756H0V0z"/><path d="M155.572 125.06c15.838 0 28.68-12.84 28.68-28.683 0-15.84-12.842-28.68-28.68-28.68H37.186c-15.84 0-28.682 12.84-28.682 28.68 0 15.843 12.84 28.683 28.682 28.683h118.386z" fill="#255398"/><path d="M155.13 121.626c13.93 0 25.222-11.292 25.222-25.222 0-13.932-11.293-25.225-25.223-25.225H37.522c-13.93 0-25.223 11.29-25.223 25.223 0 13.93 11.293 25.222 25.224 25.222H155.13z" fill="#fff"/><path d="M155.26 116.306c11.012 0 19.938-8.926 19.938-19.937 0-11.013-8.926-19.938-19.938-19.938H37.708c-11.01 0-19.938 8.924-19.938 19.936 0 11.01 8.927 19.936 19.938 19.936H155.26z" fill="#255398"/><path d="M37.265 87.84h.573c1.58 0 2.07.57 2.07 2.263v8.804c0 1.69-.49 2.263-2.07 2.263h-.573V87.84zm-8.204-5.097v4.143c.846.355.9 1.035.93 1.854v11.366c-.03.79-.11 1.5-.928 1.853v4.142h10.303c2.208 0 4.28-.136 5.942-1.718 1.77-1.662 1.88-3.434 1.88-5.723v-8.75c0-2.234-.19-4.36-2.098-5.86-1.663-1.28-3.953-1.307-5.943-1.307H29.06zM57.954 94.98h-2.507v-.652c0-.683.108-1.747 1.253-1.747s1.253 1.066 1.253 1.75v.65zm-8.94 4.853c0 2.07.082 3.98 1.88 5.314 1.417 1.062 4.062 1.5 6.678 1.31 2.645-.192 5.29-.982 6.705-2.21V99.94h-6.43v.63c0 .87-.084 1.88-1.2 1.88-1.12 0-1.228-1.118-1.2-1.964v-1.58h8.83v-4.06c.11-4.2-1.445-6.297-7.768-6.27-6.023.027-7.604 1.908-7.495 6.596v4.663zm16.735 6.27v-4.145c.873-.545.79-1.417.79-2.29v-10.49c0-.874.083-1.746-.79-2.29v-4.144h8.86v4.143c-.873.545-.792 1.417-.792 2.29v11.965h.708c1.854 0 1.827-1.117 1.827-2.59v-3.788h6.406v11.34h-17.01zm25.102-10.96c0-.954-.164-2.562 1.227-2.562 1.39 0 1.2 1.636 1.2 2.564v4.96c0 .927.08 2.345-1.227 2.345-1.28 0-1.2-1.42-1.2-2.345v-4.96zm8.857-.055c0-2.18-.137-4.253-2.207-5.506-1.5-.873-4.117-1.008-5.86-1.008-1.935 0-4.034.163-5.588 1.39-1.608 1.253-1.635 3.27-1.635 5.124v4.47c0 2.263 0 4.36 2.098 5.75 1.5 1.01 4.008 1.147 5.78 1.147 1.96 0 4.25-.164 5.805-1.5 1.553-1.335 1.607-3.488 1.607-5.395v-4.47zm8.613-5.096c1.744-1.174 3.27-1.472 4.635-1.418 1.336.054 2.506.49 3.16 1.144 1.174 1.117 1.31 2.372 1.31 3.843v6.434c0 .845-.08 1.8.763 2.263v3.842h-6.84c-.383-1.746-.355-3.57-.355-5.343v-5.015c0-.11.082-.9-.19-1.528-.437-.654-1.146-1.144-2.208-.654v6.433c0 .845-.082 1.8.79 2.263v3.842h-8.015v-3.843c.846-.492.79-1.283.79-2.154v-5.2c0-.927.028-1.527-.79-2.128V88.93h6.95v1.064zm20.498 11.282a2.48 2.48 0 0 1-1.146.302c-1.307 0-1.307-1.5-1.307-2.427V95.36c0-.98 0-2.126 1.28-2.126.41 0 .845.135 1.173.353v7.685zm7.223-12.347h-7.057v.98c-1.23-.926-2.727-1.334-4.254-1.334-3.843 0-4.798 2.343-4.798 6.077v6.46c0 3.76 1.855 5.343 5.1 5.343 1.226 0 2.642-.382 3.788-1.254v1.09c0 .98.164 2.67-1.254 2.67-.518 0-.818-.27-1.008-.653-.164-.382-.19-.87-.19-1.254h-5.972v4.115c2.508 1.39 4.662 1.827 7.523 1.827 1.962 0 4.442-.245 5.915-1.69 1.498-1.444 1.418-4.06 1.418-5.996V94.9c0-.874-.056-1.61.79-2.13v-3.84zm8.994.764a7.895 7.895 0 0 1 4.36-1.117c1.34.054 2.51.49 3.165 1.144 1.17 1.117 1.306 2.372 1.306 3.843v6.433c0 .845-.082 1.8.764 2.263v3.842h-6.84c-.384-1.745-.356-3.57-.356-5.342V95.74c0-.11.082-.9-.19-1.527-.437-.654-1.147-1.144-2.21-.654v6.432c0 .845-.08 1.8.79 2.263v3.842h-8.01v-3.843c.843-.492.79-1.283.79-2.154V88.85c.025-.875.08-1.802-.818-2.263v-3.844h7.248v6.95zm18.37 10.303c0 .872-.08 1.744.82 2.263v3.842h-8.042v-3.843c.847-.52.792-1.283.792-2.154v-5.07c0-.872.082-1.745-.79-2.263V88.93h7.222v11.066zm-6.948-14.854c0-1.855 1.908-2.618 3.49-2.618 1.605 0 3.46.873 3.46 2.727 0 1.796-1.825 2.642-3.407 2.642-1.688 0-3.544-.818-3.544-2.753zm-106.62.223h13.862v1.2H49.834v-1.2z" fill="#fff"/></g></svg>