<svg xmlns="http://www.w3.org/2000/svg" version="1" width="1366.75" height="176.5"><g fill="#2b4991"><path d="M1287.182 132.166l13.287 18.994c6.095 5.987 2.187 14.616-4.22 16.476-1.41.438-2.347 1.142-2.347 2.252v2.423l72.847-.015v-2.69c0-.75-.31-1.64-1.093-1.937-.47-.125-.938-.25-1.407-.407-7.503-2.484-13.913-6.252-20.01-14.115l-35.642-47.038 15.945-19.854c10.474-11.802 23.762-19.853 31.578-21.463 1.565-.314 1.878-1.017 1.878-2.362v-2.11h-2.5l-41.115.015h-2.345v2.094c0 1.188.47 1.97 1.407 2.47.313.25.313.266.626.485 3.127 1.892 5.785 6.94-1.25 15.148 0 .187-5.002 6.347-12.193 14.976v-.125l-10.318-13.943c-6.254-6.16-1.877-15.194 4.69-16.68 1.562-.296 1.875-.984 1.875-2.33v-2.125l-2.5.016h-68.628s-.156 1.14-.156 2.11c0 1.704 1.25 2.564 2.815 2.986 7.347 2.47 13.756 6.237 19.853 14.038l30.952 41.99-20.01 24.15c-10.474 11.663-19.385 20.48-26.576 22.06-1.563.327-2.345 1.124-2.345 2.234v2.423l42.206-.018v-2.626c0-.766-.312-1.532-1.094-1.954-.625-.235-.938-.36-1.25-.625-2.97-2-5.316-7.004 1.563-15.008 0-.173 8.285-11.41 15.476-20.04v.123" fill-rule="evenodd"/><path d="M367.52 36.323c-3.75-9.004-13.443-12.834-23.76-12.834h-41.896v56.09l32.985.076c11.253 0 21.414-2.08 23.446-10.552.157-1 .938-1.735 1.876-1.75l1.876.013v39.503l-1.877.016c-.937.015-1.562-.844-2.03-1.97-2.657-7.3-12.66-10.817-23.29-10.817h-32.987v44.957c0 13.397 4.846 17.024 18.29 17.024h23.605c11.098 0 23.448-5.44 27.67-16.007.31-.797.937-1.188 1.875-1.188h1.563v33.297h-124.59v-2.157c0-1.11.78-2.126 2.343-2.25 7.66-.564 13.6-8.505 13.6-20.73V31.695c0-12.21-5.94-20.2-13.6-20.777-1.563-.125-2.344-1.14-2.344-2.25V6.51H370.96v31.015h-1.564c-.78-.032-1.563-.532-1.875-1.204m82.697 135.866l.156-2.158c0-1.11-.782-2.126-2.5-2.25-7.505-.564-13.602-8.6-13.602-20.808V.01l-48.146 6.5v2.16c0 1.11.782 2.125 2.345 2.25 7.66.58 13.6 8.52 13.6 20.73l.156 115.367c0 12.193-6.097 20.197-13.6 20.76-1.72.125-2.502 1.14-2.502 2.25l.157 2.16h63.937m637.806 0l.157-2.16c0-1.11-.782-2.125-2.5-2.25-7.505-.563-13.602-8.6-13.602-20.807V.01l-48.148 6.5v2.16c0 1.11.782 2.125 2.345 2.25 7.504.58 13.6 8.52 13.6 20.73l.157 115.367c0 12.193-6.097 20.197-13.6 20.76-1.72.125-2.502 1.14-2.502 2.25v2.16h64.094M840.874 58.35v25.027c5.002-9.223 14.85-27.153 36.11-27.153 3.91 0 7.035.844 9.224 1.656l-8.91 30.828h-13.6c-13.758 0-22.356 8.91-22.356 19.884v38.363c0 12.21 6.097 20.26 13.6 20.822 1.72.125 2.502 1.14 2.346 2.25v2.16h-63.625v-2.16c0-1.11.782-2.125 2.5-2.25 7.505-.563 13.6-8.582 13.6-20.79v-57.03c0-12.192-5.157-19.54-13.6-20.727-1.25-.157-2.5-1.532-2.5-2.72v-1.673l47.21-6.487M1223.4 172.295h-29.388c-10.005 0-12.975-6.284-12.975-11.52-12.975 9.894-22.354 14.13-39.238 14.725-18.917.594-36.27-11.146-36.27-32.172l-.155-53.29c0-12.226-6.097-20.167-13.6-20.746-1.564-.125-2.502-1.14-2.345-2.235v-2.173l49.243-6.503v69.3c0 30.984 30.483 27.686 42.364 18.947v-56.62c0-12.21-6.097-20.135-13.6-20.714-1.72-.125-2.5-1.14-2.5-2.235v-2.173l49.24-6.503v88.465c0 9.552 1.877 19.384 9.38 20.98 1.25.265 2.19.812 2.19 2.547v1.923h-2.346M690.177 93.444V64.32s-16.883-7.674-44.084-7.674c-35.486 0-60.03 17.977-60.342 61.623-.312 34.483 19.854 57.557 58.935 57.557 25.794 0 40.8-12.74 46.273-17.868 3.438-2.565 3.438-4.878 3.438-7.8 0-2.925.157-8.068.157-8.068-10.474 7.597-24.7 12.818-38.456 12.818-28.295 0-36.58-20.024-36.58-42.238 0-9.16 2.97-40.41 29.39-40.707 17.038 0 26.73 5.143 36.735 21.823 1.72 2.533 2.814 3.08 4.534 2.72v-3.064m262.94-21.714c-21.105 0-27.045 16.51-27.045 42.474 0 20.932.314 47.18 27.358 47.18 25.95-.594 25.638-22.433 25.638-46.304 0-27.873-6.88-43.193-25.95-43.35zm-1.877-15.647c27.355-.438 64.56 6.472 64.873 57.825 0 40.08-15.007 61.92-64.406 61.92-34.235 0-62.06-7.69-62.06-59.28-.314-52.46 37.986-60.153 61.59-60.45v-.014M571.525 112.14H493.52c-1.565 35.377 17.663 42.443 36.266 42.74 15.79 0 27.826-5.408 38.143-12.646v8.957c0 1.847-.94 3.3-1.41 4.176-7.033 9.473-25.01 20.478-49.71 20.478-33.766 0-57.37-17.4-57.37-57.214 0-43.74 24.23-61.75 57.996-61.938 34.86 0 52.837 16.43 54.088 52.26v3.19zm-54.4-42.472c-10.788.594-20.636 5.3-23.606 28.607h46.114c.312-23.902-11.725-28.013-22.824-28.607h.314m265.284-4.175v-5.096h-35.955v-33.28L698.93 76.342h15.164v65.265c0 11.13 3.44 34.595 34.86 34.892 13.913 0 23.76-4.97 31.422-11.71 2.813-2.28 2.813-3.736 2.97-6 .156-1.957 0-4.24 0-8.07-19.854 11.194-36.893 4.16-36.893-17.554V76.343h25.48c5.003-.813 10.475-3.55 10.475-10.85"/><path d="M170.238 3.495H0v170.16h170.238V3.495zM107.552 164.01V13.124c32.515 9.63 56.277 39.957 56.277 75.396 0 35.564-23.764 65.75-56.28 75.49zM6.566 84.894C8.442 43.14 42.99 9.92 85.196 9.92c5.004 0 10.006.485 14.852 1.422 0 40.833-32.984 73.552-73.942 73.552H6.566zm19.54 7.347c40.958 0 73.942 32.658 73.942 73.568-4.846.923-9.848 1.407-14.85 1.407-42.21 0-76.756-33.22-78.632-74.973h19.54" fill-rule="evenodd"/></g></svg>