<svg xmlns="http://www.w3.org/2000/svg" version="1" width="240" height="120" viewBox="-3.2713125 -3.2713125 115.586385 55.586375"><path d="M98.118 13.155l-.18-.313c-.157-.274-.2-.317-.333-.365v-.008c.263-.03.42-.2.42-.435 0-.246-.157-.434-.49-.434h-.766v1.554h.31v-.637h.06c.137 0 .192.014.254.077.06.064.157.196.21.306l.126.255h.388zm-1.037-.884v-.424h.29c.21 0 .323.074.323.21 0 .11-.07.216-.286.216h-.325zm.35-1.07c.65 0 1.176.525 1.176 1.174 0 .648-.526 1.175-1.175 1.175-.65 0-1.17-.528-1.17-1.176 0-.65.52-1.173 1.17-1.173m0-.29c-.81 0-1.46.653-1.46 1.464 0 .808.65 1.46 1.46 1.46.81 0 1.46-.652 1.46-1.46 0-.81-.65-1.463-1.46-1.463m-66.836.197h4.664l5.267 23.29H36.18l-1.537-4.692H31.29c-.46 1.416-.822 3.223-1.13 4.69h-4.995l5.43-23.288zm1.612 13.977h1.683L32.88 21.7m55.814-10.593h4.663l5.347 23.29h-4.425l-1.54-4.692h-3.35c-.46 1.416-.823 3.223-1.132 4.69h-4.993l5.43-23.288zm1.613 13.977h1.68l-1.006-3.464M81.06 11.11v23.284h-4.67V11.11h4.67zm-11.832-.006H74.1v4.68h-4.79c-3.956.008-6.04 4.327-6.04 6.967 0 2.43 1.922 6.963 5.717 6.97h.326v-6.31h4.79V34.4h-5.197c-6.596.006-10.328-6.954-10.328-11.65 0-5.13 4.058-11.652 10.653-11.646m-17.646 0h4.793v4.68h-4.793c-3.793.008-6.04 4.337-6.04 6.927 0 2.48 2.034 7.003 5.797 7.01h.328v-6.31h4.71V34.4H51.26c-6.667.006-10.33-6.954-10.33-11.65 0-5.34 4.28-11.652 10.654-11.646m-32.39 0h4.832v4.68h-4.832c-4.058.008-5.96 4.528-5.96 7.008 0 2.378 1.932 6.92 5.717 6.925h.33V23.41h4.77v10.986h-5.18c-6.596.01-10.328-6.94-10.328-11.685 0-5.077 4.068-11.612 10.654-11.605"/></svg>