<svg xmlns="http://www.w3.org/2000/svg" version="1" width="1133.858" height="534.685"><g fill="red"><path d="M1020.248 304.255c-22.772 6.118 5.26-45.56 5.26-45.56l38.552-80.576-82.33 4.38c-101.606.88-139.26 56.045-139.26 56.045-39.45 47.312-64.852 51.676-64.852 51.676-23.637 3.51-7.856-19.25-7.856-19.25l44.643-80.598c7.89-13.133-2.63-10.503-2.63-10.503l-45.543 8.75c-11.35 1.75-4.36-4.366-4.36-4.366l45.542-56.94c11.386-14.887-7.89-7.014-7.89-7.014l-84.095 24.534-21.01 35.915c-21.04 26.265 5.26 17.516 5.26 17.516-103.854 115.204-105.69 83.88-105.69 83.88-20.763-7.547 43.433-101.99 43.433-101.99l-73.505 11.97c-39.66 84.982-85.827 73.582-85.827 73.582-35.056-4.385 20.143-83.21 20.143-83.21l-64.854 8.752C391.85 232.813 309.9 272.722 309.9 272.722l55.544-94.442-80.946 17.355-42.912 63.933c-21.04 31.55-34.19 49.05-34.19 49.05-7.857 6.138-42.014 35.914-42.014 35.914C129.462 374.327 39.24 487.31 39.24 487.31c-18.41 24.532 35.923 3.508 35.923 3.508l64.82-17.518c24.5-6.14 42.047-24.536 42.047-24.536l95.446-119.118c18.41-5.264 120.017-64.812 120.017-64.812-28.03 84.96 32.427 79.7 32.427 79.7 43.778 0 95.447-31.53 95.447-31.53 5.26 40.296 38.552 30.65 38.552 30.65 64.817-2.608 167.29-139.268 167.29-139.268l12.25-1.734-34.158 56.043c-53.433 90.22 6.126 86.715 6.126 86.715 49.07-.876 112.126-44.664 112.126-44.664 3.495 49.924 43.812 43.788 43.812 43.788 39.418 0 85.826-34.16 85.826-34.16 2.63 32.405 35.022 33.28 35.022 33.28 34.157 0 55.198-46.414 55.198-46.414l-5.26-2.634c-11.386 8.752-21.906 9.65-21.906 9.65zm-56.93-63.08c-12.25 23.66-44.677 39.422-44.677 39.422-58.657 11.38-19.274-35.915-19.274-35.915 15.78-15.763 37.687-23.636 37.687-23.636 49.904-14.03 26.267 20.13 26.267 20.13M355.446 48.496l61.324-12.28s14.88-5.24 4.36 12.28c0 0-22.77 55.162-65.684 62.177 0 0-41.183 11.382-30.662-19.27 0 0 14.016-36.79 30.662-42.908m703.908 272.932c0 10.766 8.755 19.515 19.553 19.515 10.763 0 19.518-8.75 19.518-19.515 0-10.77-8.755-19.54-19.518-19.54-10.798 0-19.553 8.77-19.553 19.54zm3.772 0c0-8.71 7.094-15.767 15.78-15.767 8.653 0 15.747 7.056 15.747 15.767 0 8.665-7.094 15.743-15.746 15.743-8.687 0-15.78-7.078-15.78-15.743"/><path d="M1070.463 310.19h9.413c1.523 0 2.803.242 3.807.734 1.903.958 2.872 2.73 2.872 5.3 0 1.348-.277 2.448-.76 3.306-.52.855-1.247 1.53-2.182 2.06.796.346 1.42.834 1.835 1.405.415.57.622 1.53.692 2.834l.103 3.04c.035.855.104 1.49.208 1.917.175.713.487 1.18.9 1.384v.493h-3.493c-.07-.204-.173-.45-.208-.755-.07-.31-.07-.9-.105-1.776l-.208-3.772c-.034-1.47-.553-2.468-1.453-2.96-.52-.283-1.315-.407-2.422-.407h-6.194v9.67h-2.803V310.19zm9.067 10.278c1.28 0 2.284-.287 3.01-.858.762-.57 1.108-1.592 1.108-3.06 0-1.61-.485-2.692-1.557-3.263-.517-.304-1.28-.446-2.213-.446h-6.61v7.63h6.264"/></g></svg>