<svg version="1" xmlns="http://www.w3.org/2000/svg" width="1000" height="694" viewBox="0 0 5000.000000 3471.000000"><g fill="#ae0917"><path d="M1904 1.1c-93.4 3.1-176.3 10-260.5 21.5-408.2 55.8-776.4 215-1061 458.8C517.9 536.8 448.4 606 394.4 669 203.2 891.9 76.9 1156.5 26.6 1439.5 8.8 1539.8.8 1631.4.9 1736c0 61.7 1.9 103.4 7.1 159.5 30 317.7 150.1 613.4 350.9 863.8 63.9 79.6 141.2 159.4 220.1 227.3 321.1 276.1 743.8 442.5 1212.5 477.4 96.1 7.1 80.2 7 708.5 7s612.4.1 708.5-7c450.6-33.6 857.4-188 1175.5-446.4 77.6-63.1 157.5-140.9 222.5-216.6 161-187.6 276.3-405.8 338.5-640.8 68.9-260.1 72.6-545 10.4-807.6-39.8-168.3-105.8-327.3-197.8-476.4-43.5-70.5-95.9-142-151.5-206.7-54.5-63.4-121.3-130.2-185.1-185.1C4099.9 208.3 3677.2 41.9 3208.5 7c-96.4-7.1-79.4-7-713.5-6.8-312.7 0-578.6.5-591 .9zM1313 1678v459h-143.6l-3.6-6.3c-2-3.4-9.2-15.9-16-27.7-6.9-11.8-17.7-30.5-24-41.5-12.4-21.5-41.4-71.7-155.3-269-40-69.3-83.1-144.1-95.9-166.2l-23.1-40.1-.3 275.4-.2 275.4H711v-776l77.7.2 77.7.3 12.1 21c6.7 11.5 21.3 36.7 32.5 56 11.2 19.2 74.3 127.9 140.2 241.5 66 113.6 120.3 206.9 120.9 207.4.5.6.9-111.9.9-300v-301.1l68.8-33.6c37.8-18.5 69.3-33.7 70-33.7.9 0 1.2 92.5 1.2 459zm1457-325.9c88.4 8.1 148.1 44.2 180.9 109.5 13.4 26.9 22 56.4 26.5 91.9 3.4 26.8 3.7 45.5 3.3 208.5-.4 172.9-.2 167.4-5.7 199.5-8.9 51.6-29.2 94.6-59 124.5-33.3 33.4-77.5 52.6-137.4 59.7-17.5 2.1-65.7 2.4-82.1.5-73.2-8.5-123.4-33.8-157.5-79.7-27.2-36.6-42.2-82.6-47-144.4-1.4-18.1-1.4-326.4 0-345.6 6.8-93.9 40.8-158 102.6-193.6 29.7-17.1 66.4-27.5 110.9-31.2 9.9-.9 54.1-.6 64.5.4zM1666 1749v388h-148v-776h148v388zm361.5-111c65.2 260.3 69.3 276.3 70.3 272.5.6-2.2 12.9-52.2 27.2-111 14.4-58.9 31.2-127.9 37.5-153.5 6.2-25.6 24.2-99.4 40-164 15.7-64.6 28.8-118.3 29.1-119.3.5-1.6 4.8-1.7 73-1.7 39.8 0 72.4.4 72.4.9 0 .7-20.9 83.1-42 165.6-3.8 14.8-19.5 76.7-35 137.5-25.4 99.5-49.2 193.2-102.5 402.2-9.6 37.7-17.5 68.9-17.5 69.2 0 .4-38.1.5-84.7.4l-84.6-.3-.8-2.5c-.4-1.4-10-38.7-21.3-83s-32.7-127.8-47.5-185.5c-14.8-57.8-39.2-152.7-54.1-211-14.9-58.3-37.9-148-51.1-199.3-13.1-51.3-23.9-93.5-23.9-93.8 0-.2 32.9-.3 73.2-.2l73.2.3 69.1 276.5zm1329.6-186c22.6 49.8 55.1 121.5 72.3 159.5 17.2 37.9 45.4 100.2 62.7 138.3l31.4 69.3.3-229.1.2-229 67.8.2 67.7.3.3 387.7.2 387.8h-142.6l-7.1-15.8c-6.4-14.2-31.2-68.5-86.2-188.7-10.8-23.7-45.5-99.6-77.1-168.7l-57.5-125.7-.3 249.5-.2 249.4h-135.5l.2-386.3c.1-212.4.2-387 .2-388 .1-1.6 4.4-1.7 81.1-1.5l81.1.3 41 90.5zm796.9-90.5c0 .5 13 54.7 36.5 152 14.9 61.7 99.5 412.8 126.6 525.5 12.6 52.5 23.2 96.1 23.4 96.7.3 1-14.3 1.3-70.9 1.3h-71.3l-1.1-5.3c-1.3-6.2-35.1-153.4-35.8-156-.5-1.6-6.3-1.7-102.8-1.7h-102.3l-1.1 3.7c-.6 2.1-9.7 37.5-20.2 78.8-10.5 41.2-19.5 76.1-19.9 77.5l-.8 2.5-71.7.3c-68 .2-71.7.1-71.2-1.5.5-1.8 8.6-34.4 99.1-399.3 85.7-345.5 92.6-373.3 93.1-374.2.6-.9 190.4-1.2 190.4-.3z"/><path d="M2715.5 1483.2c-20.2 2.2-37.7 9.7-49.4 21.1-15.9 15.5-23.8 37.8-26.1 73.3-1.3 20.9-1.3 324.7 0 344.4 2.1 31.6 8.5 51.5 21.5 67.3 6 7.2 15.2 14.3 23.8 18.2 26 11.9 75.9 11.8 101.9-.3 21.1-9.8 35.3-29.9 41.2-58.4 3.6-17.3 3.7-24.8 3.3-206.8-.4-194.8 0-181.8-5.7-201.8-9.7-34.2-32.9-52.8-71.4-57.1-11-1.3-27.6-1.2-39.1.1zm1303.8 204c-19.9 85.4-36 155.4-35.9 155.5.2.2 33.1.2 73.3.1l73-.3-15.2-64.5c-8.4-35.5-24.6-104.1-36-152.5-11.5-48.4-21-89.2-21.3-90.8-.2-1.5-.7-2.7-1.1-2.7-.3 0-16.9 69.9-36.8 155.2z"/></g></svg>