<svg xmlns="http://www.w3.org/2000/svg" version="1" width="985.472" height="492.742"><path d="M0 0v492.742h985.472V0H0z" fill="#008347"/><path d="M925.344 338.406c-6.748 0-12.375 5.238-12.375 12.094 0 6.89 5.625 12.094 12.373 12.094 6.725 0 12.375-5.204 12.375-12.094 0-6.856-5.65-12.094-12.376-12.094zm-663.72.875c-21.112.12-29.787 8.428-29.905 28.72v46.97c0 20.48 9.63 30.068 30.28 30.187h100.593c21.78 0 30.25-8.267 30.25-29.5v-47.47c0-19.457-10-28.905-30.625-28.905H261.624zm516.782.158v105.688H937.25v-22.938H809.812v-82.75h-31.406zm-729.843.032v105.655h31.5V411.22h70.093l24.563 33.905h34.25l-24.158-34.063-.657-.968 1.094-.344c.25-.084 24.28-8.134 24.28-35.53 0-20.45-14.907-34.75-36.28-34.75H48.56zm363.593 0v23.186h68.28l.002.875-.032 81.627h31.375v-82.5h63.596V339.47h-163.22zm185.375.155v105.5h158.784V422.47h-127.44v-19.94h100.97l.03-20.78h-102v-19.5H756.25v-22.625H597.53zm327.815.562c5.666 0 10.187 4.493 10.187 10.313 0 5.855-4.52 10.344-10.186 10.344-5.688 0-10.188-4.49-10.188-10.344 0-5.82 4.5-10.313 10.188-10.313zm-4.75 3.25v14.125h2.187v-6.093h2.376l3.938 6.09h2.375l-4.157-6.25c2.167-.225 3.813-1.295 3.813-3.842 0-2.68-1.622-4.033-5.063-4.033h-5.468zm2.187 1.782h2.908c1.5 0 3.25.225 3.25 2.154 0 2.25-1.9 2.344-3.875 2.344h-2.282v-4.5zm-842.75 15.5H161c8.5 0 16.813 4.03 16.813 13.623C177.813 383.95 169.5 388 161 388H80.03v-27.28zm195.657 1.466h72c12.472.072 13.666 2.992 13.75 16.594v28.782c0 12.914-3.7 15.22-14.126 15.22H274.94c-11.853-.072-11.878-7.223-11.938-17.126V378.28c.19-11.89 1.274-16.034 12.688-16.093z" fill="#fff"/></svg>