<svg xmlns="http://www.w3.org/2000/svg" version="1" width="1024" height="211" viewBox="-0.551475 -0.551475 94.705451 19.48545"><path d="M88.08 11.2c0 1.78-1.11 2.66-2.245 2.66-1.11 0-2.22-.88-2.22-2.66 0-1.73 1.084-2.684 2.22-2.684 1.16 0 2.245.955 2.245 2.684zm5.523-.05c0-3.305-2.71-7.15-7.743-7.15-5.11 0-7.767 3.95-7.767 7.174 0 3.277 2.683 7.2 7.742 7.2 5.058 0 7.768-3.896 7.768-7.225" fill="#d71921" fill-rule="evenodd"/><path d="M77.608 9.34l-.003-4.365c-1.1-.606-2.444-.975-4-.975-5.11 0-7.767 3.947-7.767 7.174 0 3.277 2.683 7.2 7.742 7.2 1.573 0 2.918-.378 4.025-.996V13.01s-1.97.784-3.11.784c-2.1 0-3.134-1.308-3.134-2.644 0-1.308 1.035-2.615 3.13-2.615 1.17 0 3.12.805 3.12.805M3.85 16.676l.195.133c1.47.99 3.24 1.572 5.145 1.572 5.076 0 9.19-4.114 9.19-9.19 0-2.734-1.194-5.19-3.087-6.872L3.503 8.585v3.094L15.1 5.53c.66 1.065 1.042 2.32 1.042 3.663 0 3.838-3.113 6.95-6.95 6.95-1.08 0-2.1-.247-3.012-.686l-2.33 1.22" fill="#d71921"/><path d="M12.182 2.92c-.906-.434-1.92-.676-2.993-.676-3.84 0-6.95 3.11-6.95 6.95 0 1.34.38 2.59 1.034 3.65l-.006.008 11.675-6.195-.005 3.094L3.08 16.06C1.19 14.375 0 11.922 0 9.193 0 4.118 4.114.003 9.19.003c1.9 0 3.666.577 5.133 1.567l.197.134-2.338 1.216m11.76 14.236c.726.39 2.252 1.216 5.487 1.216 6.34 0 6.855-4.45 6.855-5.33 0-2.82-2.432-4.218-3.752-4.968-1.63-.93-2.665-1.502-2.665-2.38 0-.493.44-1.14 1.474-1.14 1.552 0 3.21 1.37 4.166 2.277V2.046C34.396 1.01 32.508 0 30.18 0c-3.572 0-6.16 2.147-6.16 5.564 0 .75 0 2.846 2.9 4.58 2.3 1.37 3.05 1.81 3.05 2.56 0 .364-.282 1.115-1.887 1.115-1.5 0-2.898-.624-4.14-1.477v4.812M58.51 7.68c.966 0 1.867.793 1.867 2.23H56.67c0-1.438.898-2.23 1.84-2.23zm6.652 4.51c.314-4.802-3.177-8.124-6.783-8.124-4.077 0-7.114 3.037-7.114 7.026 0 4.075 3.122 7.282 7.824 7.282 2.666 0 4.405-.4 5.944-1.154l.028-3.49c-1.567.782-3.548 1.196-4.96 1.196-2.108 0-3.533-1.326-3.433-2.737h8.49M45.36 13.36c-.072 1.325-.904 1.988-1.974 1.988-.856 0-1.474-.59-1.474-1.178 0-.857.546-1.127 1.593-1.373.642-.147 1.283-.318 1.855-.613v1.177zm5.842.97c-.68-.095-.935-.38-.916-1.884l-.003-3.122c0-4.07-3.677-5.326-6.25-5.326-1.26 0-4.67.322-5.91 2.497-.456.805-.64 1.334-.68 2.276h4.368c.314-.92 1.06-1.416 1.838-1.416.66 0 1.29.343 1.674.992.06.104.09.216.09.336 0 .853-.56 1.02-1.236 1.15-2.528.49-7.295.335-7.295 4.57 0 2.58 2.036 3.974 4.54 3.974 1.6 0 3.013-.285 4.064-1.524l.115.15c.465.44 1.28 1.115 3.85 1.115h1.75V14.33" fill="#d71921"/></svg>