<svg xmlns="http://www.w3.org/2000/svg" width="2500" height="2500" viewBox="0 0 192.756 192.756"><g fill-rule="evenodd" clip-rule="evenodd"><path fill="#fff" d="M0 0h192.756v192.756H0V0z"/><path d="M31.078 82.445c6.478-.692 13.444 5.003 15.51 12.68 1.178 4.376.513 8.472-1.475 11.316l-.885-.31c-2.01-.7-3.993-1.394-5.266-2.86-1.74-2.004-2.7-4.746-3.656-7.484-.723-2.066-1.446-4.132-2.516-6.004v-.004c-.962-1.685-2.265-3.134-3.556-4.57a63.347 63.347 0 0 1-1.52-1.738 9.15 9.15 0 0 1 3.364-1.023zm11.976 26.137c-1.257.94-2.766 1.55-4.477 1.734-6.48.69-13.445-5.006-15.51-12.682-1.36-5.047-.267-9.728 2.483-12.537a57.386 57.386 0 0 0 1.672 1.918c1.19 1.326 2.394 2.664 3.217 4.104v-.008c.952 1.67 1.633 3.614 2.312 5.56 1.044 2.983 2.09 5.972 4.164 8.362 1.677 1.934 3.88 2.756 6.137 3.547z" fill="#58322f"/><path fill="#685c65" d="M166.812 97.037h6.59v14.494h-6.59V97.04zM137.56 86.76h16.602v6.587h-10.014v3.69h10.014v5.272h-10.014v2.896h10.014v6.588H137.56V86.76zm-23.456 10.277h6.59v8.383h1.754c2.928 0 6.695-1.822 6.66-5.842-.035-4.02-3.16-6.495-6.137-6.495h-9.12v-6.325h9.35c6.4 0 12.57 6.255 12.536 12.41-.033 6.155-4.418 12.362-15.04 12.362h-6.59V97.037zm-9.487-10.278h6.588v6.322h-6.588V86.76zm0 10.276h6.588v14.494h-6.588V97.038zM84.44 86.76h9.33c3.59 0 7.554 4.09 7.554 7.68 0 3.816-3.736 8.607-7.553 8.607h-2.857v8.484h-6.588V96.965h.116v-.006h9.11c1.01 0 1.913-.896 1.917-1.99.004-1.096-.896-1.883-2.37-1.878l-8.62.03-.036-6.36zm-4.646.003H69.477c-1.796 0-6.848 3.024 3.916 12.313 2.303 1.988.648 5.975-1.36 5.975h-7.23v6.777h8.964c4.783 0 8.607-4.943 8.812-8.836.233-4.483-4.36-7.31-6.394-9.34-.895-.895-.383-.903 0-.903h3.722l-.116-5.983zm-31.058 4.613a50.796 50.796 0 0 1 2.172 5c6.43 17.348.44 31.494-13.33 31.494-9.868 0-21.12-7.264-29.074-17.762l13.69-4.494c1.625 2.363 3.62 4.39 5.815 5.94a19.83 19.83 0 0 0 3.615 2.046c1.53.66 3.16 1.117 4.82 1.28 1.238.12 2.49.087 3.718-.132 7.673-1.365 11.99-9.44 10.05-18.73-.34-1.64-.935-3.197-1.478-4.642zM37.582 79.438l.257.124-.26-.124zm.84.425l.25.136c-.084-.048-.166-.094-.25-.138zm1.776 1.075l.213.145a15.93 15.93 0 0 0-.21-.145zm.49.34l.204.15a9.706 9.706 0 0 0-.205-.15zm1.08.827l.206.17a16.714 16.714 0 0 0-.205-.17z"/><path d="M31.627 64.885c10.048 0 21.535 7.533 29.51 18.344l-14.242 4.673a24.53 24.53 0 0 0-4.255-5.052c-1.823-1.642-3.918-3.012-6.205-3.912-1.77-.698-3.654-1.112-5.56-1.13-2.583-.025-5.12.693-7.24 2.185-3.157 2.222-4.97 5.863-5.524 9.628v.02c-.31 2.11-.26 4.396.2 6.764v.01l-.013-.036c-6.43-17.348-.44-31.495 13.33-31.495zM156.535 86.76H176.3v.018h.36c4.97 0 7.55 3.46 7.592 9.09h-.045v15.663h-6.588V95.72h.016c-.004-1.182-.477-2.1-1.69-2.1l-8.622-.005v-.005h-4.2v17.92h-6.59V86.76z" fill="#685c65"/></g></svg>