<svg width="41" height="44" viewBox="0 0 41 44" xmlns="http://www.w3.org/2000/svg"><title>calendar</title><g fill="#6E513B"><path d="M40.268 2.933h-5.125v-2.2c0-.405-.327-.733-.732-.733h-5.123c-.405 0-.732.328-.732.733v2.2h-16.11v-2.2c0-.405-.326-.733-.73-.733H6.59c-.406 0-.733.328-.733.733v2.2H.732c-.405 0-.732.328-.732.734v39.6c0 .405.327.733.732.733h39.536c.405 0 .732-.328.732-.733v-39.6c0-.406-.327-.734-.732-.734zm-10.25-1.466h3.66v4.4h-3.66v-4.4zm-22.697 0h3.663v4.4h-3.66v-4.4zM1.466 4.4h4.393v2.2c0 .406.327.733.732.733h5.124c.405 0 .732-.327.732-.733V4.4h16.108v2.2c0 .406.327.733.732.733h5.125c.407 0 .734-.327.734-.733V4.4h4.393V11H1.464V4.4zm0 38.133V12.467h38.072v30.066H1.464z"/><path d="M26.357 16.867H6.59v21.266h27.82V16.867h-8.053zm-5.125 1.466h5.125v5.134h-5.125v-5.134zm5.125 11.734h-5.125v-5.134h5.125v5.134zm-11.714-5.134h5.125v5.134h-5.125v-5.134zm0-6.6h5.125v5.134h-5.125v-5.134zm-6.59 0h5.126v5.134H8.052v-5.134zm0 6.6h5.126v5.134H8.052v-5.134zm5.126 11.734H8.052v-5.134h5.125v5.134zm6.587 0h-5.125v-5.134h5.125v5.134zm6.59 0H21.23v-5.134h5.125v5.134zm6.588 0H27.82v-5.134h5.126v5.134zm0-6.6H27.82v-5.134h5.126v5.134zm0-11.734v5.134H27.82v-5.134h5.126z"/></g></svg>