<svg width="59" height="39" viewBox="0 0 59 39" xmlns="http://www.w3.org/2000/svg"><title>tea-cup</title><g fill="#81644D"><path d="M10.984 25.374h5.1c3.984 3.947 9.29 6.115 14.985 6.115 11.592 0 21.025-9.19 21.025-20.485V1.223c0-.506-.422-.917-.942-.917h-40.17c-.52 0-.942.41-.942.917v2.79c-2.58.212-4.973 1.292-6.824 3.095C1.143 9.128 0 11.816 0 14.674c0 2.858 1.143 5.545 3.217 7.566 2.075 2.02 4.833 3.134 7.767 3.134zM4.55 8.404C6.266 6.732 8.552 5.81 10.983 5.81c.52 0 .94-.412.94-.918V2.14h38.29v8.866c0 10.283-8.59 18.648-19.145 18.648-5.31 0-10.248-2.07-13.902-5.827-.178-.183-.425-.287-.684-.287h-5.5c-2.43 0-4.716-.922-6.435-2.597-1.72-1.674-2.667-3.9-2.667-6.27 0-2.367.947-4.593 2.666-6.268z"/><path d="M10.984 21.706h2.688c.336 0 .647-.175.815-.46.168-.283.168-.633 0-.917-1.676-2.823-2.562-6.047-2.562-9.325V8.56c0-.506-.42-.917-.94-.917-1.93 0-3.742.73-5.105 2.06-1.363 1.327-2.114 3.093-2.114 4.97 0 1.88.75 3.645 2.114 4.973 1.363 1.328 3.176 2.06 5.104 2.06zM7.212 11c.78-.762 1.764-1.26 2.83-1.443v1.45c0 3.077.712 6.11 2.068 8.865h-1.126c-1.425 0-2.765-.54-3.772-1.523-1.008-.983-1.563-2.29-1.563-3.677 0-1.388.553-2.693 1.56-3.675zM31.07 27.82c3.927 0 7.63-1.258 10.71-3.638.407-.315.475-.892.152-1.288-.323-.397-.915-.464-1.323-.15-2.744 2.12-6.044 3.242-9.54 3.242-8.48 0-15.38-6.72-15.38-14.98v-5.16c1.232.1 1.954.403 2.766.744 1.04.436 2.218.93 4.452.93 2.233 0 3.412-.494 4.45-.93 1-.42 1.863-.78 3.708-.78 1.846 0 2.71.36 3.708.78 1.04.436 2.218.93 4.452.93s3.413-.494 4.453-.93c.81-.34 1.533-.643 2.766-.745v5.16c0 3.41-1.15 6.623-3.327 9.295-.324.396-.256.973.15 1.288.408.315 1 .248 1.324-.148 2.443-3 3.735-6.608 3.735-10.434V4.892c0-.244-.1-.477-.277-.65-.177-.17-.416-.267-.666-.267-2.234 0-3.413.494-4.452.93-1 .42-1.862.782-3.708.782s-2.708-.362-3.707-.782c-1.04-.436-2.218-.93-4.452-.93s-3.412.494-4.452.93c-1 .42-1.86.782-3.707.782-1.848 0-2.71-.362-3.71-.782-1.04-.436-2.217-.93-4.45-.93-.52 0-.943.41-.943.917v6.114c0 9.27 7.743 16.814 17.26 16.814zm26.99 5.056H4.08c-.52 0-.942.41-.942.918 0 .506.422.917.942.917h.545l.543 1.853c.4 1.362 1.85 2.43 3.305 2.43h45.192c1.454 0 2.906-1.068 3.306-2.43l.544-1.85h.546c.52 0 .94-.412.94-.918 0-.507-.42-.918-.94-.918zm-2.9 3.182c-.17.575-.88 1.098-1.495 1.098H8.473c-.613 0-1.326-.523-1.495-1.098l-.395-1.347h48.972l-.395 1.35z"/></g></svg>