<svg width="70" height="73" viewBox="0 0 70 73" xmlns="http://www.w3.org/2000/svg"><title>two-coffe-beans</title><path d="M20.83 72.944c-9.853 0-18.645-9.598-20.452-22.325-1.944-13.7 5-26.038 15.478-27.506.686-.096 1.384-.145 2.076-.145 9.854 0 18.646 9.597 20.453 22.324.933 6.58-.128 13.05-2.99 18.217-2.917 5.27-7.352 8.57-12.488 9.288-.686.095-1.384.144-2.076.144zM17.933 25.13c-.59 0-1.187.042-1.772.124C6.87 26.554.755 37.8 2.53 50.317c.81 5.698 3.163 10.928 6.627 14.728 3.375 3.7 7.52 5.74 11.674 5.74.59 0 1.19-.043 1.774-.125 4.442-.622 8.308-3.53 10.888-8.19 2.637-4.76 3.61-10.754 2.742-16.874-.81-5.697-3.162-10.928-6.627-14.727-3.374-3.703-7.52-5.74-11.673-5.74zm4.534 43.466c-.235 0-.47-.076-.668-.228-.436-.337-.548-.943-.263-1.41.012-.022 1.794-3.222.247-10.492-.74-3.47-2.257-5.088-3.865-6.8-1.9-2.025-3.865-4.117-4.554-8.972-.89-6.26 3.353-12.397 3.534-12.655.284-.41.81-.57 1.277-.394.466.177.752.646.693 1.138-.252 2.094-.6 8.096.793 10.692 1.29 2.405 2.762 4.013 4.184 5.568 2.146 2.345 4.172 4.56 4.838 8.834C29.873 61.5 23.51 68 23.24 68.273c-.212.213-.492.322-.774.322zm-6-34.938c-.73 1.968-1.283 4.374-.948 6.735.592 4.18 2.242 5.938 3.99 7.8 1.74 1.853 3.537 3.77 4.4 7.826.59 2.765.734 5.02.663 6.797 1.31-2.303 2.467-5.385 1.965-8.608-.566-3.633-2.213-5.434-4.3-7.713-1.44-1.576-3.074-3.362-4.492-6.004-.945-1.76-1.237-4.45-1.278-6.836zm35.81 6.365c-.898 0-1.796-.1-2.67-.295-4.1-.922-7.46-3.875-9.458-8.316-1.95-4.334-2.373-9.59-1.186-14.802C41.154 6.986 48.284 0 55.918 0c.897 0 1.795.1 2.668.296 4.1.922 7.46 3.875 9.46 8.315 1.95 4.336 2.37 9.593 1.184 14.804-2.192 9.625-9.322 16.61-16.954 16.61zm3.64-37.863c-3.115 0-6.316 1.46-9.013 4.108-2.79 2.74-4.856 6.582-5.82 10.82C40 21.844 40.37 26.62 42.13 30.53c1.713 3.805 4.538 6.323 7.955 7.09.716.162 1.452.243 2.188.243 3.117 0 6.317-1.458 9.014-4.108 2.788-2.74 4.855-6.582 5.82-10.82 1.083-4.757.71-9.532-1.05-13.442-1.712-3.805-4.537-6.323-7.954-7.09-.716-.162-1.452-.243-2.188-.243zM50.83 36.533c-.368 0-.726-.187-.928-.52-.287-.466-.176-1.073.258-1.41.01-.01 2.188-1.864 3.087-7.61.428-2.733-.232-4.337-.93-6.036-.814-1.976-1.736-4.217-.853-8.095 1.138-5 6.114-8.427 6.325-8.57.41-.28.96-.246 1.333.083.373.33.473.87.242 1.308-.775 1.473-2.72 5.792-2.428 8.062.274 2.126.908 3.725 1.52 5.27.944 2.383 1.836 4.632 1.102 8.07-1.307 6.118-7.995 9.22-8.28 9.35-.145.066-.3.098-.45.098zm4.552-26.89c-.79 1.066-1.485 2.32-1.798 3.695-.732 3.215-.048 4.877.744 6.802.744 1.81 1.587 3.86 1.067 7.185-.28 1.79-.675 3.256-1.107 4.443 1.375-1.282 2.69-3.005 3.145-5.133.6-2.8-.106-4.578-.998-6.828-.63-1.59-1.345-3.395-1.654-5.79-.164-1.286.144-2.873.603-4.375z" fill="#5B3D28"/></svg>