<svg width="47" height="47" viewBox="0 0 47 47" xmlns="http://www.w3.org/2000/svg"><title>coffee-machine (1)</title><g fill="#5A3E28"><path d="M38.25 12c2.48 0 4.5-2.02 4.5-4.5S40.73 3 38.25 3s-4.5 2.02-4.5 4.5 2.02 4.5 4.5 4.5zm0-7.5c1.654 0 3 1.346 3 3s-1.346 3-3 3c-1.395 0-2.57-.957-2.905-2.25H39c.414 0 .75-.336.75-.75s-.336-.75-.75-.75h-3.655c.334-1.293 1.51-2.25 2.905-2.25zm-24.914 25c1.055 2.355 3.42 4 6.164 4 3.722 0 6.75-3.028 6.75-6.75v-2.5c0-.414-.336-.75-.75-.75H10.587c-.267 0-.515.143-.65.374-.327.568-.5 1.217-.5 1.876 0 2.068 1.68 3.75 3.75 3.75h.15zm.914-4.5h10.5v1.75c0 2.895-2.355 5.25-5.25 5.25s-5.25-2.355-5.25-5.25V25zm-3.314.75c0-.257.044-.51.128-.75h1.686v1.75c0 .42.038.83.112 1.227-1.088-.158-1.926-1.096-1.926-2.227zM14.25 45.5h-4c-.414 0-.75.336-.75.75s.336.75.75.75h4c.414 0 .75-.336.75-.75s-.336-.75-.75-.75zm30.5 0h-4c-.414 0-.75.336-.75.75s.336.75.75.75h4c.414 0 .75-.336.75-.75s-.336-.75-.75-.75z"/><path d="M46.25 0H8.75C8.336 0 8 .336 8 .75v7.5C8 10.318 9.682 12 11.75 12H14v3h-1.5v-.75c0-.394-.306-.72-.7-.748l-11-.75c-.206-.015-.41.058-.562.2-.152.142-.238.34-.238.548V18c0 .208.086.406.238.548.14.13.323.202.512.202.017 0 .034 0 .05-.002l11-.75c.394-.027.7-.354.7-.748v-.75h1.63c.31.873 1.142 1.5 2.12 1.5h2.5v1.25c0 .414.336.75.75.75s.75-.336.75-.75V18h2.5c1.24 0 2.25-1.01 2.25-2.25V12h4.5v23H11.75C9.682 35 8 36.682 8 38.75v4.5c0 .414.336.75.75.75h37.5c.414 0 .75-.336.75-.75V.75c0-.414-.336-.75-.75-.75zM11 16.55l-9.5.647v-2.894l9.5.648v1.6zm12.5-.8c0 .414-.336.75-.75.75h-6.5c-.414 0-.75-.336-.75-.75V12h8v3.75zm22 26.75h-36v-3.75c0-1.24 1.01-2.25 2.25-2.25H29.5v3.75c0 .414.336.75.75.75s.75-.336.75-.75v-29c0-.414-.336-.75-.75-.75h-18.5c-1.24 0-2.25-1.01-2.25-2.25V1.5h36v41z"/><ellipse cx="35.25" cy="35.75" rx="1" ry="1"/><ellipse cx="35.25" cy="31.25" rx="1" ry="1"/><ellipse cx="35.25" cy="26.75" rx="1" ry="1"/></g></svg>