<svg width="42" height="28" viewBox="0 0 42 28" xmlns="http://www.w3.org/2000/svg"><title>tea-cup</title><g fill="#DBCAA3"><path d="M7.82 18.217h3.63c2.835 2.834 6.612 4.39 10.667 4.39 8.253 0 14.968-6.597 14.968-14.705V.878c0-.364-.3-.658-.67-.658H7.82c-.37 0-.67.294-.67.658V2.88c-1.837.153-3.542.93-4.86 2.223C.813 6.553 0 8.483 0 10.536c0 2.05.813 3.98 2.29 5.43 1.477 1.452 3.44 2.25 5.53 2.25zM3.237 6.035C4.46 4.832 6.087 4.17 7.817 4.17c.37 0 .67-.294.67-.658V1.537h27.258v6.365c0 7.382-6.114 13.388-13.628 13.388-3.78 0-7.295-1.486-9.896-4.184-.124-.13-.3-.205-.484-.205H7.82c-1.73 0-3.358-.66-4.582-1.863-1.224-1.202-1.898-2.8-1.898-4.5 0-1.7.674-3.3 1.898-4.5z"/><path d="M7.82 15.584h1.91c.24 0 .46-.126.58-.33.12-.204.12-.455 0-.66-1.19-2.024-1.82-4.34-1.82-6.69V6.145c0-.364-.3-.66-.67-.66-1.373 0-2.664.526-3.634 1.48-.97.953-1.505 2.22-1.505 3.57 0 1.348.536 2.616 1.507 3.57.97.952 2.26 1.478 3.633 1.478zM5.133 7.897C5.69 7.35 6.39 6.994 7.15 6.862v1.04c0 2.21.505 4.388 1.47 6.365h-.8c-1.015 0-1.97-.388-2.686-1.093-.718-.705-1.113-1.642-1.113-2.638 0-.997.397-1.934 1.115-2.64zm16.984 12.076c2.796 0 5.433-.903 7.625-2.612.29-.224.338-.64.108-.923-.23-.284-.652-.332-.942-.106-1.952 1.523-4.3 2.327-6.79 2.327-6.037 0-10.948-4.824-10.948-10.754V4.196c.877.073 1.39.29 1.97.535.74.316 1.578.67 3.168.67s2.43-.354 3.17-.67c.71-.3 1.325-.56 2.638-.56 1.314 0 1.93.26 2.64.56.74.316 1.58.67 3.17.67 1.59 0 2.428-.354 3.17-.67.577-.242 1.09-.46 1.968-.533v3.706c0 2.447-.82 4.754-2.368 6.672-.23.285-.182.7.108.925.29.225.71.177.942-.107 1.74-2.154 2.658-4.744 2.658-7.49v-4.39c0-.176-.07-.343-.196-.467-.126-.123-.296-.192-.474-.192-1.59 0-2.43.355-3.17.668-.71.3-1.325.56-2.64.56-1.313 0-1.927-.26-2.638-.56-.74-.313-1.58-.668-3.17-.668-1.59 0-2.43.355-3.17.668-.71.3-1.324.56-2.638.56-1.314 0-1.928-.26-2.64-.56-.74-.313-1.578-.668-3.168-.668-.37 0-.67.294-.67.658v4.39c0 6.656 5.512 12.07 12.287 12.07zm19.213 3.63H2.904c-.37 0-.67.295-.67.66 0 .363.3.66.67.66h.388l.387 1.327c.282.977 1.316 1.743 2.35 1.743H38.2c1.036 0 2.07-.766 2.354-1.743l.387-1.33h.39c.37 0 .67-.294.67-.658 0-.364-.3-.658-.67-.658zm-2.064 2.285c-.12.412-.627.788-1.064.788H6.032c-.437 0-.944-.376-1.064-.788l-.282-.968h34.862l-.282.968z"/></g></svg>