<svg width="59" height="47" viewBox="0 0 59 47" xmlns="http://www.w3.org/2000/svg"><title>truck</title><g fill="#5B3D28"><path d="M58.1 16.368L49.56 7c-.685-.683-1.57-1.073-2.452-1.073h-9.814v-2.05c0-2.146-1.67-3.805-3.73-3.805H3.828C1.668.072 0 1.732 0 3.877V37.64c0 1.855 1.57 3.417 3.435 3.417h1.54c.47 3.334 3.308 5.855 6.802 5.855 3.494 0 6.332-2.52 6.8-5.855H40.31c.47 3.334 3.307 5.855 6.8 5.855 3.495 0 6.333-2.52 6.802-5.855h5.07V18.612c0-.878-.294-1.658-.883-2.244zm-1.57 1.27c.294.194.392.584.392.877v3.025h-14.72v-9.758h8.93l5.398 5.855zM1.963 20.563h13.74c.59 0 .98-.39.98-.976 0-.585-.39-.975-.98-.975H1.963v-2.928h9.814c.59 0 .98-.39.98-.976s-.39-.977-.98-.977H1.963V3.878c0-1.073.785-1.854 1.865-1.854h29.638c1.08 0 1.865.88 1.865 1.854v23.518H1.965v-6.83zm9.814 24.396c-2.748 0-4.907-2.148-4.907-4.88 0-2.733 2.16-4.88 4.907-4.88 2.748 0 4.907 2.147 4.907 4.88 0 2.73-2.16 4.88-4.907 4.88zm23.554-5.856H18.58c-.44-3.126-2.963-5.537-6.157-5.825l-.07-.006c-.08-.007-.16-.013-.24-.017-.11-.005-.222-.008-.333-.008-.11 0-.222.002-.332.007-.08.004-.162.01-.242.017l-.07.005c-3.194.287-5.717 2.7-6.157 5.824H3.44c-.787 0-1.474-.683-1.474-1.464v-8.293H35.33v9.758zm11.78 5.856c-2.748 0-4.907-2.147-4.907-4.88 0-2.732 2.16-4.878 4.908-4.878s4.908 2.146 4.908 4.88c0 2.73-2.16 4.878-4.907 4.878zm6.8-5.855c-.44-3.126-2.962-5.537-6.156-5.825l-.07-.005c-.08-.007-.16-.013-.242-.017-.11-.005-.22-.008-.332-.008-.11 0-.222.003-.332.008-.08.004-.162.01-.242.017l-.07.005c-3.194.288-5.717 2.7-6.157 5.825h-3.014V7.878h9.814c.294 0 .687.195.98.39l1.408 1.562h-7.59c-.883 0-1.668.78-1.668 1.66v10.343c0 .878.785 1.66 1.668 1.66h15.016v4.878h-4.907c-.59 0-.98.39-.98.978 0 .585.39.975.98.975h4.907v8.783H53.91z"/><path d="M11.777 38.13c-1.08 0-1.963.877-1.963 1.95 0 1.074.883 1.953 1.963 1.953s1.963-.88 1.963-1.952-.883-1.95-1.963-1.95zm35.33 0c-1.08 0-1.962.877-1.962 1.95 0 1.074.883 1.953 1.963 1.953s1.963-.88 1.963-1.952-.88-1.95-1.96-1.95z"/></g></svg>