<svg width="58" height="54" viewBox="0 0 58 54" xmlns="http://www.w3.org/2000/svg"><title>annual</title><g fill="#5B3D28"><path d="M1.775 43.24V8.27h12.05V.093H8.32v6.4H0V45.02h35.806v-1.78H1.776zm8.322-41.37h1.953v4.623h-1.953V1.87z"/><path d="M40.8 6.493v-6.4h-5.503v6.4h-18.81V8.27h30.86v5.335H4.44v1.778h44.68v-8.89H40.8zm-1.774 0h-1.953V1.87h1.953v4.623zm10.096 27.9V18.05h-1.775v16.342c-4.97.45-8.877 4.644-8.877 9.737 0 5.39 4.38 9.777 9.765 9.777 5.384 0 9.765-4.387 9.765-9.78 0-5.092-3.908-9.286-8.878-9.736zm-.887 17.737c-4.406 0-7.99-3.59-7.99-8 0-4.413 3.584-8.003 7.99-8.003 4.405 0 7.99 3.59 7.99 8.002 0 4.41-3.585 8-7.99 8z"/><path d="M49.122 43.24v-4.445h-1.775v6.223h6.214V43.24M17.756 18.347v5.334h5.326V18.35h-5.324zm3.55 3.556H19.53v-1.778h1.776v1.778zm4.735-3.556v5.334h5.327V18.35H26.04zm3.552 3.556h-1.776v-1.778h1.776v1.778zm4.734-3.556v5.334h5.327V18.35h-5.327zm3.55 3.556h-1.774v-1.778h1.775v1.778zM9.47 26.643v5.336h5.326v-5.337H9.47zm3.55 3.558h-1.775v-1.777h1.775v1.78zm4.735-3.556v5.335h5.326v-5.337h-5.324zm3.55 3.557H19.53v-1.777h1.776v1.78zm4.735-3.556v5.335h5.327v-5.337H26.04zm3.552 3.557h-1.776v-1.777h1.776v1.78zm4.734-3.556v5.335h5.327v-5.337h-5.327zm3.55 3.557h-1.774v-1.777h1.775v1.78zM9.47 34.943v5.334h5.326v-5.334H9.47zm3.55 3.556h-1.775V36.72h1.775v1.778zm4.735-3.556v5.334h5.326v-5.334h-5.324zm3.55 3.556H19.53V36.72h1.776v1.778zm4.735-3.556v5.334h5.327v-5.334H26.04zm3.552 3.556h-1.776V36.72h1.776v1.778z"/></g></svg>