<svg width="62" height="57" viewBox="0 0 62 57" xmlns="http://www.w3.org/2000/svg"><title>shopping-cart</title><g fill="#5B3D28"><path d="M25.997 46.157c-3.007 0-5.453 2.43-5.453 5.414 0 2.988 2.446 5.417 5.453 5.417s5.453-2.43 5.453-5.415c0-2.984-2.446-5.413-5.453-5.413zm0 7.806c-1.328 0-2.408-1.073-2.408-2.392 0-1.317 1.08-2.39 2.406-2.39 1.328 0 2.408 1.074 2.408 2.39 0 1.32-1.08 2.394-2.408 2.394zm19.126-7.806c-3.006 0-5.453 2.43-5.453 5.414 0 2.988 2.447 5.417 5.453 5.417 3.007 0 5.453-2.43 5.453-5.415 0-2.984-2.446-5.413-5.453-5.413zm0 7.806c-1.328 0-2.408-1.073-2.408-2.392 0-1.317 1.08-2.39 2.408-2.39 1.328 0 2.408 1.074 2.408 2.39 0 1.32-1.08 2.394-2.406 2.394zm1.343-36.315H24.65c-.84 0-1.522.677-1.522 1.51 0 .836.682 1.513 1.523 1.513h21.817c.84 0 1.522-.675 1.522-1.51s-.683-1.51-1.523-1.51zm-1.188 7.85h-19.44c-.84 0-1.522.677-1.522 1.512 0 .834.68 1.51 1.522 1.51h19.44c.84 0 1.522-.675 1.522-1.51s-.68-1.512-1.522-1.512z"/><path d="M61.315 10.912c-.58-.707-1.44-1.113-2.36-1.113H11.538L10.58 5.18c-.2-.963-.86-1.772-1.77-2.164L2.13.14C1.356-.194.46.157.125.923c-.335.766.02 1.656.79 1.988l6.682 2.88 7.367 35.51c.29 1.397 1.544 2.412 2.982 2.412h36.47c.84 0 1.52-.677 1.52-1.512s-.68-1.512-1.52-1.512h-36.47l-.896-4.32h37.647c1.437 0 2.692-1.013 2.982-2.412l4.256-20.524c.185-.894-.042-1.812-.622-2.52zm-6.618 22.434H16.423l-4.258-20.524h46.79l-4.258 20.524z"/></g></svg>