<svg width="62" height="65" viewBox="0 0 62 65" xmlns="http://www.w3.org/2000/svg"><title>two-coffe-beans</title><path d="M18.45 64.95c-8.727 0-16.515-8.546-18.115-19.878-1.722-12.197 4.428-23.183 13.71-24.49.606-.086 1.225-.13 1.837-.13 8.728 0 16.516 8.547 18.116 19.88.827 5.858-.113 11.618-2.648 16.22-2.584 4.692-6.512 7.628-11.06 8.27-.608.084-1.227.128-1.84.128zm-2.568-42.574c-.522 0-1.05.037-1.57.11-8.23 1.16-13.644 11.17-12.07 22.317.716 5.073 2.8 9.73 5.87 13.113 2.988 3.296 6.66 5.11 10.338 5.11.523 0 1.05-.037 1.57-.11 3.934-.553 7.358-3.143 9.643-7.292 2.335-4.24 3.198-9.575 2.428-15.025-.714-5.075-2.8-9.73-5.867-13.115-2.99-3.295-6.66-5.11-10.34-5.11zm4.016 38.702c-.208 0-.416-.067-.59-.203-.386-.3-.486-.84-.233-1.256.01-.02 1.59-2.87.22-9.343-.656-3.09-2-4.53-3.424-6.055-1.68-1.803-3.42-3.666-4.03-7.988-.79-5.576 2.97-11.04 3.13-11.27.25-.36.72-.504 1.13-.348.414.157.667.575.614 1.014-.223 1.865-.532 7.21.703 9.52 1.143 2.142 2.446 3.574 3.706 4.958 1.9 2.09 3.695 4.06 4.285 7.867 1.052 6.785-4.583 12.574-4.823 12.817-.188.19-.436.286-.686.286zm-5.313-31.11c-.648 1.754-1.138 3.896-.84 5.998.525 3.722 1.986 5.288 3.534 6.946 1.54 1.65 3.13 3.355 3.896 6.968.522 2.464.65 4.47.587 6.054 1.16-2.05 2.185-4.795 1.74-7.665-.5-3.236-1.96-4.84-3.807-6.87-1.277-1.402-2.724-2.993-3.98-5.345-.837-1.567-1.096-3.962-1.132-6.087zm31.717 5.67c-.796 0-1.59-.09-2.364-.264-3.633-.82-6.608-3.45-8.378-7.404-1.728-3.86-2.1-8.54-1.05-13.18C36.45 6.22 42.767 0 49.527 0c.795 0 1.59.088 2.364.263 3.634.82 6.61 3.45 8.38 7.404 1.728 3.86 2.1 8.54 1.05 13.18-1.94 8.57-8.257 14.79-15.017 14.79zm3.225-33.715c-2.76 0-5.595 1.3-7.984 3.658-2.47 2.44-4.3 5.863-5.155 9.635-.96 4.237-.63 8.49.93 11.97 1.516 3.388 4.018 5.63 7.045 6.314.634.142 1.286.215 1.938.215h.003c2.76 0 5.594-1.3 7.983-3.658 2.47-2.44 4.3-5.86 5.155-9.633.96-4.237.63-8.49-.93-11.97-1.515-3.388-4.017-5.63-7.043-6.314-.634-.144-1.287-.217-1.94-.217zM45.02 32.53c-.326 0-.642-.167-.822-.462-.253-.417-.155-.957.23-1.257.008-.006 1.938-1.66 2.734-6.774.378-2.433-.206-3.862-.825-5.374-.72-1.76-1.536-3.754-.754-7.207 1.008-4.45 5.414-7.504 5.6-7.632.366-.248.854-.217 1.184.076.33.292.42.772.214 1.163-.684 1.312-2.41 5.157-2.15 7.178.245 1.895.806 3.32 1.348 4.695.837 2.12 1.626 4.124.977 7.184-1.157 5.447-7.08 8.21-7.333 8.326-.128.058-.264.086-.4.086zm4.033-23.945c-.7.95-1.315 2.068-1.593 3.292-.648 2.862-.042 4.342.66 6.056.658 1.61 1.405 3.436.944 6.398-.248 1.596-.598 2.9-.98 3.958 1.217-1.142 2.383-2.676 2.786-4.57.53-2.495-.095-4.077-.885-6.08-.558-1.418-1.19-3.023-1.464-5.155-.145-1.146.127-2.56.534-3.897z" fill="#5B3D28"/></svg>