<svg width="73" height="73" viewBox="0 0 73 73" xmlns="http://www.w3.org/2000/svg"><title>coffee-machine (1)</title><g fill="#5A3E28"><path d="M59.41 18.638c3.854 0 6.99-3.135 6.99-6.99 0-3.853-3.136-6.988-6.99-6.988s-6.99 3.135-6.99 6.99c0 3.853 3.136 6.988 6.99 6.988zm0-11.65c2.57 0 4.66 2.092 4.66 4.66 0 2.57-2.09 4.66-4.66 4.66-2.168 0-3.994-1.487-4.513-3.494h5.677c.644 0 1.165-.522 1.165-1.165 0-.645-.523-1.167-1.167-1.167h-5.677c.52-2.007 2.345-3.495 4.513-3.495zM20.713 45.82c1.64 3.657 5.314 6.212 9.574 6.212 5.78 0 10.484-4.703 10.484-10.484v-3.883c0-.643-.52-1.165-1.163-1.165H16.444c-.416 0-.8.222-1.008.582-.51.882-.78 1.89-.78 2.913 0 3.212 2.613 5.824 5.824 5.824h.233zm1.42-6.99H38.44v2.718c0 4.496-3.656 8.154-8.153 8.154-4.496 0-8.154-3.658-8.154-8.154V38.83zm-5.147 1.165c0-.4.068-.793.2-1.165h2.617v2.718c0 .65.06 1.287.174 1.905-1.69-.244-2.99-1.702-2.99-3.458zm5.147 30.675H15.92c-.643 0-1.165.522-1.165 1.165S15.277 73 15.92 73h6.213c.643 0 1.165-.522 1.165-1.165s-.522-1.165-1.165-1.165zm47.372 0h-6.212c-.644 0-1.165.522-1.165 1.165S62.648 73 63.293 73h6.212c.644 0 1.165-.522 1.165-1.165s-.52-1.165-1.165-1.165z"/><path d="M71.835 0H13.59c-.643 0-1.164.522-1.164 1.165v11.65c0 3.21 2.612 5.823 5.824 5.823h3.495v4.66h-2.33v-1.165c0-.613-.475-1.12-1.086-1.162L1.242 19.808c-.322-.023-.64.09-.874.31-.237.22-.37.53-.37.852v6.99c0 .32.133.63.37.85.215.202.5.313.794.313.026 0 .053 0 .08-.002l17.084-1.164c.61-.042 1.085-.55 1.085-1.162V25.63h2.53c.48 1.354 1.776 2.33 3.294 2.33h3.882v1.94c0 .643.52 1.165 1.164 1.165.644 0 1.165-.522 1.165-1.165v-1.943h3.882c1.927 0 3.495-1.567 3.495-3.494v-5.825h6.99v35.724H18.25c-3.212 0-5.824 2.612-5.824 5.824v6.99c0 .643.52 1.164 1.164 1.164h58.245c.643 0 1.165-.52 1.165-1.164V1.166C73 .52 72.478 0 71.835 0zm-54.75 25.704L2.33 26.71v-4.495l14.755 1.006v2.485zm19.415-1.24c0 .64-.522 1.164-1.165 1.164H25.24c-.643 0-1.166-.523-1.166-1.165v-5.825H36.5v5.825zM70.67 66.01H14.755v-5.824c0-1.927 1.568-3.495 3.495-3.495h27.57v5.827c0 .643.52 1.165 1.164 1.165.643 0 1.165-.52 1.165-1.164V17.473c0-.643-.524-1.164-1.167-1.164H18.25c-1.927 0-3.495-1.57-3.495-3.497V2.33H70.67v63.68z"/><ellipse cx="54.75" cy="55.527" rx="1.165" ry="1.165"/><ellipse cx="54.75" cy="48.537" rx="1.165" ry="1.165"/><ellipse cx="54.75" cy="41.548" rx="1.165" ry="1.165"/></g></svg>