<svg width="81" height="65" viewBox="0 0 81 65" xmlns="http://www.w3.org/2000/svg"><title>truck</title><g fill="#5B3D28"><path d="M79.764 22.637L68.042 9.68c-.943-.944-2.156-1.484-3.368-1.484H51.2V5.362C51.2 2.392 48.91.1 46.08.1H5.255C2.29.1 0 2.392 0 5.36v46.695c0 2.564 2.156 4.723 4.716 4.723h2.116c.644 4.61 4.54 8.098 9.337 8.098 4.794 0 8.69-3.487 9.334-8.098h29.832c.644 4.61 4.54 8.098 9.337 8.098 4.796 0 8.693-3.487 9.336-8.098h6.966V25.74c0-1.214-.404-2.294-1.213-3.103zm-2.156 1.754c.405.27.54.81.54 1.217v4.183h-20.21V16.293h12.26l7.41 8.097zM2.695 28.44h18.863c.808 0 1.347-.54 1.347-1.35s-.54-1.35-1.347-1.35H2.695v-4.048h13.473c.81 0 1.348-.54 1.348-1.35s-.54-1.35-1.348-1.35H2.695V5.362c0-1.483 1.078-2.563 2.56-2.563h40.69c1.482 0 2.56 1.214 2.56 2.563v32.524H2.695V28.44zm13.473 33.74c-3.772 0-6.736-2.97-6.736-6.75 0-3.778 2.964-6.747 6.736-6.747 3.773 0 6.737 2.97 6.737 6.748 0 3.78-2.964 6.75-6.737 6.75zm32.337-8.1h-23c-.603-4.322-4.068-7.656-8.452-8.054l-.097-.008c-.11-.008-.22-.018-.332-.023-.15-.007-.303-.01-.456-.01-.152 0-.304.003-.455.01-.112.005-.222.014-.332.023l-.095.008c-4.385.398-7.85 3.732-8.452 8.055H4.716c-1.078 0-2.02-.942-2.02-2.022v-11.47h45.81V54.08zm16.17 8.1c-3.774 0-6.738-2.97-6.738-6.75 0-3.778 2.964-6.747 6.737-6.747 3.772 0 6.737 2.97 6.737 6.748 0 3.78-2.963 6.75-6.735 6.75zm9.335-8.1c-.603-4.322-4.067-7.656-8.452-8.054l-.096-.008c-.11-.008-.22-.018-.332-.023-.152-.007-.303-.01-.456-.01-.153 0-.305.003-.456.01-.112.005-.222.014-.332.023l-.097.008c-4.386.398-7.85 3.732-8.454 8.055H51.2V10.898h13.474c.404 0 .943.27 1.347.54l1.933 2.158h-10.42c-1.212 0-2.29 1.08-2.29 2.295v14.304c0 1.215 1.078 2.294 2.29 2.294h20.615v6.748H71.41c-.808 0-1.347.54-1.347 1.35s.54 1.35 1.347 1.35h6.737V54.08H74.01z"/><path d="M16.168 52.732c-1.482 0-2.694 1.214-2.694 2.7 0 1.483 1.212 2.698 2.694 2.698 1.483 0 2.695-1.215 2.695-2.7 0-1.484-1.212-2.698-2.695-2.698zm48.506 0c-1.482 0-2.695 1.214-2.695 2.7 0 1.483 1.21 2.698 2.693 2.698s2.694-1.215 2.694-2.7c0-1.484-1.212-2.698-2.694-2.698z"/></g></svg>